<svg width="160" height="204" viewBox="0 0 160 204" fill="none" xmlns="http://www.w3.org/2000/svg">
<g>
<g>
<path d="M79.6123 34.562C57.3304 34.562 39.3022 51.8072 39.3022 73.0582C39.3022 94.3092 79.6123 155.211 79.6123 155.211C79.6123 155.211 119.922 94.3092 119.922 73.0582C119.922 51.8072 101.894 34.562 79.6123 34.562Z" fill="white"/>
</g>
<path fill-rule="evenodd" clip-rule="evenodd" d="M78.9437 50.008C79.8064 49.9589 80.6291 50.1392 81.4758 50.4424C81.4478 50.5237 81.4219 50.6035 81.3964 50.682L81.3964 50.6821C81.3346 50.8726 81.2754 51.0549 81.1962 51.229C80.9527 51.7657 80.7051 52.3023 80.4576 52.8389L80.4574 52.8393C80.2098 53.3761 79.9621 53.9128 79.7185 54.4496L79.7178 54.4511L79.7178 54.4511C79.586 54.7421 79.5221 54.883 79.4137 54.9419C79.3119 54.9972 79.1708 54.9802 78.8972 54.9472L78.8479 54.9412C78.5683 54.9085 78.4006 54.7855 78.3606 54.5069C78.3437 54.3896 78.3222 54.2716 78.3008 54.1536L78.3008 54.1536L78.3008 54.1535L78.3007 54.1535L78.3007 54.1535L78.3007 54.1534L78.3007 54.1534L78.3007 54.1534L78.3007 54.1533C78.2413 53.8263 78.1816 53.4984 78.2168 53.1794C78.305 52.391 78.4478 51.6078 78.5905 50.8256L78.5905 50.8251L78.5906 50.8247C78.6288 50.6153 78.667 50.4059 78.7041 50.1965C78.7201 50.1228 78.8559 50.0162 78.9437 50.008ZM73.5605 52.6623L73.5607 52.6626C74.0903 53.4707 74.6086 54.2614 75.1494 55.0382C75.3491 55.3332 75.6207 55.5955 76.06 55.4152C76.731 55.1529 76.8987 54.9727 76.699 54.2515C76.4601 53.375 76.6084 52.5321 76.7572 51.6863L76.7572 51.6862L76.7572 51.6861L76.7572 51.686L76.7573 51.6859L76.7573 51.6858L76.7573 51.6857L76.7573 51.6856L76.7573 51.6855L76.7573 51.6854L76.7574 51.6853L76.7574 51.6852L76.7574 51.6851L76.7574 51.685C76.7727 51.5982 76.788 51.5113 76.8028 51.4244C76.8588 51.113 76.8508 50.7688 76.7789 50.4574C76.7469 50.3099 76.4594 50.0886 76.3475 50.1132C75.1254 50.4246 74.0551 51.0392 73.0327 51.8587C73.2107 52.1285 73.3862 52.3964 73.5605 52.6623ZM70.4218 58.9134C70.9814 59.3326 71.5427 59.753 72.1138 60.1785C71.9221 61.1209 71.4269 61.6535 70.4604 61.7601C69.1265 61.8994 68.0002 61.3421 66.9858 60.5063C66.9298 60.4571 66.9059 60.2768 66.9458 60.1949C67.0052 60.0594 67.0643 59.9236 67.1234 59.7878C67.3825 59.1924 67.6421 58.5956 67.9283 58.0151C68.0051 57.8518 68.1309 57.7157 68.2514 57.5853L68.2514 57.5853L68.2514 57.5853L68.2514 57.5853C68.3063 57.5259 68.3601 57.4677 68.4076 57.4087C69.0861 57.9129 69.7528 58.4123 70.4218 58.9134ZM70.7803 63.9233C69.2706 63.5382 67.8089 63.1612 66.2353 62.7515C66.2016 62.9417 66.1639 63.138 66.1255 63.3385L66.1254 63.3386C66.0545 63.7084 65.9808 64.0927 65.9238 64.4805C65.8691 64.8478 65.833 65.2183 65.7962 65.5958C65.7738 65.8248 65.7512 66.0564 65.7241 66.2916C66.9862 66.939 68.2801 67.1192 69.5582 66.3653C70.4688 65.8409 70.8282 64.9722 70.7803 63.9233ZM65.78 68.2657C65.5404 69.5605 65.7321 70.7815 66.1794 71.9697C66.2194 72.0681 66.3232 72.1746 66.4191 72.2074C68.3041 72.8547 70.4289 71.56 70.7244 69.8145C70.7643 69.5769 70.7803 69.3228 70.7643 69.0852C70.6685 68.0445 70.4768 67.897 69.4863 68.0445L69.201 68.087C68.5212 68.1885 67.8406 68.2902 67.1539 68.3477C66.8523 68.3702 66.5431 68.3386 66.2238 68.306H66.2238H66.2237H66.2237C66.078 68.2911 65.9302 68.276 65.78 68.2657ZM71.1476 75.9525C71.7866 74.5594 71.587 73.5596 70.5086 72.691C69.3903 73.5596 68.0963 73.8792 66.7065 73.9284C66.6106 73.9284 66.4509 74.0677 66.4269 74.1742C66.2113 75.2149 66.5148 76.1409 67.0819 76.9932C67.1273 77.0605 67.2142 77.0951 67.3122 77.1341L67.3123 77.1342L67.3124 77.1342C67.3695 77.157 67.4305 77.1813 67.4893 77.2144C67.4616 77.2334 67.4346 77.2523 67.4079 77.271C67.342 77.3172 67.2779 77.3621 67.2097 77.4029C65.756 78.2961 64.5818 79.468 63.8869 81.066C62.9763 83.172 62.6488 85.3436 63.4715 87.5807C63.6196 87.9829 63.7558 88.3923 63.8918 88.8011L63.8918 88.8012L63.8918 88.8012L63.8918 88.8012L63.8918 88.8013L63.8918 88.8013L63.8918 88.8013L63.8919 88.8014L63.8919 88.8014L63.8919 88.8014L63.8919 88.8015L63.8919 88.8015L63.8919 88.8015L63.8919 88.8016L63.8919 88.8016L63.8919 88.8016L63.892 88.8017L63.892 88.8017C64.0053 89.1424 64.1185 89.4827 64.2383 89.8179C64.6377 90.9488 64.6696 92.1124 64.3501 93.2433C63.4076 96.5457 64.2942 99.5778 65.5483 102.569C65.6583 102.819 65.838 103.045 66.0112 103.263L66.0196 103.274C66.2592 103.577 66.5707 103.675 66.9461 103.544C67.3215 103.405 67.5931 103.151 67.5772 102.749C67.5612 102.233 67.4973 101.717 67.3775 101.217C67.2856 100.819 67.1738 100.426 67.062 100.033L67.0619 100.033C66.9501 99.6392 66.8383 99.2459 66.7464 98.8485C66.4908 97.7258 66.8183 96.7998 67.7129 96.1032C67.7512 96.0744 67.7887 96.0448 67.8259 96.0154C67.9051 95.9527 67.9829 95.8912 68.0644 95.841C69.4143 95.0461 70.245 93.8005 70.932 92.4156C71.1238 92.022 71.372 91.6554 71.6199 91.2894L71.6199 91.2893C71.7333 91.1219 71.8466 90.9546 71.9544 90.7849L72.0502 90.834C72.0982 91.0635 72.1471 91.2929 72.196 91.5224C72.3428 92.2107 72.4896 92.8991 72.6094 93.5875C73.1445 96.5785 74.8699 98.8321 76.8668 100.93C77.0637 101.14 77.3229 101.294 77.5675 101.44L77.5777 101.446C77.9132 101.651 78.2566 101.651 78.5761 101.381C78.9036 101.102 79.0234 100.75 78.8797 100.356C78.7359 99.9793 78.5522 99.6106 78.3285 99.2746C78.0966 98.9309 77.8462 98.6014 77.5959 98.2721L77.5959 98.2721C77.3807 97.989 77.1657 97.7061 76.9626 97.4144C76.0121 96.0541 75.9722 95.0953 76.9067 93.735C77.6496 92.6451 78.1608 91.4568 78.6161 90.1703C78.7432 90.2309 78.8681 90.2871 78.9905 90.3421L78.9906 90.3421L78.9907 90.3422L78.9908 90.3423C79.1989 90.4358 79.3995 90.526 79.5906 90.6292C81.5555 91.7273 82.7617 93.4563 83.4806 95.5788C83.7725 96.4253 84.0242 97.2874 84.2755 98.1485L84.2755 98.1485C84.3405 98.3711 84.4054 98.5935 84.471 98.8157C84.7027 99.6024 85.0781 100.299 85.5893 100.922C85.7753 101.147 85.9612 101.372 86.1469 101.597L86.1543 101.606L86.1617 101.615L86.1689 101.624L86.1738 101.63C87.0876 102.737 87.9997 103.843 88.9281 104.937C89.1917 105.249 89.5112 105.544 89.8547 105.765C90.4777 106.166 91.0848 106.043 91.6599 105.478C92.0753 105.068 92.1472 104.56 91.7717 103.913C91.5564 103.54 91.2786 103.202 91.0054 102.87L91.0047 102.869L91.004 102.868L91.0037 102.867C90.9532 102.806 90.9029 102.745 90.8532 102.684C90.6934 102.487 90.5097 102.298 90.318 102.135C88.6965 100.717 88.2971 98.8403 88.369 96.7834C88.3806 96.438 88.4217 96.0927 88.4617 95.7567L88.4618 95.7566L88.4618 95.7565C88.4768 95.6302 88.4917 95.5052 88.5048 95.3821C88.7544 95.3332 89.001 95.2843 89.2422 95.2364L89.2445 95.236L89.2451 95.2359C89.69 95.1476 90.1166 95.063 90.5097 94.9888C90.6586 95.3254 90.7979 95.6694 90.9375 96.014L90.9376 96.014L90.9376 96.0142C91.2398 96.7601 91.5432 97.5091 91.9475 98.1929C92.5421 99.2009 93.2467 100.139 93.951 101.077C94.117 101.298 94.283 101.519 94.4476 101.741C94.7272 102.118 95.1026 102.421 95.6138 102.298C95.8854 102.233 96.0931 101.479 95.9573 100.946C95.8295 100.446 95.6777 99.9384 95.4301 99.4958C94.3278 97.5045 93.9044 95.3165 93.6089 93.0958C93.4571 91.9649 92.8021 91.4568 91.6998 91.6781C89.639 92.096 87.5702 92.3009 85.4695 92.1124C85.3257 92.096 85.1819 92.0632 85.0381 92.0305C83.5524 91.6699 82.9614 90.2604 83.7282 88.8919C83.7521 88.8427 83.7761 88.7936 83.816 88.7526C84.5302 88.0139 84.9172 87.0963 85.3059 86.1749C85.4432 85.8493 85.5808 85.5231 85.7331 85.2043C86.0366 84.5815 86.6117 84.057 87.1629 83.5981C87.8418 83.0409 88.6725 82.7623 89.5272 82.5738C89.647 82.5492 89.8228 82.4345 89.8467 82.3361C89.8707 82.2214 89.7748 82.0083 89.679 81.9592C89.618 81.9297 89.5566 81.8993 89.495 81.8688C89.1287 81.6874 88.7507 81.5002 88.361 81.4511C87.722 81.3692 87.059 81.3856 86.412 81.4511C85.6931 81.5249 85.0541 81.2954 84.4551 81.0004C83.816 80.689 83.209 80.2629 82.6339 79.8368C81.0603 78.6649 79.4708 77.5258 77.6655 76.7473C75.7325 75.9033 73.7276 75.6247 71.6509 75.9361C71.4991 75.9197 71.3313 75.9279 71.1476 75.9525ZM79.9102 74.3705C79.2712 74.7803 78.5763 74.9606 77.8255 74.9606C77.1066 74.936 76.4196 74.7885 75.8365 74.3296C75.1895 73.8297 74.9419 73.0922 75.3173 72.3792C75.557 71.9306 75.8909 71.5373 76.2249 71.1439L76.2249 71.1439C76.3363 71.0128 76.4476 70.8817 76.5554 70.7485C76.6113 70.6829 76.7471 70.6584 76.843 70.6666C78.5763 70.8386 79.9182 72.0597 80.2297 73.6003C80.3096 73.9772 80.2058 74.1821 79.9102 74.3705ZM71.2356 53.2944C72.1462 53.9992 73.4243 55.6053 74.2949 57.1214L74.2051 57.2379C73.9991 57.5053 73.8045 57.7578 73.616 58.0228C73.4482 58.2604 73.2485 58.3178 72.961 58.2276C71.4833 57.7442 70.4688 56.6625 69.3985 55.4988C70.021 54.7537 70.6276 54.025 71.2342 53.2962L71.2356 53.2944ZM83.696 58.3261C84.3542 57.7445 85.1559 57.6428 85.9624 57.5406L85.9624 57.5406L85.9625 57.5406L85.9625 57.5406L85.9625 57.5406L85.9625 57.5406L85.9625 57.5406L85.9626 57.5406L85.9626 57.5406L85.9626 57.5406L85.9626 57.5405L85.9626 57.5405C86.1446 57.5175 86.3268 57.4944 86.5077 57.4657C86.923 57.4001 87.3384 57.2772 87.7378 57.1461C87.8257 57.1133 87.9535 56.9494 87.9375 56.8675C87.8177 56.0562 87.57 55.2941 86.9071 54.7696C86.7952 54.6795 86.6115 54.6221 86.4837 54.6385C85.5092 54.7942 84.6066 55.1384 83.7999 55.7202C83.704 55.794 83.6082 55.8677 83.5203 55.9497C82.6896 56.7364 82.7455 57.6296 83.696 58.3261ZM84.0079 71.7728C83.2011 70.2977 79.6865 68.8882 78.7759 69.6831C78.7759 69.7077 78.7759 69.7487 78.7919 69.7569C79.8782 70.7239 80.661 71.9449 81.4199 73.1823C81.6036 73.4855 81.7873 73.5019 82.0748 73.4035C82.7458 73.1741 83.5126 72.5349 84.0079 71.7728ZM89.3754 87.6793C89.2556 88.3103 89.008 88.4987 88.3689 88.5151C88.2568 88.4937 88.1446 88.4767 88.0329 88.4597H88.0329L88.0329 88.4597L88.0328 88.4597L88.0328 88.4597L88.0327 88.4597L88.0327 88.4597C87.8026 88.4247 87.575 88.3902 87.3545 88.3185C86.6356 88.0972 86.3241 87.5809 86.4599 86.8188C86.5078 86.5402 86.6117 86.2698 86.7315 86.0158C87.1628 85.1225 87.8737 84.4915 88.6884 83.9835C88.968 83.8114 89.3035 83.7048 89.623 83.6475C89.7707 83.6183 89.9345 83.6596 90.0973 83.7007C90.1634 83.7174 90.2293 83.734 90.294 83.7458C90.2804 83.806 90.2701 83.8694 90.2597 83.9331C90.2333 84.0951 90.2065 84.2592 90.1262 84.3768C89.6629 85.057 89.5272 85.8191 89.4872 86.6222C89.4712 86.9745 89.4393 87.3351 89.3754 87.6793ZM87.6782 86.5248C87.4265 86.6229 87.2364 86.8804 87.2427 87.163C87.2507 87.5318 87.5542 87.8268 87.9136 87.8186C87.9899 87.8168 88.0624 87.8019 88.1293 87.776C88.0622 87.8016 87.9897 87.8164 87.9138 87.8182C87.5544 87.8264 87.2509 87.5314 87.2429 87.1626C87.2429 86.8803 87.4289 86.6232 87.6782 86.5248ZM84.8631 60.6817L84.8636 60.6818L84.8637 60.6818L84.8639 60.6818C86.0804 60.7846 87.2725 60.8854 88.4647 60.9965C88.8161 61.0293 88.928 60.89 88.9599 60.554C89.0238 59.8329 88.7842 59.2675 88.1931 58.8741C87.1946 58.2185 85.4134 58.3333 84.5028 59.12C84.0395 59.5133 83.8398 60.0132 83.9357 60.6032C84.2466 60.6296 84.5557 60.6558 84.8631 60.6817ZM83.2168 51.1724C84.1753 51.705 85.0859 52.2459 85.7249 53.1719C84.2552 54.0569 82.8334 54.9173 81.4116 55.786C81.148 55.3599 81.116 55.073 81.3077 54.4748C81.6722 53.3226 82.3621 52.3623 83.0615 51.3887L83.0618 51.3883L83.0624 51.3874C83.1139 51.3158 83.1654 51.2442 83.2168 51.1724ZM81.0446 68.1926C82.0409 68.5401 82.8415 69.1682 83.6575 69.8083C84.15 70.1946 84.648 70.5853 85.1981 70.9215C85.2722 70.8018 85.346 70.683 85.4194 70.565L85.4222 70.5605L85.4223 70.5603L85.423 70.5593L85.423 70.5592L85.4232 70.5589C85.7201 70.0811 86.01 69.6148 86.2845 69.1432C86.3244 69.0777 86.3004 68.8892 86.2365 68.84C85.1981 68.0041 84.0799 67.3322 82.714 67.2666C82.035 67.2502 81.428 67.4305 81.0446 68.1926ZM88.6407 62.753C88.6247 63.4243 88.6084 64.1119 88.1854 64.6768C88.0194 64.6208 87.8552 64.5642 87.6921 64.5079L87.6921 64.5079L87.6921 64.5079L87.6921 64.5079L87.6919 64.5078C87.2587 64.3584 86.8336 64.2118 86.4042 64.0868C85.6454 63.8819 84.8865 63.6935 84.1197 63.5214C83.8322 63.4558 83.7683 63.3083 83.8082 63.0297C83.9121 62.2594 84.4313 61.7841 85.3099 61.7513C86.4361 61.7021 87.4745 62.0873 88.489 62.5462C88.5609 62.579 88.6407 62.6855 88.6407 62.7511L88.6407 62.753ZM85.821 87.6948C85.6505 87.9087 85.498 88.0967 85.3557 88.272C85.1981 88.4662 85.0532 88.6448 84.9104 88.8257C84.8615 88.8879 84.8104 88.9488 84.7595 89.0094C84.6362 89.1564 84.5137 89.3024 84.4232 89.4649C84.1277 89.9893 84.2714 90.563 84.8146 90.8006C85.2459 90.9891 85.7252 91.112 86.1885 91.1612C87.4266 91.3005 88.6487 91.1776 89.8468 90.8088C89.7669 90.2352 89.5113 89.9729 88.9522 89.9156C88.6731 89.89 88.3909 89.8804 88.1094 89.8708L88.1092 89.8708L88.1089 89.8708L88.1086 89.8708C87.9393 89.865 87.7702 89.8593 87.6023 89.85C86.516 89.7845 86.3402 89.6124 86.1246 88.5307C86.0871 88.3493 86.0137 88.1717 85.9356 87.9829C85.8973 87.8901 85.8579 87.7947 85.821 87.6948ZM86.8276 67.6593C85.5496 66.9791 84.2476 66.3891 82.8018 66.0941C83.0095 65.0452 83.6884 64.5781 84.7588 64.7174C85.8371 64.8485 86.7956 65.3074 87.6743 65.9384C87.7621 66.004 87.874 66.1515 87.85 66.217C87.6743 66.6759 87.4906 67.143 87.2589 67.5773C87.211 67.6593 86.9314 67.7167 86.8276 67.6593ZM90.3338 85.9576C90.3338 86.8098 90.4696 86.9492 91.1086 86.8262C91.3722 86.7771 91.6518 86.6623 91.8674 86.4985C92.6982 85.8675 92.9298 84.3433 92.3547 83.4992C92.2189 83.3025 92.0991 83.2206 91.8754 83.3845C90.9489 84.081 90.3737 84.9579 90.3338 85.9576Z" fill="#20113D"/>
<g filter="url(#filter2_d)">
<path d="M80.0001 28.335C53.6474 28.335 32.3257 48.2504 32.3257 72.7919C32.3257 97.3334 80.0001 167.665 80.0001 167.665C80.0001 167.665 127.675 97.3334 127.675 72.7919C127.675 48.2504 106.353 28.335 80.0001 28.335Z" stroke="white" stroke-width="3" stroke-miterlimit="10" stroke-linejoin="round"/>
</g>
</g>
<defs>
<filter id="filter0_d" x="0" y="0" width="160" height="204" filterUnits="userSpaceOnUse" color-interpolation-filters="sRGB">
<feFlood flood-opacity="0" result="BackgroundImageFix"/>
<feColorMatrix in="SourceAlpha" type="matrix" values="0 0 0 0 0 0 0 0 0 0 0 0 0 0 0 0 0 0 127 0"/>
<feOffset dy="4"/>
<feGaussianBlur stdDeviation="15"/>
<feColorMatrix type="matrix" values="0 0 0 0 0.960784 0 0 0 0 0.501961 0 0 0 0 0.129412 0 0 0 0.7 0"/>
<feBlend mode="normal" in2="BackgroundImageFix" result="effect1_dropShadow"/>
<feBlend mode="normal" in="SourceGraphic" in2="effect1_dropShadow" result="shape"/>
</filter>
<filter id="filter1_d" x="9.30225" y="8.56201" width="140.62" height="180.649" filterUnits="userSpaceOnUse" color-interpolation-filters="sRGB">
<feFlood flood-opacity="0" result="BackgroundImageFix"/>
<feColorMatrix in="SourceAlpha" type="matrix" values="0 0 0 0 0 0 0 0 0 0 0 0 0 0 0 0 0 0 127 0"/>
<feOffset dy="4"/>
<feGaussianBlur stdDeviation="15"/>
<feColorMatrix type="matrix" values="0 0 0 0 1 0 0 0 0 1 0 0 0 0 1 0 0 0 0.5 0"/>
<feBlend mode="normal" in2="BackgroundImageFix" result="effect1_dropShadow"/>
<feBlend mode="normal" in="SourceGraphic" in2="effect1_dropShadow" result="shape"/>
</filter>
<filter id="filter2_d" x="0.825684" y="0.834961" width="158.349" height="202.33" filterUnits="userSpaceOnUse" color-interpolation-filters="sRGB">
<feFlood flood-opacity="0" result="BackgroundImageFix"/>
<feColorMatrix in="SourceAlpha" type="matrix" values="0 0 0 0 0 0 0 0 0 0 0 0 0 0 0 0 0 0 127 0"/>
<feOffset dy="4"/>
<feGaussianBlur stdDeviation="15"/>
<feColorMatrix type="matrix" values="0 0 0 0 0 0 0 0 0 0 0 0 0 0 0 0 0 0 0.5 0"/>
<feBlend mode="normal" in2="BackgroundImageFix" result="effect1_dropShadow"/>
<feBlend mode="normal" in="SourceGraphic" in2="effect1_dropShadow" result="shape"/>
</filter>
</defs>
</svg>
