<svg width="35" height="51" viewBox="0 0 35 51" fill="none" xmlns="http://www.w3.org/2000/svg">
<path d="M17.3644 3.46875C9.5657 3.46875 3.25586 9.45667 3.25586 16.8355C3.25586 24.2143 17.3644 45.3606 17.3644 45.3606C17.3644 45.3606 31.4729 24.2143 31.4729 16.8355C31.4729 9.45667 25.1631 3.46875 17.3644 3.46875Z" fill="#F58021"/>
<path d="M14.0214 22.2646C14.0999 22.4354 14.2204 22.3542 14.3465 22.3514C14.5484 22.3458 14.6717 22.2114 14.8539 22.1331C14.6941 22.0855 14.5596 22.0435 14.4166 21.9987C14.3718 22.0911 14.3241 22.1919 14.2737 22.2954C14.2597 22.2954 14.2428 22.2954 14.2288 22.2954C14.212 22.2198 14.1896 22.1443 14.184 22.0687C14.1784 21.9791 14.1475 21.9343 14.0522 21.9315C13.999 21.9287 13.9457 21.8951 13.8728 21.8671C13.8196 22.0071 13.7579 22.1639 13.6851 22.357C13.5617 22.1443 13.5841 21.9455 13.5954 21.7523C13.4328 21.6599 13.4328 21.6599 13.3319 21.9651C13.3123 21.9175 13.2786 21.8699 13.2758 21.8223C13.2646 21.7047 13.217 21.6319 13.0908 21.5983C12.9899 21.5676 12.9563 21.5788 12.9535 21.6879C12.9507 21.8167 12.9367 21.9483 12.9142 22.0771C12.9058 22.1359 12.8694 22.1919 12.847 22.2506C12.833 22.2506 12.8189 22.2506 12.8077 22.2506C12.7909 22.1975 12.7713 22.1443 12.7545 22.0911C12.7068 21.9315 12.6648 21.7691 12.6143 21.6095C12.5947 21.5452 12.5639 21.5088 12.4798 21.5368C12.4237 21.5564 12.3565 21.5396 12.264 21.5396C12.2415 21.6067 12.2079 21.6991 12.1743 21.7915C12.1603 21.7943 12.1434 21.7971 12.1294 21.7999C12.1014 21.7187 12.0762 21.6375 12.0425 21.5564C12.0229 21.5088 11.9949 21.4668 11.9697 21.422C11.9388 21.4668 11.9108 21.5144 11.88 21.5592C11.8687 21.5788 11.8575 21.5983 11.8295 21.6515C11.7735 21.5424 11.7314 21.4556 11.6838 21.3632C11.3026 21.3492 11.4287 21.6879 11.3418 21.8783C11.3278 21.8811 11.3138 21.8839 11.297 21.8867C11.2661 21.7999 11.2213 21.7187 11.2101 21.6291C11.196 21.5228 11.2185 21.4164 11.2157 21.3072C11.2157 21.2708 11.1904 21.2372 11.1764 21.2008C11.1372 21.2204 11.0783 21.2288 11.0643 21.2568C11.0307 21.3408 11.0139 21.4332 10.9606 21.5312C10.941 21.4528 10.9129 21.3744 10.9073 21.296C10.8905 21.0552 10.8765 20.8173 10.8681 20.5765C10.8569 20.319 10.9466 20.1958 11.1932 20.1034C11.2857 20.067 11.3698 20.0026 11.4651 19.9662C11.5436 19.9354 11.6417 19.8962 11.7174 19.9158C11.9192 19.9634 12.1182 20.0278 12.3088 20.109C12.4658 20.1762 12.6171 20.2154 12.7909 20.2182C12.9535 20.221 13.1161 20.2798 13.273 20.3358C13.3879 20.3777 13.4832 20.4085 13.6038 20.3441C13.6654 20.3134 13.7719 20.3246 13.842 20.3553C14.0102 20.4253 14.1756 20.4113 14.3493 20.3861C14.6212 20.3497 14.8931 20.3358 15.1678 20.305C15.2491 20.2966 15.3332 20.277 15.4061 20.2434C15.5266 20.1874 15.6443 20.1202 15.7564 20.0474C15.8265 19.9998 15.8826 19.927 15.9498 19.8738C16.1068 19.745 16.2834 19.731 16.4768 19.7842C16.544 19.8038 16.6253 19.773 16.701 19.7674C16.7459 19.7646 16.7935 19.759 16.8383 19.7562C16.9785 19.745 17.1186 19.7338 17.2616 19.7255C17.3821 19.7171 17.5054 19.6863 17.6176 19.7115C17.8614 19.7674 18.0296 19.6303 18.2006 19.5099C18.2342 19.4875 18.2426 19.3531 18.209 19.3195C18.0408 19.1487 18.0548 18.964 18.1193 18.7624C18.1922 18.5328 18.3183 18.3509 18.5509 18.2641C18.75 18.1885 18.8116 18.0737 18.764 17.8694C18.7584 17.8498 18.7443 17.8302 18.7275 17.8162C18.6406 17.7378 18.5565 17.6538 18.4612 17.5866C18.4276 17.5642 18.3631 17.5698 18.3183 17.5866C18.2903 17.595 18.2538 17.6482 18.2594 17.6762C18.2931 17.8805 18.1305 18.0093 18.0688 18.1801C18.0072 18.0485 17.9147 17.9253 17.9483 17.7742C17.9707 17.6706 17.9231 17.6146 17.839 17.6062C17.7857 17.6006 17.7213 17.6482 17.6708 17.6818C17.6176 17.7182 17.5643 17.7602 17.5223 17.8106C17.4802 17.861 17.4494 17.9225 17.4017 17.9981C17.3373 17.8722 17.3849 17.7518 17.3961 17.6398C17.4045 17.5642 17.455 17.4914 17.469 17.4158C17.4774 17.3682 17.4662 17.3066 17.4382 17.2674C17.4242 17.2479 17.3541 17.2618 17.312 17.273C17.2224 17.2982 17.1355 17.329 17.0374 17.3626C16.9841 17.1975 17.1018 17.0967 17.1971 16.9987C17.2952 16.8979 17.4158 16.8167 17.5559 16.7047C17.5026 16.6767 17.4606 16.6571 17.3905 16.6208C17.5335 16.5816 17.626 16.5424 17.7241 16.534C17.8558 16.5256 17.8866 16.4388 17.9035 16.3436C17.9707 15.9321 18.1445 15.5709 18.3884 15.2406C18.4753 15.123 18.5986 15.0334 18.6995 14.927C18.7471 14.8794 18.8032 14.8234 18.82 14.7647C18.9434 14.3027 19.2657 14.0256 19.6721 13.8184C19.6833 13.8128 19.6973 13.8072 19.7029 13.8044C19.6637 13.4433 19.6273 13.0849 19.588 12.721C19.3554 12.5978 19.2461 12.3458 19.0891 12.1331C19.0751 12.1135 19.0611 12.0883 19.0415 12.0771C18.8453 11.9539 18.6182 11.8587 18.4556 11.7019C18.2987 11.5508 18.1109 11.5032 17.9287 11.4248C17.7745 11.3576 17.6204 11.2904 17.4718 11.212C17.4073 11.1784 17.3569 11.1168 17.2868 11.0553C17.1915 11.0273 17.0682 10.9993 16.9533 10.9545C16.7374 10.8705 16.5328 10.7641 16.3142 10.6941C16.1488 10.6409 15.9666 10.6353 15.7957 10.5961C15.7256 10.5793 15.6611 10.5373 15.5967 10.5037C15.5742 10.4925 15.5518 10.4729 15.5294 10.4729C15.2939 10.4645 15.0389 10.5093 14.823 10.4394C14.5427 10.347 14.2456 10.4338 13.985 10.3106C13.6682 10.1594 13.3403 10.2434 13.018 10.221C12.9815 10.2182 12.9395 10.2322 12.9058 10.221C12.5246 10.0894 12.1659 10.2546 11.7959 10.291C11.7006 10.2994 11.6025 10.2938 11.5044 10.2966C11.4679 10.2966 11.4315 10.3022 11.3951 10.3078C11.0895 10.361 10.7812 10.4142 10.4785 10.4729C10.3804 10.4925 10.2823 10.5289 10.187 10.5625C9.95715 10.6409 9.7161 10.6857 9.49186 10.7949C9.11066 10.9825 8.69583 11.1028 8.32584 11.3184C8.08479 11.4584 7.82692 11.5676 7.56905 11.6768C7.49898 11.7075 7.40648 11.6852 7.3252 11.6852C7.35603 11.6124 7.37285 11.5228 7.4261 11.4724C7.49057 11.408 7.58867 11.3744 7.66715 11.3212C7.70359 11.296 7.74564 11.2596 7.75965 11.2204C7.79889 11.114 7.86056 11.0469 7.98108 11.0357C8.02032 11.0329 8.06517 10.9937 8.08759 10.9601C8.16047 10.8397 8.24456 10.7501 8.36789 10.7697C8.44637 10.6997 8.51084 10.6465 8.5725 10.5905C8.60333 10.5625 8.62856 10.5317 8.65659 10.5009C8.67341 10.4813 8.68462 10.445 8.70704 10.4366C8.89203 10.3526 9.07703 10.2742 9.26202 10.1902C9.30126 10.1706 9.34331 10.1482 9.37694 10.123C9.5311 10.0082 9.7217 9.94943 9.84784 9.78146C9.88147 9.73387 10.0132 9.75066 10.1001 9.75346C10.187 9.75346 10.2374 9.72547 10.2963 9.65548C10.3552 9.58549 10.4561 9.5295 10.5458 9.5099C10.6719 9.48471 10.8008 9.5323 10.9017 9.38112C10.9438 9.31673 11.0979 9.33073 11.2017 9.29994C11.2549 9.28594 11.3362 9.26914 11.353 9.22995C11.4287 9.06757 11.5632 9.08997 11.6978 9.08437C11.7791 9.08157 11.8631 9.05358 11.9444 9.03678C12.0425 9.01718 12.1434 8.97239 12.2387 8.97799C12.334 8.98639 12.4013 8.97799 12.4602 8.9024C12.4742 8.8856 12.4966 8.86321 12.5162 8.86321C12.7517 8.85481 12.9479 8.64484 13.2057 8.72883C13.2338 8.73723 13.273 8.71203 13.3039 8.70083C13.5197 8.62245 13.7327 8.53846 13.9485 8.46847C14.0074 8.44887 14.0831 8.45447 14.1419 8.47407C14.2905 8.52166 14.411 8.47407 14.5456 8.41528C14.6212 8.38168 14.7193 8.39568 14.8062 8.39008C14.8903 8.38448 14.9744 8.38448 15.0585 8.37889C15.0753 8.37889 15.0949 8.35929 15.1117 8.36209C15.4117 8.44328 15.7368 8.21091 16.0283 8.44048C16.0619 8.46847 16.146 8.45447 16.1965 8.43208C16.3142 8.38168 16.4151 8.34249 16.5328 8.44327C16.5665 8.47127 16.6449 8.44607 16.7038 8.44887C16.7907 8.45447 16.8748 8.46007 16.9617 8.47127C17.0738 8.48527 17.1859 8.52166 17.298 8.51886C17.4242 8.51606 17.5307 8.52726 17.6316 8.61685C17.6904 8.66724 17.7913 8.68684 17.8754 8.68964C18.0184 8.69243 18.1529 8.68404 18.2566 8.81002C18.2678 8.82401 18.2987 8.82681 18.3211 8.82401C18.3435 8.82401 18.3772 8.80162 18.3884 8.81002C18.5257 8.9248 18.7051 8.8968 18.8593 8.95559C18.9602 8.99479 19.0471 9.06477 19.1424 9.11517C19.1676 9.12916 19.2068 9.12636 19.2349 9.11517C19.3582 9.07317 19.4339 9.12916 19.4815 9.23555C19.5264 9.33633 19.5908 9.38392 19.7058 9.38672C19.7618 9.38952 19.8515 9.42592 19.8683 9.47071C19.916 9.59109 19.9973 9.61349 20.1094 9.61349C20.143 9.61349 20.1794 9.63588 20.2131 9.65268C20.684 9.90744 21.1549 10.165 21.6286 10.4142C22.1443 10.6857 22.5367 11.0944 22.9179 11.52C23.1337 11.7635 23.3412 12.0127 23.5794 12.2451C23.5318 12.1611 23.4729 12.0827 23.4365 11.9931C23.4084 11.9287 23.3776 11.8335 23.4056 11.7859C23.5121 11.604 23.6299 11.4248 23.7644 11.2624C23.8401 11.1728 23.955 11.156 24.0699 11.2372C24.112 11.268 24.1736 11.2764 24.2297 11.2848C24.3474 11.3044 24.4567 11.3156 24.5044 11.4584C24.5184 11.5004 24.6221 11.52 24.6866 11.534C24.8744 11.5704 24.9332 11.6012 24.9893 11.7159C24.7678 11.8139 24.7791 11.8167 24.9444 12.0183C25.2556 12.3962 25.4574 12.819 25.3733 13.3285C25.3677 13.3677 25.3901 13.4181 25.4097 13.4573C25.5471 13.712 25.5443 13.9668 25.3985 14.2159C25.2836 14.4119 25.1883 14.6275 24.9332 14.6975C25.3901 15.9433 25.3873 17.1807 24.9444 18.4293C25.2724 18.4853 25.5218 18.656 25.7349 18.8884C25.7405 18.894 25.7489 18.9024 25.7545 18.908C25.9255 19.1627 26.1076 19.4035 26.3179 19.6303C26.4216 19.7422 26.4552 19.9438 26.4748 20.109C26.5001 20.3386 26.4832 20.5737 26.4804 20.8089C26.4776 21.0132 26.5533 21.1252 26.7383 21.198C26.8448 21.24 26.9485 21.2932 27.0466 21.352C27.0999 21.3856 27.1391 21.4472 27.184 21.4948C27.1756 21.5032 27.17 21.5144 27.1616 21.5228C27.1055 21.5116 27.0522 21.5032 26.9794 21.4892C26.9906 21.52 26.9906 21.5424 27.0018 21.548C27.1223 21.6375 27.2428 21.7271 27.369 21.8111C27.5399 21.9287 27.4979 22.1191 27.5428 22.2898C27.397 22.1611 27.1616 22.2786 27.0494 22.0827C27.0354 22.0575 26.9429 22.0799 26.9205 22.0799C26.9037 22.329 26.8897 22.5614 26.8757 22.791C26.8644 22.7966 26.8504 22.7994 26.8392 22.805C26.7495 22.6986 26.6598 22.5922 26.5673 22.4886C26.5393 22.4578 26.4776 22.4158 26.4692 22.4242C26.43 22.455 26.3795 22.5082 26.3851 22.5446C26.3992 22.6398 26.3571 22.6762 26.2814 22.7154C26.2366 22.7378 26.2058 22.791 26.1693 22.8329C26.1357 22.8721 26.1048 22.9169 26.074 22.9589C26.06 22.9561 26.046 22.9533 26.032 22.9505C26.0264 22.8805 26.0152 22.8106 26.0124 22.7406C26.0067 22.6398 26.0124 22.539 26.0067 22.4382C25.9983 22.3262 25.9311 22.2982 25.8386 22.3626C25.8161 22.3794 25.7937 22.4018 25.7685 22.4046C25.6115 22.4326 25.6087 22.4326 25.5555 22.5922C25.5274 22.5418 25.505 22.5138 25.4938 22.4774C25.449 22.3122 25.533 22.0827 25.6788 21.9931C25.833 21.9007 25.8554 21.6319 25.7769 21.506C25.6872 21.3632 25.5919 21.226 25.505 21.0832C25.4321 20.9629 25.3985 20.8425 25.4462 20.6969C25.4966 20.5401 25.4097 20.4197 25.25 20.3777C24.9977 20.3134 24.7482 20.2462 24.4848 20.1734C24.381 20.3218 24.2689 20.4869 24.1512 20.6493C23.8513 21.0608 23.4785 21.3716 22.9684 21.492C22.9039 21.506 22.845 21.5564 22.789 21.5927C22.6993 21.6515 22.6152 21.7243 22.4947 21.6767C22.475 21.6683 22.433 21.6907 22.4162 21.7131C21.7127 22.6482 20.8269 23.3537 19.7198 23.7484C19.2545 23.9136 18.7752 24.034 18.2931 24.1431C18.1249 24.1795 17.9343 24.1291 17.7577 24.0983C17.6848 24.0843 17.6316 24.0703 17.5671 24.1207C17.0037 24.5491 16.3843 24.6331 15.7116 24.4427C15.2911 24.3251 14.8707 24.3027 14.4418 24.4259C14.3129 24.4623 14.1644 24.4287 14.027 24.4287C13.7607 24.4259 13.4973 24.4231 13.231 24.4231C13.2086 24.4231 13.1833 24.4287 13.1637 24.4399C12.8358 24.6359 12.4798 24.5127 12.135 24.5267C11.7482 24.5435 11.4455 24.3335 11.1708 24.0843C11.0671 23.9892 11.0811 23.8548 11.2017 23.7288C11.2297 23.698 11.2493 23.6504 11.2549 23.6084C11.2745 23.474 11.2857 23.3369 11.2998 23.1997C11.3194 23.1969 11.339 23.1941 11.3558 23.1913C11.3754 23.2501 11.3894 23.3145 11.4175 23.3705C11.4483 23.4293 11.4932 23.5272 11.5352 23.53C11.6165 23.5328 11.723 23.5076 11.723 23.3761C11.723 23.3257 11.7566 23.2753 11.8099 23.2165C11.8379 23.2781 11.8631 23.3397 11.8912 23.4069C12.0089 23.3173 12.135 23.2389 12.2359 23.1353C12.2836 23.0849 12.2808 22.9869 12.3004 22.9113C12.3312 22.7994 12.334 22.6734 12.4742 22.5782C12.4882 22.777 12.4994 22.9533 12.5134 23.1269C12.533 23.1325 12.5499 23.1381 12.5695 23.1409C12.6115 23.0625 12.6508 22.9813 12.7068 22.8749C12.7433 22.9617 12.7685 23.0233 12.7965 23.0877C12.847 23.0877 12.8946 23.0877 12.9423 23.0877C12.9731 22.9981 13.0011 22.9141 13.0432 22.7854C13.0824 22.8637 13.0936 22.9113 13.1217 22.9421C13.1525 22.9757 13.2001 23.0149 13.2422 23.0149C13.3123 23.0177 13.3655 22.9813 13.3627 22.8945C13.3599 22.8385 13.3739 22.7798 13.3795 22.7014C13.458 22.749 13.5113 22.7826 13.5673 22.819C13.5982 22.763 13.629 22.7098 13.6654 22.6454C13.9177 22.777 13.7663 22.5138 13.8112 22.4606C13.9009 22.4662 13.9709 22.4718 14.0382 22.4746C14.0102 22.4158 14.0158 22.3402 14.0214 22.2646ZM19.0246 16.548C19.0134 16.5452 19.0022 16.5424 18.9938 16.5368C18.8312 16.6515 18.6687 16.7691 18.4893 16.8951C18.5285 17.0071 18.5594 17.1303 18.6182 17.2395C18.6827 17.3626 18.7724 17.4718 18.7247 17.6258C18.7163 17.6566 18.7359 17.6986 18.7443 17.735C18.8368 17.3346 18.9293 16.9427 19.0246 16.548Z" fill="#20113D"/>
</svg>
