<svg width="35" height="51" viewBox="0 0 35 51" fill="none" xmlns="http://www.w3.org/2000/svg">
<path d="M17.3644 3.46875C9.5657 3.46875 3.25586 9.45667 3.25586 16.8355C3.25586 24.2143 17.3644 45.3606 17.3644 45.3606C17.3644 45.3606 31.4729 24.2143 31.4729 16.8355C31.4729 9.45667 25.1631 3.46875 17.3644 3.46875Z" fill="#F58021"/>
<path fill-rule="evenodd" clip-rule="evenodd" d="M20.3204 15.9132C20.7597 15.3812 21.0116 14.7935 21.0224 14.1113C21.0239 14.0371 21.0768 13.9639 21.1296 13.891C21.1546 13.8564 21.1796 13.8219 21.199 13.7874C21.3016 13.6026 21.4108 13.4202 21.5202 13.2377L21.5202 13.2377L21.5202 13.2377L21.5202 13.2377C21.7687 12.8228 22.0176 12.4074 22.1895 11.9619C22.5642 10.9902 22.3381 10.3938 21.5241 9.77391C21.5758 9.12394 21.8342 8.67776 22.5535 8.54906C22.8939 8.48861 23.2241 8.37142 23.5847 8.24345C23.7488 8.18522 23.9192 8.12477 24.0996 8.06641C23.5591 9.69025 23.0466 11.2283 22.5104 12.8371L22.636 12.8104L22.6372 12.8102C23.3345 12.662 23.9726 12.5265 24.6164 12.3909C24.7801 12.6805 24.6531 12.8328 24.4054 12.9723L24.2576 13.0549C23.6238 13.4091 22.9883 13.7643 22.3769 14.1564C22.1723 14.2872 21.9957 14.5232 21.9031 14.7484C21.751 15.1219 21.6274 15.507 21.5005 15.9021L21.5005 15.9021L21.5005 15.9021L21.5005 15.9022C21.4459 16.0721 21.3908 16.2438 21.3325 16.4173L20.3204 15.9132ZM22.1918 15.8283C22.8228 16.2959 23.0877 17.302 22.7991 18.0699C22.5472 18.7371 21.9636 19.0545 21.0936 18.9559C20.8434 18.927 20.5972 18.8717 20.3511 18.8163L20.3511 18.8163L20.3511 18.8163L20.3511 18.8163C20.1948 18.7812 20.0385 18.7461 19.8812 18.7177C18.9854 18.5526 18.2188 18.677 17.6977 19.076C17.8182 19.091 17.9216 19.1039 18.0788 19.1232C17.9442 19.3756 17.8757 19.6491 17.8094 19.9142C17.7133 20.298 17.6217 20.6641 17.3402 20.9229C17.5006 21.0347 17.6719 21.1446 17.8471 21.2571C18.2505 21.5161 18.6746 21.7883 19.0349 22.1263C19.8726 22.9114 19.8209 24.0848 18.9983 24.9536L18.2572 24.6934L18.2568 24.6933L18.2567 24.6933C17.3167 24.3635 16.3727 24.0323 15.4301 23.6944C15.2738 23.6381 15.1247 23.5612 14.9757 23.4844C14.9092 23.4501 14.8426 23.4158 14.7755 23.3834C13.8 22.9179 13.2939 22.137 13.2078 21.0709C13.0979 19.7217 13.3628 18.4217 13.6751 17.1347C13.6963 17.1306 13.7139 17.1253 13.7285 17.1208L13.7285 17.1208L13.7285 17.1208C13.7524 17.1136 13.7686 17.1087 13.7806 17.1154C15.8952 18.2008 17.8419 17.7095 19.6831 16.4525C19.9953 16.2401 20.2322 16.2294 20.5315 16.386C20.7081 16.4783 20.8869 16.5662 21.0678 16.6477C21.5867 16.8815 21.8215 16.7893 22.0303 16.2659C22.065 16.1782 22.0972 16.0888 22.1301 15.9977L22.1301 15.9976C22.1502 15.9418 22.1706 15.8854 22.1918 15.8283ZM20.0199 20.3991L20.0205 20.3972C20.1587 19.98 20.3026 19.5457 20.4563 19.0809C20.2958 19.0758 20.1403 19.0703 19.9885 19.0649L19.9885 19.0649C19.5068 19.0478 19.0626 19.0321 18.6173 19.0337C18.5225 19.0337 18.3782 19.1496 18.3438 19.244C18.2038 19.6352 18.078 20.0312 17.9567 20.4128L17.9567 20.4128C17.9137 20.548 17.8713 20.6813 17.8291 20.812L18.254 21.1211L18.2542 21.1213C18.6662 21.4211 19.0672 21.7129 19.4851 22.0154C19.6599 21.4856 19.8348 20.9578 20.0197 20.3997L20.0199 20.3991ZM15.7166 26.7861C15.9879 25.9838 16.2399 25.2394 16.5069 24.4522C17.1723 24.6603 17.8011 24.8576 18.473 25.07C18.4366 25.1818 18.4011 25.2919 18.366 25.4006L18.366 25.4006C18.2329 25.8127 18.1067 26.2038 17.9669 26.5909C17.9368 26.6724 17.814 26.7753 17.7322 26.7775C17.236 26.789 16.7374 26.7879 16.2101 26.7868L16.2076 26.7868C16.0468 26.7864 15.8834 26.7861 15.7166 26.7861ZM12.4885 12.7338C12.5761 12.8781 12.6671 13.0176 12.7569 13.1553C12.9541 13.4576 13.1455 13.7512 13.2831 14.0681C13.5373 14.658 13.6471 15.323 13.1475 15.8292C12.635 16.3462 11.9976 16.1166 11.429 15.8678C11.0953 15.722 10.7679 15.5225 10.4923 15.2843C9.4436 14.3727 9.54696 12.9805 10.712 12.2168C11.4786 11.7149 12.3206 11.6377 13.169 11.9401C13.5372 12.071 13.744 11.9745 14.0325 11.7578C14.5171 11.3953 15.0382 11.0499 15.5938 10.8161C16.6102 10.3871 17.6029 10.5179 18.5073 11.1743C18.7076 11.3202 18.91 11.4618 19.1684 11.539C18.9919 11.3266 18.8153 11.1164 18.615 10.8783C19.2912 10.2648 20.0341 9.90442 20.9493 10.0567C21.5975 10.164 21.9464 10.5973 21.9313 11.2494C21.9141 12.0367 21.5178 12.6673 21.085 13.298C20.2473 12.4743 20.004 11.5068 20.426 10.7796C20.0169 10.8654 19.8059 11.1164 19.8941 11.5647C19.9803 12.0045 20.1224 12.4464 20.3162 12.8497C20.8632 13.993 20.6931 15.1192 19.7133 15.9236C18.3846 17.0176 16.8449 17.3243 15.1782 16.9039C14.8573 16.8224 14.5515 16.6358 14.2737 16.4449C13.9442 16.2196 13.7914 15.9257 13.843 15.4688C13.8947 14.9905 13.8258 14.4756 13.7031 14.0037C13.5394 13.3859 13.1001 12.9676 12.4885 12.7338ZM17.5578 16.0047C17.3321 15.6668 17.1977 15.3062 17.1729 14.927C17.1594 14.7231 17.1776 14.5138 17.2304 14.2997C17.3639 13.7635 17.7709 13.6391 18.1843 14.0123C18.6292 14.4148 18.815 14.9387 18.8533 15.5274C18.8555 15.5605 18.8572 15.5937 18.8585 15.6271C18.855 15.668 18.8523 15.71 18.8495 15.7525C18.8283 16.0797 18.8052 16.4356 18.4278 16.5495C18.0078 16.6778 17.774 16.328 17.5702 16.0232L17.5578 16.0047ZM16.6532 14.4842C16.5895 14.4346 16.5324 14.3822 16.4816 14.3354C16.3829 14.2449 16.3074 14.1755 16.2506 14.1882C16.1633 14.2077 16.0919 14.2941 16.02 14.381C15.989 14.4186 15.9579 14.4562 15.9254 14.4885C15.957 14.5174 15.9881 14.5526 16.0191 14.5877L16.0192 14.5877C16.0895 14.6674 16.16 14.7471 16.2376 14.7545C16.3062 14.7616 16.3822 14.699 16.4816 14.6172C16.5321 14.5756 16.5886 14.5291 16.6532 14.4842ZM19.4742 13.6476C19.3978 13.6005 19.3339 13.5551 19.2785 13.5157C19.17 13.4386 19.094 13.3845 19.0199 13.3859C18.9251 13.3881 18.7507 13.5597 18.7636 13.624C18.7743 13.6752 18.8062 13.7345 18.8478 13.7861C18.899 13.8507 18.9653 13.9031 19.0242 13.9127C19.0891 13.9239 19.1651 13.8679 19.2734 13.7882C19.3304 13.7462 19.3963 13.6976 19.4743 13.6488L19.4733 13.6482L19.4742 13.6476Z" fill="#20113D"/>
</svg>
