<svg width="35" height="51" viewBox="0 0 35 51" fill="none" xmlns="http://www.w3.org/2000/svg">
<path d="M17.3644 3.46875C9.5657 3.46875 3.25586 9.45667 3.25586 16.8355C3.25586 24.2143 17.3644 45.3606 17.3644 45.3606C17.3644 45.3606 31.4729 24.2143 31.4729 16.8355C31.4729 9.45667 25.1631 3.46875 17.3644 3.46875Z" fill="#F58021"/>
<path d="M14.0076 24.2975C15.1491 24.0296 15.8709 23.2778 16.602 22.4789C16.503 22.4508 16.4275 22.4273 16.352 22.4085C15.3472 22.1547 14.4227 21.7224 13.5736 21.135C13.05 20.7732 12.6207 20.3174 12.2952 19.7629C12.2528 19.6924 12.2197 19.6173 12.1867 19.5421C12.1773 19.5233 12.1773 19.4998 12.1678 19.434C12.4886 19.5327 12.7905 19.6267 13.0877 19.7206C13.0971 19.7112 13.1019 19.7065 13.1113 19.6971C13.0783 19.6689 13.05 19.6408 13.0169 19.6173C12.6301 19.3682 12.2528 19.1098 11.8612 18.8748C11.4131 18.6023 10.9414 18.3673 10.5074 18.0854C9.92718 17.7048 9.51678 17.1691 9.2196 16.5488C9.20544 16.5206 9.20073 16.4924 9.19601 16.4642C9.19129 16.4501 9.19601 16.4313 9.19601 16.3891C9.67716 16.5958 10.1253 16.8871 10.6819 16.8355C9.58754 16.2105 8.90826 15.3365 8.95543 14.0208C9.42244 14.533 9.88 15.0404 10.3376 15.5479C10.347 15.5385 10.3612 15.5244 10.3706 15.515C10.1819 15.1485 9.9602 14.7914 9.81868 14.4061C9.67717 14.0208 9.58282 13.6026 9.53565 13.1937C9.48848 12.7849 9.52621 12.3667 9.52621 11.9532C9.5498 11.9485 9.57339 11.9485 9.59226 11.9438C9.81396 12.4419 10.0357 12.94 10.2574 13.4428C10.281 13.4428 10.3046 13.4381 10.3281 13.4381C10.3187 12.5312 10.4178 11.6431 10.8376 10.8301C10.8565 10.8301 10.8753 10.8301 10.8942 10.8348C10.8942 11.0369 10.9036 11.2343 10.8942 11.4363C10.8423 12.4278 11.2244 13.2736 11.7952 14.0443C12.1773 14.5564 12.649 14.9841 13.1585 15.3694C13.8283 15.8769 14.5783 16.2481 15.3284 16.6146C16.0265 16.9529 16.6398 17.4134 17.2153 17.9303C17.5643 18.2452 17.9276 18.5412 18.2861 18.8466C18.3851 18.9312 18.4842 19.0252 18.5974 19.1286C18.7814 18.7057 18.9512 18.3109 19.121 17.9115C19.5314 16.9623 20.1494 16.1635 20.9135 15.4727C21.5221 14.923 22.14 14.392 22.7485 13.8469C23.574 13.1045 24.0882 12.1835 24.2533 11.0839C24.3146 10.6939 24.2863 10.2851 24.3005 9.89035C24.3005 9.82456 24.3005 9.75408 24.3241 9.68359C24.6213 10.3602 24.7062 11.0745 24.7769 11.8169C25.0694 11.2249 25.3571 10.6328 25.6496 10.036C25.6732 10.0407 25.6968 10.0454 25.7157 10.0501C25.6826 10.6563 25.6779 11.2625 25.6072 11.8639C25.5364 12.4607 25.3996 13.0481 25.2911 13.6166C25.4373 13.3911 25.6072 13.1327 25.8053 12.8366C25.8194 13.4146 25.8006 13.9362 25.5553 14.4296C25.3147 14.9183 24.9279 15.2848 24.508 15.6466C24.7392 15.6936 24.9232 15.6137 25.1024 15.5244C25.277 15.4399 25.4373 15.3365 25.6402 15.219C25.6213 15.3083 25.6119 15.3694 25.593 15.4258C25.3383 16.1118 24.942 16.7039 24.3477 17.1409C23.9844 17.4134 23.5976 17.6531 23.2391 17.9256C23.0127 18.0995 22.8523 18.2076 22.8429 18.4472C22.9938 18.3955 23.1401 18.3485 23.3146 18.2921C23.0221 19.2883 22.2485 19.8992 21.5739 20.6134C21.64 20.6416 21.6919 20.6604 21.7438 20.6839C22.0787 20.8202 22.3617 21.027 22.5551 21.3371C22.7014 21.5673 22.7344 21.8117 22.6731 22.0795C22.6542 22.1594 22.7014 22.2675 22.7532 22.338C22.9136 22.5823 22.9372 22.8314 22.7957 23.0851C22.6589 23.3342 22.4325 23.4563 22.1353 23.4751C22.3712 23.0522 22.3617 22.9582 22.041 22.7327C22.0079 22.9066 21.9749 23.071 21.9419 23.2449C21.7296 23.071 21.5456 22.8643 21.3145 22.7421C21.0786 22.6199 20.8003 22.587 20.5173 22.5071C20.5314 22.5682 20.5314 22.6058 20.5456 22.6387C20.7532 23.1603 20.9466 23.6913 21.1824 24.2035C21.2673 24.3914 21.4372 24.5512 21.5928 24.6922C21.7391 24.8237 21.8428 24.7768 21.8994 24.5841C21.9372 24.4478 21.9513 24.3069 21.9749 24.1706C21.9985 24.0484 22.0645 23.9967 22.1494 24.0343C22.1683 24.1471 22.1919 24.2364 22.1966 24.3256C22.2013 24.4196 22.2013 24.5183 22.1825 24.6076C22.1636 24.6875 22.1117 24.7627 22.074 24.8378C22.0834 24.8519 22.0976 24.8613 22.107 24.8754C22.2344 24.7908 22.3664 24.7063 22.4891 24.617C22.5504 24.57 22.5976 24.5089 22.6542 24.4572C22.8759 24.2552 22.9844 24.2693 23.1401 24.5371C23.0552 24.5277 22.9797 24.5136 22.8995 24.5042C22.8853 24.8519 22.5174 24.8472 22.3664 25.0822C22.5457 25.0728 22.7061 25.0587 22.8665 25.0587C23.1118 25.0587 23.2108 25.1715 23.1636 25.4205C23.0929 25.2513 22.975 25.2748 22.8617 25.3218C22.6212 25.4205 22.3759 25.3876 22.1306 25.3547C21.8617 25.3171 21.6211 25.3547 21.39 25.5145C21.239 25.6226 21.0834 25.7259 20.8664 25.679C20.8192 25.6696 20.7343 25.8246 20.673 25.8998C20.5739 25.7682 20.5786 25.6414 20.7437 25.538C20.8475 25.4722 20.9701 25.4393 21.0834 25.3923C21.1541 25.3641 21.2296 25.3406 21.2909 25.2936C21.4277 25.1903 21.4277 25.1245 21.2956 25.0211C20.9701 24.758 20.6447 24.4995 20.3192 24.2364C20.2909 24.2129 20.2578 24.1941 20.2295 24.1894C19.8003 24.1518 19.5644 23.8698 19.3852 23.5268C19.3474 23.4516 19.3191 23.3483 19.2153 23.414C19.1587 23.4516 19.0974 23.5644 19.1163 23.6208C19.2153 23.992 19.4323 24.2834 19.7673 24.4713C19.9135 24.4478 19.9418 24.0907 20.1494 24.3069C20.1305 24.3867 20.1163 24.4337 20.1069 24.4807C20.1635 24.4901 20.2248 24.5136 20.2814 24.5089C20.3758 24.5089 20.4701 24.4901 20.5645 24.4807C20.5692 24.4995 20.5739 24.523 20.5786 24.5418C20.5126 24.5747 20.4465 24.6076 20.3569 24.6546C20.8098 24.6781 20.8098 24.6781 20.8286 24.9177C20.6824 24.7768 20.5409 24.8895 20.3994 24.9083C20.0786 24.9459 19.8569 25.0963 19.739 25.4111C19.7012 25.5098 19.5974 25.5803 19.5031 25.6884C19.5078 25.7025 19.522 25.7494 19.5314 25.8011C19.3286 25.7306 19.2814 25.632 19.3805 25.4534C19.4559 25.3171 19.555 25.1903 19.6446 25.0587C19.7248 24.9412 19.7248 24.8425 19.5739 24.7768C19.3286 24.6687 19.121 24.4948 18.8333 24.4666C18.7248 24.4572 18.6304 24.3116 18.5219 24.2176C18.47 24.3022 18.3993 24.4008 18.3427 24.5136C18.1776 24.8472 17.8992 25.0493 17.5502 25.1433C16.4511 25.444 15.4133 25.2748 14.4463 24.6781C14.2859 24.5841 14.1679 24.4384 14.0076 24.2975Z" fill="#20113D"/>
</svg>
