<svg width="35" height="51" viewBox="0 0 35 51" fill="none" xmlns="http://www.w3.org/2000/svg">
<path d="M17.3644 3.46875C9.5657 3.46875 3.25586 9.45667 3.25586 16.8355C3.25586 24.2143 17.3644 45.3606 17.3644 45.3606C17.3644 45.3606 31.4729 24.2143 31.4729 16.8355C31.4729 9.45667 25.1631 3.46875 17.3644 3.46875Z" fill="#F58021"/>
<path fill-rule="evenodd" clip-rule="evenodd" d="M21.2891 15.4769L21.2895 15.4776C21.4656 15.838 21.6416 16.1983 21.8241 16.5746C21.7779 16.6108 21.7311 16.6483 21.6836 16.6863C21.5763 16.7721 21.4655 16.8607 21.35 16.9448C21.2217 17.0377 21.0944 17.1319 20.9672 17.226L20.9672 17.226L20.9672 17.2261C20.653 17.4586 20.3393 17.6909 20.011 17.9021C18.8289 18.6647 17.5251 18.9743 16.122 18.853C15.7792 18.8243 15.4173 18.7062 15.2731 18.6073C15.3563 18.0338 15.4362 17.4762 15.5162 16.9187L15.5163 16.918L15.5166 16.916C15.5069 16.9129 15.4965 16.9105 15.4861 16.9081L15.4861 16.9081C15.4757 16.9057 15.4653 16.9033 15.4557 16.9001C15.4245 16.9632 15.3935 17.0263 15.3626 17.0894L15.3626 17.0894C15.2856 17.2463 15.2089 17.4027 15.1289 17.5574C14.9212 17.9663 14.7819 18.4006 14.6423 18.8358C14.6032 18.9576 14.5641 19.0794 14.5235 19.2008C14.2672 19.9571 13.8091 20.5379 13.0307 20.8219C12.9923 20.8379 12.9602 20.9017 12.9442 20.9495C12.9128 21.0488 12.8849 21.1492 12.8571 21.2495L12.857 21.2495C12.8195 21.3847 12.782 21.5197 12.736 21.6516C12.5598 22.1622 12.2298 22.5578 11.7846 22.861C11.5859 22.995 11.3873 23.1322 11.1983 23.279C11.035 23.4035 11.0414 23.4577 11.2015 23.5822C11.2328 23.6065 11.2643 23.6305 11.2957 23.6544L11.2958 23.6545L11.2958 23.6545C11.3962 23.7309 11.4957 23.8067 11.586 23.8917C11.7333 24.0321 11.8006 24.2108 11.7461 24.415C11.7333 24.4629 11.6596 24.5267 11.6148 24.5267C10.5641 24.5331 9.51013 24.5331 8.4594 24.5299C8.42096 24.5299 8.3665 24.5172 8.34408 24.4916C8.31191 24.4526 8.27897 24.4138 8.24594 24.3748L8.24588 24.3747C8.12763 24.2352 8.00815 24.0942 7.91802 23.9396C7.86036 23.8407 7.85395 23.6747 7.89239 23.563C8.26399 22.4366 8.7413 21.3676 9.64147 20.5475C9.67991 20.5124 9.70233 20.4358 9.70554 20.3815C9.72796 19.571 9.82406 18.7669 10.0323 17.9851C10.2117 17.3085 10.4039 16.632 10.7434 16.0098C11.3681 14.8738 12.1754 13.926 13.4151 13.4155C14.4819 12.9783 15.523 13.0453 16.5385 13.5622C16.6779 13.6338 16.8039 13.732 16.9268 13.8276L16.9268 13.8276L16.9268 13.8277C16.9846 13.8727 17.0417 13.9171 17.0991 13.9579C16.9837 13.709 16.7819 13.5048 16.5641 13.3165C16.7692 13.2388 16.9751 13.1636 17.1807 13.0885C18.0889 12.7566 18.99 12.4273 19.7867 11.8965C19.8218 12.0181 19.8563 12.141 19.8909 12.2645L19.8909 12.2645C19.9354 12.423 19.9802 12.5826 20.027 12.7421C20.0398 12.7804 20.0654 12.8155 20.0975 12.8474C20.0334 12.4518 20.0334 12.0561 20.184 11.6923C20.3249 11.3476 20.4947 10.9998 20.7125 10.6999C21.2475 9.9723 21.8914 9.34047 22.609 8.78841L22.609 8.78841L22.609 8.7884C22.6378 8.76607 22.6666 8.74373 22.6987 8.7214C22.7501 8.68869 22.8011 8.65384 22.8522 8.61891L22.8522 8.61891C23.1001 8.4494 23.3506 8.27816 23.6693 8.34166C24.1947 8.44378 24.6335 8.71821 24.9346 9.16815C25.0211 9.29579 25.1204 9.38514 25.2582 9.43301C25.617 9.55746 25.8861 9.77126 26.0591 10.1191C26.1218 10.2462 26.2122 10.3587 26.3028 10.4714C26.3464 10.5257 26.39 10.58 26.4307 10.636C26.5139 10.7509 26.53 10.8466 26.4371 10.9807C26.3602 11.0924 26.3217 11.2423 26.2993 11.3796C26.2705 11.5423 26.3345 11.6476 26.5075 11.737C26.9592 11.9667 27.2219 12.4805 26.972 13.0006C26.9304 13.0868 26.8919 13.1729 26.8567 13.2623C26.6901 13.6899 26.373 13.8399 25.9373 13.6899L25.9153 13.6827C25.8931 13.6755 25.8709 13.6683 25.854 13.6612C25.7739 13.7729 25.6939 13.8813 25.6074 13.9962C25.5951 13.9813 25.5845 13.9704 25.5765 13.962C25.5656 13.9508 25.5593 13.9443 25.5593 13.9388C25.5849 13.6644 25.4184 13.5016 25.2326 13.3357C24.3644 12.5571 23.3009 12.6975 22.5737 13.1474C22.6555 13.1309 22.7364 13.1129 22.8172 13.0949L22.8172 13.0949C22.9706 13.0608 23.1232 13.0268 23.2785 13.0038C24.2011 12.8762 25.0019 13.2878 25.428 14.1111C25.7227 14.6791 25.9309 15.2726 25.8797 15.93L25.8791 15.9377C25.8697 16.0665 25.8594 16.2067 25.806 16.3193C25.6202 16.715 25.6778 17.1139 25.7804 17.5064L25.7993 17.5796C25.8954 17.9525 25.9942 18.3353 26.1776 18.6647C26.8855 19.9316 26.9432 21.3006 26.8919 22.6887C26.8695 23.2854 26.6773 23.8151 26.184 24.2012C25.9085 24.4182 25.6138 24.5682 25.2454 24.5395C25.0756 24.5267 24.9026 24.5235 24.7328 24.5395C24.4125 24.5746 24.1915 24.415 24.0025 24.1917C23.7974 23.9523 23.7045 23.6747 23.7622 23.362C23.7782 23.279 23.8391 23.1769 23.9095 23.1386C23.9981 23.0918 24.0627 23.1568 24.1282 23.2226C24.1352 23.2297 24.1422 23.2367 24.1493 23.2437C24.1526 23.247 24.156 23.2503 24.1594 23.2535C24.2582 23.3487 24.3886 23.4186 24.5128 23.4853L24.515 23.4864C24.6239 23.5439 24.6816 23.496 24.6944 23.3748C24.7072 23.2312 24.6624 23.1099 24.5534 23.0174C23.9416 22.4972 23.5572 21.8175 23.2112 21.1123C22.9453 20.5666 22.7755 19.9954 22.7147 19.3891C22.6698 18.9328 22.7499 18.4892 22.8364 18.0457C22.878 17.8446 22.9197 17.6404 22.9325 17.433C22.9613 17.0214 22.8172 16.6735 22.4616 16.4533C22.0227 16.1821 21.6319 15.8566 21.318 15.4482C21.3212 15.4577 21.3052 15.4673 21.2891 15.4769ZM22.2279 16.9257C22.4137 17.0757 22.4809 17.248 22.4425 17.4618C22.4188 17.6001 22.3927 17.738 22.3666 17.8759C22.3186 18.1295 22.2707 18.3831 22.2375 18.6393C22.1285 19.5041 22.3304 20.321 22.6667 21.1092C22.7276 21.2528 22.734 21.3677 22.6699 21.5113C22.3784 22.1687 22.0613 22.8101 21.6512 23.4068C21.1195 24.179 20.3763 24.5364 19.4473 24.5364C19.3925 24.5364 19.338 24.5373 19.2837 24.5382L19.2833 24.5382C19.1565 24.5402 19.0304 24.5422 18.9027 24.5332C18.8386 24.5301 18.7585 24.4886 18.7233 24.4375C18.4254 24.0354 18.4766 23.2026 18.8194 22.8356C18.8578 22.7941 18.9443 22.7558 18.9924 22.7718C19.0289 22.7848 19.0548 22.8401 19.0787 22.8912L19.0788 22.8912C19.0842 22.9029 19.0896 22.9143 19.0949 22.9249C19.1081 22.9513 19.1177 22.9803 19.1273 23.0092C19.1432 23.0572 19.159 23.1048 19.191 23.1387C19.2487 23.2058 19.348 23.3015 19.412 23.2887C19.4793 23.276 19.5466 23.1579 19.5754 23.0749C19.6042 22.9952 19.5946 22.8962 19.5786 22.8133C19.5554 22.6964 19.5263 22.5804 19.4972 22.4647L19.4972 22.4647L19.4972 22.4647C19.4461 22.2611 19.3952 22.0582 19.3768 21.8528C19.2903 20.9305 19.3736 20.0243 19.774 19.1723C19.8669 18.9776 19.9726 18.7798 20.1104 18.6138C20.2545 18.4351 20.4339 18.2788 20.6165 18.1384C20.8039 17.9917 20.997 17.853 21.1903 17.7141L21.1904 17.7141C21.3209 17.6203 21.4516 17.5264 21.5808 17.4299C21.7248 17.3207 21.8674 17.2086 22.0124 17.0946C22.0835 17.0388 22.1551 16.9824 22.2279 16.9257ZM15.343 19.1947C15.2607 19.1705 15.178 19.1461 15.0938 19.1214C15.0653 19.183 15.0376 19.2455 15.0099 19.3082C14.9628 19.4144 14.9155 19.5213 14.8632 19.6256C14.546 20.2638 14.1296 20.8191 13.4857 21.1765C13.4344 21.2052 13.3992 21.2786 13.38 21.3392C13.2262 21.853 13.034 22.3444 12.6784 22.7593C12.6528 22.7912 12.6304 22.8486 12.64 22.8837C12.7521 23.2379 12.8674 23.5921 12.9924 23.94C13.0148 24.0006 13.0821 24.058 13.1429 24.0931C13.3704 24.2208 13.5978 24.3452 13.8317 24.4633C13.9085 24.5016 13.9982 24.5367 14.0815 24.5367C14.7589 24.5415 15.4346 24.5409 16.1111 24.5403C16.3367 24.5401 16.5625 24.5399 16.7884 24.5399H16.987C16.9655 24.4959 16.9479 24.453 16.9313 24.4124C16.8985 24.3322 16.8694 24.261 16.8205 24.208C16.6987 24.0772 16.561 23.9527 16.4136 23.8538C16.2752 23.7611 16.125 23.6841 15.9753 23.6074C15.9344 23.5864 15.8936 23.5655 15.853 23.5443C15.6928 23.4581 15.6224 23.3305 15.6352 23.1518C15.6373 23.1092 15.6423 23.0667 15.6473 23.0241C15.6498 23.0028 15.6523 22.9816 15.6544 22.9603C15.6642 22.8637 15.6764 22.7668 15.6886 22.6697C15.7163 22.4495 15.7441 22.2287 15.7441 22.0094C15.7441 21.553 15.5391 21.1605 15.2476 20.8159C15.7537 20.4394 15.853 19.9064 15.9011 19.3576C15.7086 19.3025 15.5267 19.2489 15.343 19.1947Z" fill="#20113D"/>
</svg>
