<svg width="35" height="51" viewBox="0 0 35 51" fill="none" xmlns="http://www.w3.org/2000/svg">
<path d="M17.3644 3.46875C9.5657 3.46875 3.25586 9.45667 3.25586 16.8355C3.25586 24.2143 17.3644 45.3606 17.3644 45.3606C17.3644 45.3606 31.4729 24.2143 31.4729 16.8355C31.4729 9.45667 25.1631 3.46875 17.3644 3.46875Z" fill="#F58021"/>
<path fill-rule="evenodd" clip-rule="evenodd" d="M17.1308 8.83482C17.4327 8.81775 17.7207 8.88035 18.017 8.98563C18.0072 9.01384 17.9982 9.04157 17.9893 9.06881L17.9892 9.06882L17.9892 9.06882L17.9892 9.06883L17.9892 9.06886C17.9676 9.13502 17.9469 9.19833 17.9192 9.25878C17.8339 9.44516 17.7472 9.63153 17.6606 9.8179C17.5739 10.0043 17.4872 10.1906 17.402 10.377L17.4017 10.3775C17.3557 10.4784 17.3333 10.5273 17.2955 10.5478C17.2599 10.5672 17.2105 10.5613 17.1145 10.5498L17.0972 10.5477C16.9994 10.5364 16.9407 10.4937 16.9267 10.3969C16.9208 10.3562 16.9133 10.3153 16.9058 10.2743L16.9057 10.2742L16.9057 10.2742V10.2742L16.9057 10.2741C16.8849 10.1606 16.8641 10.0468 16.8764 9.93598C16.9072 9.66225 16.9572 9.39028 17.0071 9.11869L17.0072 9.11859L17.0072 9.1185C17.0206 9.04574 17.0339 8.973 17.0469 8.90027C17.0525 8.87466 17.1 8.83767 17.1308 8.83482ZM15.0619 9.47754C15.1242 9.57127 15.1857 9.66431 15.2467 9.7567C15.4321 10.0373 15.6135 10.3118 15.8028 10.5815C15.8727 10.684 15.9677 10.775 16.1215 10.7124C16.3563 10.6214 16.415 10.5588 16.3451 10.3084C16.2615 10.004 16.3134 9.71137 16.3655 9.41768L16.3815 9.32673C16.4011 9.21861 16.3983 9.0991 16.3731 8.99098C16.3619 8.93976 16.2613 8.86293 16.2221 8.87147C15.7944 8.97959 15.4198 9.193 15.0619 9.47754ZM14.1481 11.9268C14.344 12.0723 14.5404 12.2183 14.7404 12.3661C14.6733 12.6933 14.4999 12.8782 14.1617 12.9152C13.6948 12.9636 13.3006 12.7701 12.9455 12.4799C12.926 12.4628 12.9176 12.4002 12.9316 12.3717L12.9937 12.2304L12.9937 12.2303C13.0844 12.0236 13.1753 11.8164 13.2754 11.6149C13.3023 11.5582 13.3464 11.5109 13.3885 11.4656L13.3885 11.4656C13.4077 11.445 13.4265 11.4248 13.4432 11.4043C13.6806 11.5794 13.914 11.7528 14.1481 11.9268L14.1481 11.9268ZM14.2738 13.6666C13.7454 13.5329 13.2338 13.402 12.6831 13.2597C12.6713 13.3257 12.6581 13.3939 12.6446 13.4635C12.6198 13.5919 12.594 13.7254 12.574 13.8601C12.5549 13.9876 12.5422 14.1162 12.5294 14.2473L12.5293 14.2473C12.5215 14.3268 12.5136 14.4073 12.5041 14.4889C12.9458 14.7137 13.3987 14.7763 13.8461 14.5145C14.1648 14.3324 14.2906 14.0308 14.2738 13.6666ZM12.5236 15.1737C12.4397 15.6233 12.5068 16.0472 12.6634 16.4598C12.6774 16.4939 12.7137 16.5309 12.7473 16.5423C13.407 16.7671 14.1507 16.3175 14.2541 15.7115C14.2681 15.629 14.2737 15.5407 14.2681 15.4582C14.2346 15.0969 14.1675 15.0457 13.8208 15.0969L13.7209 15.1116C13.483 15.1469 13.2448 15.1822 13.0045 15.2021C12.8989 15.21 12.7907 15.199 12.6789 15.1877C12.6279 15.1825 12.5762 15.1773 12.5236 15.1737ZM14.4023 17.8427C14.6259 17.359 14.556 17.0119 14.1786 16.7103C13.7872 17.0119 13.3343 17.1228 12.8479 17.1399C12.8143 17.1399 12.7584 17.1883 12.75 17.2253C12.6745 17.5866 12.7808 17.9082 12.9793 18.2041C12.9951 18.2275 13.0255 18.2395 13.0599 18.253C13.0799 18.2609 13.1012 18.2694 13.1218 18.2809L13.0933 18.3006C13.0703 18.3166 13.0479 18.3322 13.024 18.3464C12.5152 18.6565 12.1042 19.0634 11.861 19.6182C11.5423 20.3495 11.4277 21.1035 11.7156 21.8803C11.7674 22.02 11.8151 22.1621 11.8627 22.3041C11.9024 22.4224 11.942 22.5407 11.984 22.6571C12.1238 23.0498 12.135 23.4538 12.0231 23.8465C11.6932 24.9932 12.0036 26.046 12.4425 27.0845C12.481 27.1713 12.5439 27.2498 12.6045 27.3255L12.6045 27.3256L12.6045 27.3256L12.6074 27.3292C12.6913 27.4345 12.8003 27.4687 12.9317 27.4231C13.0631 27.3748 13.1582 27.2866 13.1526 27.1471C13.147 26.9679 13.1246 26.7886 13.0827 26.615C13.0506 26.4771 13.0114 26.3405 12.9723 26.2039L12.9723 26.2039L12.9723 26.2038C12.9331 26.0673 12.894 25.9307 12.8618 25.7927C12.7724 25.4029 12.887 25.0814 13.2001 24.8395C13.2135 24.8295 13.2266 24.8192 13.2396 24.809C13.2673 24.7873 13.2946 24.7659 13.3231 24.7485C13.7956 24.4725 14.0863 24.04 14.3268 23.5591C14.3939 23.4224 14.4808 23.2951 14.5676 23.168L14.5676 23.168C14.6073 23.1099 14.6469 23.0518 14.6846 22.9929L14.7182 23.0099C14.7349 23.0896 14.7521 23.1693 14.7692 23.2489C14.8206 23.488 14.8719 23.727 14.9139 23.966C15.1012 25.0046 15.705 25.787 16.404 26.5155C16.4729 26.5884 16.5636 26.642 16.6492 26.6926L16.6528 26.6947C16.7702 26.7658 16.8904 26.7658 17.0022 26.672C17.1169 26.5752 17.1588 26.4529 17.1085 26.3163C17.0581 26.1854 16.9938 26.0573 16.9156 25.9407C16.8344 25.8213 16.7467 25.7069 16.6592 25.5926C16.5838 25.4943 16.5086 25.3961 16.4375 25.2948C16.1048 24.8225 16.0908 24.4895 16.4179 24.0172C16.6779 23.6388 16.8569 23.2262 17.0162 22.7795C17.0607 22.8005 17.1044 22.82 17.1473 22.8391L17.1473 22.8391L17.1473 22.8391C17.2201 22.8716 17.2904 22.903 17.3573 22.9388C18.045 23.3201 18.4672 23.9205 18.7188 24.6574C18.821 24.9514 18.909 25.2507 18.997 25.5497L18.997 25.5497C19.0198 25.627 19.0425 25.7042 19.0654 25.7813C19.1465 26.0545 19.2779 26.2964 19.4568 26.5126L19.6614 26.7584C19.9812 27.143 20.3005 27.5268 20.6254 27.9068C20.7177 28.015 20.8295 28.1174 20.9497 28.1942C21.1678 28.3337 21.3803 28.291 21.5816 28.0946C21.7269 27.9524 21.7521 27.776 21.6207 27.5512C21.5453 27.4217 21.4481 27.3044 21.3525 27.1889C21.3346 27.1674 21.3168 27.1459 21.2992 27.1244C21.2433 27.0561 21.179 26.9906 21.1119 26.9337C20.5444 26.4415 20.4046 25.7899 20.4297 25.0757C20.4338 24.9558 20.4482 24.8359 20.4622 24.7192L20.4622 24.7192L20.4622 24.719C20.4675 24.6752 20.4727 24.6318 20.4773 24.5891C20.5627 24.5725 20.6471 24.5559 20.7297 24.5397L20.7304 24.5395L20.7318 24.5393L20.7321 24.5392L20.7354 24.5385L20.736 24.5384C20.8919 24.5078 21.0413 24.4784 21.179 24.4526C21.2311 24.5694 21.2799 24.6889 21.3287 24.8086L21.3287 24.8086L21.3288 24.8086C21.4345 25.0676 21.5407 25.3277 21.6822 25.5651C21.8903 25.9151 22.1369 26.2409 22.3834 26.5665L22.3835 26.5666L22.3835 26.5666L22.3835 26.5666C22.4416 26.6434 22.4997 26.7201 22.5572 26.7971C22.6551 26.928 22.7865 27.0333 22.9654 26.9906C23.0605 26.9679 23.1332 26.7061 23.0856 26.5211C23.0409 26.3476 22.9878 26.1712 22.9011 26.0175C22.5153 25.3261 22.3671 24.5664 22.2637 23.7953C22.2106 23.4026 21.9813 23.2262 21.5955 23.303C20.8742 23.4481 20.1502 23.5193 19.4149 23.4538C19.3646 23.4481 19.3143 23.4368 19.2639 23.4254C18.7439 23.3002 18.5371 22.8108 18.8054 22.3356C18.8138 22.3185 18.8222 22.3014 18.8362 22.2872C19.0861 22.0307 19.2216 21.7121 19.3576 21.3922C19.4057 21.2791 19.4539 21.1659 19.5072 21.0552C19.6134 20.8389 19.8147 20.6568 20.0076 20.4975C20.2452 20.304 20.536 20.2072 20.8351 20.1418C20.877 20.1333 20.9385 20.0934 20.9469 20.0593C20.9553 20.0194 20.9218 19.9455 20.8882 19.9284C20.8669 19.9181 20.8454 19.9076 20.8238 19.897C20.6956 19.834 20.5633 19.769 20.4269 19.752C20.2033 19.7235 19.9712 19.7292 19.7448 19.752C19.4932 19.7776 19.2695 19.6979 19.0599 19.5955C18.8362 19.4874 18.6237 19.3394 18.4224 19.1914C17.8717 18.7846 17.3154 18.389 16.6835 18.1187C16.007 17.8257 15.3053 17.7289 14.5784 17.837C14.5253 17.8313 14.4666 17.8342 14.4023 17.8427ZM17.4692 17.2938C17.2455 17.436 17.0023 17.4986 16.7395 17.4986C16.4879 17.4901 16.2474 17.4389 16.0434 17.2796C15.8169 17.106 15.7302 16.8499 15.8616 16.6024C15.9455 16.4466 16.0624 16.31 16.1793 16.1734C16.2183 16.1279 16.2572 16.0824 16.295 16.0361C16.3145 16.0134 16.3621 16.0048 16.3956 16.0077C17.0023 16.0674 17.472 16.4914 17.581 17.0263C17.6089 17.1572 17.5726 17.2283 17.4692 17.2938ZM14.4331 9.97555C14.7518 10.2202 15.1991 10.7779 15.5039 11.3043L15.4724 11.3448C15.4003 11.4377 15.3322 11.5253 15.2662 11.6173C15.2075 11.6998 15.1376 11.7198 15.037 11.6885C14.5198 11.5206 14.1647 11.145 13.7901 10.741C14.0082 10.482 14.2206 10.2288 14.4331 9.97555ZM18.7944 11.7236C19.0247 11.5216 19.3053 11.4863 19.5876 11.4508C19.6513 11.4428 19.7151 11.4348 19.7784 11.4248C19.9238 11.4021 20.0692 11.3594 20.209 11.3139C20.2397 11.3025 20.2844 11.2456 20.2789 11.2171C20.2369 10.9354 20.1503 10.6708 19.9182 10.4887C19.8791 10.4574 19.8148 10.4375 19.77 10.4432C19.429 10.4972 19.1131 10.6167 18.8307 10.8188L18.8307 10.8188C18.7971 10.8444 18.7636 10.87 18.7328 10.8984C18.4421 11.1716 18.4617 11.4817 18.7944 11.7236ZM18.9034 16.392C18.6211 15.8799 17.391 15.3905 17.0723 15.6665C17.0723 15.675 17.0723 15.6892 17.0778 15.6921C17.4581 16.0278 17.732 16.4518 17.9976 16.8814C18.0619 16.9867 18.1262 16.9924 18.2269 16.9583C18.4617 16.8786 18.7301 16.6567 18.9034 16.392ZM20.782 21.9157C20.7401 22.1348 20.6534 22.2003 20.4297 22.2059C20.3905 22.1985 20.3512 22.1926 20.3121 22.1867L20.3121 22.1867C20.2315 22.1746 20.1518 22.1626 20.0747 22.1377C19.8231 22.0608 19.7141 21.8816 19.7616 21.6169C19.7784 21.5202 19.8147 21.4263 19.8566 21.3381C20.0076 21.028 20.2564 20.8089 20.5416 20.6324C20.6394 20.5727 20.7568 20.5357 20.8687 20.5158C20.9204 20.5057 20.9777 20.52 21.0347 20.5343L21.0347 20.5343L21.0347 20.5343L21.0347 20.5343L21.0347 20.5343L21.0347 20.5343L21.0347 20.5343L21.0347 20.5343L21.0348 20.5343C21.0579 20.5401 21.0809 20.5458 21.1035 20.5499C21.0988 20.5708 21.0951 20.5928 21.0915 20.615C21.0823 20.6712 21.0729 20.7282 21.0448 20.769C20.8826 21.0052 20.8351 21.2698 20.8211 21.5487C20.8155 21.671 20.8044 21.7962 20.782 21.9157ZM20.1255 21.551C20.0704 21.5951 20.0339 21.6634 20.0356 21.7365C20.0383 21.8645 20.1446 21.9669 20.2704 21.9641C20.3224 21.9629 20.3694 21.9444 20.4065 21.914C20.3692 21.9439 20.322 21.9621 20.2705 21.9633C20.1447 21.9662 20.0384 21.8637 20.0356 21.7357C20.0356 21.663 20.0714 21.5952 20.1255 21.551ZM18.878 12.5143L19.2028 12.5416C19.6286 12.5773 20.0458 12.6123 20.4631 12.6509C20.5861 12.6623 20.6253 12.6139 20.6365 12.4972C20.6588 12.2468 20.5749 12.0505 20.3681 11.9139C20.0186 11.6863 19.3952 11.7261 19.0765 11.9993C18.9143 12.1359 18.8444 12.3094 18.878 12.5143ZM18.6264 9.23864C18.9619 9.42359 19.2806 9.61139 19.5043 9.93291C18.9899 10.2402 18.4922 10.539 17.9946 10.8406C17.9023 10.6926 17.8912 10.593 17.9583 10.3853C18.0858 9.98527 18.3273 9.65181 18.5721 9.31376L18.6264 9.23864ZM17.8662 15.1492C18.2149 15.2699 18.4951 15.4879 18.7807 15.7102C18.953 15.8443 19.1274 15.98 19.3199 16.0967L19.3986 15.971C19.5026 15.805 19.604 15.6431 19.7001 15.4793C19.7141 15.4565 19.7057 15.3911 19.6833 15.374C19.3199 15.0838 18.9285 14.8505 18.4505 14.8277C18.2128 14.822 18.0003 14.8846 17.8662 15.1492ZM20.5248 13.2599C20.5193 13.493 20.5135 13.7318 20.3655 13.9279C20.3074 13.9085 20.25 13.8888 20.1929 13.8693L20.1929 13.8693L20.1929 13.8693L20.1929 13.8693L20.1928 13.8693L20.1928 13.8693C20.0412 13.8174 19.8924 13.7665 19.7421 13.7231C19.4765 13.6519 19.2109 13.5865 18.9425 13.5267C18.8419 13.504 18.8195 13.4527 18.8335 13.356C18.8698 13.0885 19.0515 12.9235 19.3591 12.9121C19.7533 12.895 20.1167 13.0288 20.4717 13.1881C20.4969 13.1995 20.5249 13.2365 20.5249 13.2593L20.5248 13.2599ZM19.3752 22.1215L19.3752 22.1216C19.3201 22.189 19.2693 22.251 19.2194 22.3138C19.2022 22.3354 19.1844 22.3565 19.1666 22.3776C19.1234 22.4286 19.0805 22.4793 19.0488 22.5357C18.9454 22.7178 18.9957 22.917 19.1858 22.9995C19.3368 23.065 19.5045 23.1077 19.6667 23.1247C20.1 23.1731 20.5278 23.1304 20.9471 23.0024C20.9192 22.8032 20.8297 22.7122 20.634 22.6922C20.5363 22.6834 20.4375 22.68 20.339 22.6767L20.339 22.6767L20.3389 22.6767L20.3388 22.6767C20.2795 22.6747 20.2203 22.6727 20.1615 22.6695C19.7813 22.6467 19.7198 22.587 19.6443 22.2114C19.6312 22.1484 19.6055 22.0867 19.5782 22.0211C19.5648 21.9889 19.551 21.9558 19.5381 21.9211C19.4785 21.9952 19.4252 22.0604 19.3755 22.1211L19.3753 22.1215L19.3752 22.1215ZM19.8903 14.9639C19.443 14.7277 18.9873 14.5229 18.4813 14.4204C18.554 14.0562 18.7916 13.894 19.1662 13.9424C19.5436 13.9879 19.8791 14.1473 20.1867 14.3664C20.2174 14.3891 20.2565 14.4403 20.2482 14.4631C20.1867 14.6224 20.1224 14.7846 20.0413 14.9354C20.0245 14.9639 19.9267 14.9838 19.8903 14.9639ZM21.1173 21.3174C21.1173 21.6133 21.1649 21.6617 21.3885 21.619C21.4808 21.6019 21.5786 21.5621 21.6541 21.5052C21.9449 21.2861 22.0259 20.7569 21.8246 20.4638C21.7771 20.3955 21.7352 20.367 21.6569 20.4239C21.3326 20.6658 21.1313 20.9703 21.1173 21.3174Z" fill="#20113D"/>
</svg>
