<svg width="35" height="51" viewBox="0 0 35 51" fill="none" xmlns="http://www.w3.org/2000/svg">
<path d="M17.3644 3.46875C9.5657 3.46875 3.25586 9.45667 3.25586 16.8355C3.25586 24.2143 17.3644 45.3606 17.3644 45.3606C17.3644 45.3606 31.4729 24.2143 31.4729 16.8355C31.4729 9.45667 25.1631 3.46875 17.3644 3.46875Z" fill="#F58021"/>
<path d="M12.487 23.9289C12.3929 23.4482 12.3626 22.9706 12.4475 22.4929C12.5811 21.7341 12.9605 21.1143 13.5706 20.6517C13.8741 20.422 14.2232 20.2527 14.551 20.0531C14.7665 19.9231 14.9971 19.8082 15.1823 19.645C15.671 19.2066 16.1384 18.7471 16.6149 18.2966C16.8972 18.0306 17.1764 17.7615 17.4769 17.4743C17.2736 17.4592 17.0915 17.4562 16.9124 17.4289C16.7333 17.4017 16.5542 17.3564 16.4237 17.175C16.4874 17.172 16.533 17.1689 16.5785 17.1689C17.0581 17.1538 17.3009 16.912 17.31 16.4494C17.3161 16.2257 17.2614 15.9989 17.2311 15.7752C17.0945 14.8289 17.3312 13.9764 17.8897 13.2085C17.9261 13.1571 17.9656 13.1027 18.0111 13.0392C17.8563 13.021 17.7167 13.015 17.5832 12.9848C17.4526 12.9545 17.3312 12.9001 17.2038 12.8578C17.2068 12.8427 17.2098 12.8275 17.2129 12.8155C17.313 12.7943 17.4132 12.7761 17.5103 12.752C18.2266 12.5645 18.7517 12.1503 19.0704 11.4731C19.204 11.192 19.3557 10.9168 19.5257 10.6568C19.8262 10.2003 20.2542 9.9101 20.7853 9.77103C20.8339 9.75894 20.8794 9.74382 20.9432 9.72568C20.846 9.66824 20.7519 9.62894 20.6821 9.56243C20.6214 9.50499 20.5911 9.41731 20.5638 9.31754C20.8157 9.40219 20.9948 9.28429 21.1769 9.17847C21.4865 8.99708 21.8082 8.86103 22.1785 8.87615C22.6338 8.89731 22.9798 9.12405 23.2681 9.45964C23.3076 9.50498 23.344 9.55336 23.3835 9.60475C23.6293 9.42638 23.8752 9.47475 24.1028 9.62592C24.2303 9.71057 24.3305 9.83754 24.4519 9.93731C24.6461 10.1006 24.8343 10.2789 25.0498 10.415C25.1561 10.4815 25.3109 10.4694 25.4687 10.4996C25.5719 10.7929 25.4141 11.0045 24.889 11.2071C25.0195 11.4338 25.15 11.6606 25.2805 11.8873C25.3776 12.0536 25.4535 12.2168 25.3958 12.4285C25.3716 12.5252 25.4353 12.6673 25.499 12.761C25.6629 12.9968 25.8481 13.2175 26.0241 13.4443C26.1152 13.5652 26.2032 13.6892 26.2912 13.8101C26.3762 13.928 26.3762 14.0429 26.2882 14.1578C26.1759 14.2999 26.0788 14.4601 25.9422 14.575C25.7388 14.7443 25.5719 14.9378 25.4019 15.1403C25.1652 15.4245 24.8252 15.4366 24.546 15.1887C24.4762 15.1252 24.4003 15.0557 24.3578 14.9741C24.2607 14.7806 24.0937 14.708 23.9025 14.6566C23.7204 14.6082 23.5383 14.5659 23.3622 14.5055C23.2165 14.4541 23.08 14.3845 22.9403 14.321C22.9161 14.4148 22.9252 14.4934 23.0466 14.575C23.2226 14.6899 23.4108 14.7836 23.6051 14.8713C23.69 14.9106 23.7386 14.9468 23.769 15.0406C23.9025 15.4789 24.0452 15.9143 24.1909 16.3466C24.3335 16.7729 24.3457 17.2113 24.3305 17.6557C24.3123 18.1545 24.2303 18.6352 24.0786 19.1068C23.9693 19.4424 23.8479 19.6601 23.6931 19.8113C23.5899 19.5422 23.4897 19.2762 23.3865 19.0131C23.3713 19.0162 23.3562 19.0192 23.341 19.0222C23.3653 19.2882 23.3805 19.5543 23.4169 19.8203C23.5838 20.9873 23.8388 22.1392 24.1787 23.2699C24.2242 23.415 24.3062 23.5571 24.3942 23.681C24.5581 23.9108 24.7949 23.9894 25.0711 23.9652C25.3898 23.938 25.5567 24.0348 25.6296 24.3431C25.6842 24.5789 25.6872 24.8269 25.7145 25.0808C24.7827 25.0808 23.8964 25.0808 22.9768 25.0808C22.9494 24.7301 22.9312 24.3794 22.8887 24.0317C22.8675 23.8443 22.8402 23.6478 22.7552 23.4845C22.567 23.1278 22.3454 22.7922 22.1299 22.4506C21.8234 21.9669 21.5107 21.4862 21.2042 21.0085C20.582 21.2655 19.9355 21.5345 19.2707 21.8066C19.2495 21.9789 19.2252 22.1906 19.2009 22.3992C19.1675 22.6955 19.0219 22.9252 18.7821 23.0885C18.518 23.2668 18.2388 23.418 17.9656 23.5813C17.8928 23.6266 17.8199 23.675 17.7471 23.7203C17.7531 23.7385 17.7562 23.7566 17.7622 23.7748C17.8533 23.7869 17.9474 23.811 18.0354 23.805C18.3875 23.7808 18.7396 23.7475 19.0947 23.7173C19.1797 23.7113 19.2647 23.7022 19.3527 23.7022C20.151 23.6992 20.6578 24.2706 20.5638 25.0838C20.5152 25.0868 20.4666 25.0899 20.4181 25.0899C17.8442 25.0899 15.2673 25.0929 12.6934 25.0899C12.4324 25.0899 12.1622 25.0778 11.9103 25.0143C11.7039 24.9629 11.4763 24.8631 11.3275 24.715C10.7357 24.1285 10.4261 23.4271 10.6962 22.5896C10.8632 22.0757 11.0938 21.5799 11.3154 21.0841C11.4611 20.7575 11.625 20.4401 11.6827 20.0803C11.7859 19.4485 11.5097 18.8771 10.9694 18.611C10.6203 18.4387 10.0406 18.7048 9.96169 19.0766C9.95259 19.122 9.97687 19.2006 10.0103 19.2217C10.2743 19.388 10.3988 19.6359 10.4564 19.9292C10.5354 20.3373 10.4564 20.9813 10.2895 21.3017C10.2045 21.1717 10.1195 21.0417 10.0345 20.9117C10.0801 21.4559 9.86153 21.8792 9.52765 22.2571C9.50944 22.251 9.49427 22.251 9.49123 22.248C9.36375 21.9064 9.127 21.6524 8.85383 21.4196C8.72028 21.3048 8.61708 21.1566 8.49871 21.0206C8.46229 21.0901 8.41069 21.1899 8.35909 21.2896C8.20429 21.1566 8.10716 20.8785 8.14966 20.6064C8.2134 20.2073 8.38337 19.8687 8.78706 19.6964C8.82651 19.6782 8.85687 19.6178 8.87508 19.5694C9.06933 19.0615 9.36072 18.6262 9.84028 18.345C10.2288 18.1152 10.6598 18.0275 11.109 18.0971C11.5279 18.1606 11.7889 18.4327 11.9376 18.8166C12.1501 19.3638 12.138 19.9292 12.0074 20.4824C11.9133 20.8875 11.7646 21.2806 11.6068 21.6675C11.4702 22.0092 11.3215 22.3448 11.279 22.7166C11.2061 23.4301 11.7403 23.9834 12.487 23.9289Z" fill="#20113D"/>
</svg>
