<svg width="35" height="51" viewBox="0 0 35 51" fill="none" xmlns="http://www.w3.org/2000/svg">
<path d="M17.3644 3.46875C9.5657 3.46875 3.25586 9.45667 3.25586 16.8355C3.25586 24.2143 17.3644 45.3606 17.3644 45.3606C17.3644 45.3606 31.4729 24.2143 31.4729 16.8355C31.4729 9.45667 25.1631 3.46875 17.3644 3.46875Z" fill="#F58021"/>
<path fill-rule="evenodd" clip-rule="evenodd" d="M14.4388 18.147C13.5923 18.3976 12.7392 18.3591 11.8796 17.8C11.8136 17.8812 11.7459 17.9631 11.6776 18.0457C11.5082 18.2506 11.3346 18.4606 11.1709 18.6804C11.0495 18.8507 10.9363 19.0274 10.8231 19.2041L10.8231 19.2041L10.8231 19.2041C10.7099 19.3809 10.5967 19.5576 10.4753 19.7278C10.2063 20.107 10.1079 20.5183 10.1341 20.9745C10.1669 21.5593 9.93069 21.8549 9.34667 21.9578C8.14582 22.1698 7.06965 21.2958 7.06309 20.107C7.06309 19.9909 7.06097 19.8748 7.05887 19.7591C7.05572 19.5867 7.0526 19.4151 7.05652 19.2459C7.06756 18.7921 7.26875 18.3973 7.46903 18.0043L7.46905 18.0043C7.50699 17.9298 7.54491 17.8554 7.58149 17.7807C7.67613 17.5885 7.77167 17.3966 7.86721 17.2047L7.86721 17.2047L7.86724 17.2046L7.86729 17.2045C8.22216 16.4917 8.57714 15.7786 8.88733 15.0495C9.34328 13.9811 10.0282 13.0621 10.7156 12.1399L10.7156 12.1399C10.8592 11.9472 11.0029 11.7544 11.1447 11.5601C11.1515 11.5517 11.1587 11.5434 11.1661 11.5349L11.1661 11.5349C11.1871 11.5108 11.2088 11.4858 11.2234 11.4572C11.9912 10.0885 13.3561 9.76714 14.7603 9.49723C15.1066 9.43179 15.4501 9.34981 15.7934 9.26789L15.7934 9.26789C16.1917 9.17284 16.5897 9.07786 16.9914 9.00884C17.7264 8.88031 18.481 8.77749 19.2291 8.75179C20.1149 8.71965 20.863 9.12451 21.5258 9.68359C20.5218 9.18235 19.4456 9.00884 18.3301 9.03454C18.0479 9.04097 17.7657 9.06667 17.4836 9.09881C17.0767 9.14379 16.9061 9.4394 16.7946 9.77999C16.5058 10.6475 16.5649 11.5022 16.8733 12.3633C16.9476 12.5702 16.994 12.7886 17.0402 13.006C17.0714 13.1533 17.1026 13.3002 17.1424 13.443C17.193 13.6208 17.2425 13.7993 17.292 13.9779C17.4732 14.6314 17.6547 15.2861 17.897 15.9171C17.9954 16.1805 18.3235 16.4376 18.6057 16.5404C19.7147 16.9324 20.8499 17.1445 22.0245 16.7525C23.501 16.2577 24.2621 14.7154 23.7044 13.2823C23.5256 12.8283 23.3136 12.3883 23.1007 11.9464C23.0635 11.8691 23.0262 11.7918 22.9891 11.7143C22.9551 11.643 22.8852 11.5857 22.8166 11.5295C22.7925 11.5098 22.7685 11.4902 22.7463 11.4701C22.6615 11.3913 22.573 11.3145 22.4843 11.2376L22.4843 11.2376L22.4843 11.2376L22.4842 11.2376C22.3054 11.0825 22.1255 10.9265 21.972 10.7504C21.7555 10.4997 21.762 10.1848 21.9523 9.91494C22.136 9.65147 22.4313 9.5872 22.7398 9.63861C23.2188 9.71573 23.5272 10.0049 23.6847 10.4355C23.8356 10.8532 23.6912 11.213 23.3172 11.5279C23.8094 11.9264 23.9734 12.4983 24.1178 13.0638C24.1724 13.2779 24.2018 13.4989 24.2312 13.7204V13.7205C24.2654 13.9776 24.2997 14.2354 24.3737 14.484C24.4973 14.8956 24.6456 15.3016 24.7941 15.7081C24.9215 16.0568 25.049 16.4058 25.1611 16.7589C25.3067 17.2109 25.4407 17.6666 25.5746 18.122L25.5747 18.1221L25.5747 18.1223L25.5748 18.1224C25.6884 18.5086 25.8019 18.8947 25.9223 19.278C25.9895 19.4917 26.0754 19.7001 26.1612 19.9082L26.1612 19.9084C26.2096 20.0258 26.258 20.1431 26.3029 20.2612C26.4467 20.635 26.7724 20.8033 27.0952 20.9701L27.0952 20.9701C27.1553 21.0012 27.2154 21.0322 27.2741 21.0645C27.576 21.2316 27.7335 21.4501 27.6547 21.7971C27.5825 22.1248 27.366 22.3305 26.9657 22.3176C26.1454 22.2855 25.3318 22.2084 24.5181 22.1248C24.3803 22.112 24.2359 21.9706 24.1375 21.8549C23.5863 21.2059 23.0416 20.5504 22.5035 19.8949C22.1295 19.4387 21.8539 18.9374 21.7095 18.3655C21.6482 18.1301 21.5231 17.9065 21.3994 17.6855L21.3994 17.6854C21.3643 17.6227 21.3294 17.5603 21.2961 17.4979C21.2633 17.4337 21.1714 17.3758 21.0992 17.363L21.0474 17.3529C20.6317 17.272 20.2181 17.1915 19.859 17.5493C19.7676 17.6453 19.6177 17.6966 19.4869 17.7415L19.485 17.7421C19.2553 17.8192 19.1503 17.9606 19.2356 18.1791C19.5384 18.9739 19.5155 19.786 19.4926 20.5999V20.6V20.6V20.6C19.4812 21.0035 19.4698 21.4074 19.4981 21.81C19.5098 21.9642 19.5318 22.1184 19.5539 22.2726C19.5814 22.4654 19.6089 22.6582 19.6162 22.851C19.6228 22.9988 19.5572 23.2109 19.4522 23.288C18.5794 23.9306 17.6017 24.0399 16.5977 23.6864C16.099 23.5065 15.7643 23.153 15.6856 22.549C15.5347 21.2958 15.3312 20.0492 15.0688 18.8153C14.9742 18.3525 14.7467 17.9105 14.5251 17.4799L14.5251 17.4798C14.5006 17.4322 14.4761 17.3847 14.4519 17.3373C13.822 16.1099 13.6448 14.8375 13.8679 13.4751C14.0516 12.3441 14.301 11.2645 15.0688 10.3712C15.2271 10.1888 15.4152 10.0322 15.6026 9.87629L15.6026 9.87627L15.6026 9.87626L15.6026 9.87625C15.6792 9.81251 15.7557 9.74886 15.8299 9.68359C15.8412 9.67417 15.8532 9.66513 15.8653 9.656C15.9028 9.62779 15.9414 9.59877 15.9612 9.55507C14.9506 9.56792 14.0385 9.84425 13.1395 10.2555C12.2974 10.6338 11.8147 11.3083 11.3261 11.9913L11.3261 11.9913C11.217 12.1438 11.1075 12.2967 10.9937 12.4469C10.9478 12.5111 10.9478 12.6204 10.9544 12.7104C11.0507 13.61 11.4049 14.4295 11.7584 15.2474L11.7584 15.2474L11.7812 15.3001C11.8515 15.4562 11.8883 15.6287 11.9251 15.8011C11.9399 15.8701 11.9546 15.9391 11.9715 16.007C12.0109 16.1805 12.0502 16.3605 12.0633 16.5404C12.066 16.577 12.0689 16.6138 12.0718 16.6508C12.0905 16.8866 12.1096 17.1288 12.0699 17.3566C11.9912 17.7614 12.024 17.8835 12.4505 17.9478L12.8661 17.9882L12.8662 17.9882H12.8662C13.3914 18.0393 13.9254 18.0911 14.4388 18.147ZM17.6014 12.113C17.2208 11.9588 17.0633 11.5925 17.0108 11.1619C16.9517 10.6928 17.3848 10.108 17.8901 9.93448C18.2904 9.79953 18.8547 10.018 19.0778 10.4036C19.2091 10.6349 19.2616 10.8213 18.9728 11.0205C18.6462 11.2445 18.3427 11.4976 18.0153 11.7708L18.0153 11.7709L18.0153 11.7709C17.8823 11.8818 17.7454 11.9961 17.6014 12.113ZM18.8482 14.0857C18.7301 14.5933 19.0648 14.9982 19.4716 14.9661C19.5084 14.8511 19.5436 14.7386 19.5784 14.6275L19.5784 14.6274L19.5784 14.6274C19.6427 14.4219 19.7053 14.2216 19.7735 14.0214C19.7915 13.9713 19.8165 13.9226 19.8413 13.874L19.8413 13.874C19.8707 13.8165 19.9001 13.7593 19.9178 13.7001C19.9703 13.5137 20.0294 13.2695 19.7866 13.2117C19.6094 13.1731 19.3273 13.231 19.2157 13.3531C19.0385 13.5459 18.9073 13.8222 18.8482 14.0857ZM21.2735 13.2448L21.2735 13.2447C21.3361 13.148 21.3964 13.0548 21.4794 13.0187C21.5647 12.9801 21.7484 13.0573 21.8403 13.1344L21.9013 13.1856L21.9013 13.1856C22.1187 13.3681 22.3405 13.5543 22.4965 13.7834C22.5818 13.9184 22.549 14.169 22.4899 14.3361C22.444 14.4582 22.2734 14.5867 22.1422 14.6124C22.0569 14.6253 21.919 14.471 21.8337 14.3682C21.6894 14.1947 21.5647 14.0148 21.44 13.822C21.3765 13.7375 21.3286 13.6408 21.2726 13.5275C21.2476 13.477 21.221 13.4232 21.1907 13.3657C21.22 13.3275 21.2469 13.2858 21.2735 13.2448ZM21.5346 15.6749L21.5385 15.6725C21.5367 15.6615 21.5343 15.65 21.5318 15.6382C21.5256 15.6083 21.5188 15.5762 21.5188 15.544C21.4838 15.5354 21.4489 15.524 21.4139 15.5126C21.3439 15.4897 21.2739 15.4669 21.2039 15.4669C20.9348 15.4669 20.6658 15.4733 20.4033 15.5054C20.2983 15.5183 20.1736 15.589 20.1277 15.6661C20.1015 15.7111 20.1868 15.8524 20.2589 15.9167C20.2973 15.9542 20.3535 15.9677 20.4107 15.9813C20.4514 15.991 20.4925 16.0008 20.528 16.0195C20.6002 16.0581 20.7314 16.1352 20.7248 16.1673C20.6986 16.2573 20.633 16.3473 20.5542 16.4115C20.5161 16.4447 20.4616 16.4565 20.3942 16.471C20.3572 16.479 20.3163 16.4878 20.2721 16.5015C20.5268 16.4851 20.7629 16.4688 20.999 16.4524C21.1339 16.4431 21.2689 16.4337 21.4073 16.4244C21.3298 16.3907 21.241 16.3804 21.1556 16.3706C20.9804 16.3504 20.8191 16.3319 20.797 16.1159C21.0646 15.9562 21.2997 15.8155 21.5346 15.6749Z" fill="#20113D"/>
</svg>
