<svg width="35" height="51" viewBox="0 0 35 51" fill="none" xmlns="http://www.w3.org/2000/svg">
<path d="M17.3644 3.46875C9.5657 3.46875 3.25586 9.45667 3.25586 16.8355C3.25586 24.2143 17.3644 45.3606 17.3644 45.3606C17.3644 45.3606 31.4729 24.2143 31.4729 16.8355C31.4729 9.45667 25.1631 3.46875 17.3644 3.46875Z" fill="#F58021"/>
<path d="M12.2969 20.4326C12.2847 20.4539 12.2746 20.4783 12.2504 20.5209C11.9786 20.068 11.8992 19.5675 11.8025 19.0739C11.7852 19.0677 11.7648 19.0635 11.7495 19.0603C11.691 19.2097 11.6131 19.3497 11.578 19.5013C11.4567 19.9976 11.4943 20.4948 11.6144 20.9906C11.7614 21.5792 11.9084 22.1678 12.034 22.7573C12.1274 23.1999 12.1821 23.6504 12.0851 24.104C11.979 24.6035 11.7565 25.0074 11.2498 25.1968C11.024 25.2799 10.8018 25.25 10.5965 25.1336C10.3964 25.0183 10.3701 24.8144 10.5427 24.6648C10.6453 24.5748 10.7621 24.4797 10.8882 24.4316C11.1375 24.3375 11.2651 24.16 11.2846 23.9126C11.303 23.6836 11.3102 23.4443 11.2696 23.219C11.1572 22.6163 11.0224 22.0196 10.8795 21.4239C10.719 20.7558 10.6247 20.0881 10.7402 19.4054C10.8407 18.8122 11.0986 18.3097 11.5718 17.9256C11.6064 17.8983 11.6379 17.8731 11.6724 17.8458C11.6937 17.8317 11.7141 17.8226 11.7527 17.8015C11.7827 17.9188 11.8066 18.0269 11.8335 18.133C11.9915 17.3823 12.0373 16.5953 12.6668 16.0238C13.5918 16.5398 14.1054 17.3416 14.3132 18.3634C14.4971 17.1973 13.796 16.3914 13.1112 15.557C13.2819 15.4573 13.4436 15.3635 13.6052 15.2698C13.7424 15.1923 13.8797 15.1147 14.0179 15.032C14.329 14.8527 14.3381 14.8466 14.5492 15.1494C14.7469 15.4389 14.9203 15.7445 15.1008 16.041C15.1346 16.0983 15.1654 16.1575 15.2166 16.2078C15.1819 15.6688 14.9599 15.1917 14.689 14.7073C14.9981 14.5381 15.299 14.3699 15.6081 14.2139C15.6498 14.1908 15.7345 14.232 15.7866 14.2639C16.3759 14.6261 16.7214 15.1763 16.9612 15.8052C17.0333 15.992 17.0962 16.1849 17.1794 16.3687C17.1768 15.4235 16.6969 14.6526 16.2058 13.8581C16.5564 13.6261 16.8978 13.4001 17.2606 13.1599C17.6054 13.5247 17.81 13.9955 18.0339 14.4623C18.0549 14.0989 17.9558 13.7662 17.7783 13.4545C17.7157 13.341 17.6501 13.2296 17.5753 13.1242C17.4841 12.9943 17.4857 12.8782 17.5983 12.7638C17.8257 12.5381 18.0489 12.3063 18.2762 12.0805C19.1822 12.6668 19.7253 13.4666 19.9301 14.5037C19.9789 13.9581 19.8332 13.4439 19.6336 12.9476C19.435 12.4463 19.1124 12.0226 18.7074 11.627C19.1684 11.2112 19.613 10.8107 20.0699 10.4021C20.4926 10.8834 20.8408 11.352 21.0081 11.9316C20.9628 11.2978 20.7548 10.7231 20.3482 10.1869C20.5648 10.0833 20.7549 9.97958 20.9533 9.90138C20.996 9.88637 21.0747 9.93167 21.1288 9.96664C21.3668 10.1189 21.6208 10.203 21.9101 10.1885C21.5766 10.1171 21.3893 9.88271 21.2415 9.60883C21.1358 9.41771 21.2057 9.30509 21.4134 9.28704C21.7597 9.25254 22.1029 9.20681 22.445 9.15293C22.6802 9.11672 22.9071 9.04175 23.1423 9.00553C23.4976 8.95174 23.824 9.0322 24.1537 9.19009C24.4007 9.30979 24.6902 9.34826 24.9665 9.3999C25.1347 9.43456 25.2902 9.57506 25.2969 9.74316C25.3004 9.86031 25.307 9.97544 25.3217 10.0896C25.3648 10.4107 25.267 10.679 25.0468 10.922C25.0263 10.8914 25.009 10.8719 24.9977 10.8484C24.8969 10.6054 24.8989 10.6084 24.6465 10.6649C24.4073 10.7215 24.1773 10.7985 24.013 11.0001C23.8235 11.2362 23.8032 11.5152 23.9721 11.722C24.1082 11.8929 24.4834 11.9411 24.706 11.8203C24.7477 11.7971 24.7894 11.7739 24.831 11.7508C24.9431 12.0041 24.9051 12.1974 24.7051 12.3652C24.5467 12.4966 24.3729 12.6116 24.1921 12.749C23.9837 12.6214 23.7621 12.4805 23.5344 12.3568C23.3016 12.2321 23.0598 12.14 22.7535 12.2277C22.8719 12.2865 22.9607 12.3339 23.0832 12.3988C22.5787 12.6045 22.2397 12.9262 22.0521 13.4221C21.9872 13.2394 21.9244 13.0597 21.8471 12.8454C21.7649 13.9662 22.6379 15.477 24.3505 15.9939C24.2711 16.0199 24.209 16.0389 24.146 16.0629C24.1481 16.0792 24.1471 16.0976 24.1492 16.1139C24.2215 16.1103 24.2919 16.1168 24.3611 16.102C24.5993 16.0505 24.8344 15.9878 25.0747 15.9394C25.3068 15.892 25.5169 15.9564 25.7355 16.1126C25.4276 16.3164 25.1441 16.5041 24.8636 16.6897C24.6238 16.8441 24.386 17.0015 24.1421 17.1497C24.0943 17.1769 24.0128 17.1865 23.9669 17.1638C23.0033 16.6954 21.9816 16.4955 20.923 16.4838C20.5787 16.4817 20.2717 16.3972 19.9907 16.1938C19.9161 16.1414 19.8294 16.1103 19.7254 16.0995C19.8411 16.2265 19.9536 16.3555 20.0908 16.5081C18.8088 16.6886 17.6449 17.1182 16.5759 17.8214C16.4394 17.5843 16.3112 17.3594 16.185 17.1376C16.1738 17.1406 16.1657 17.1416 16.1545 17.1445C16.1731 17.2119 16.1856 17.2833 16.2124 17.3496C16.3441 17.6917 16.3179 18.0276 16.2102 18.3732C15.9637 19.1559 15.4474 19.7455 14.8944 20.3195C14.588 20.6374 14.3143 20.9912 14.0446 21.3378C13.8389 21.6023 13.7321 21.9164 13.7263 22.2565C13.7265 22.3095 13.7104 22.3644 13.6995 22.4336C13.6443 22.4037 13.5984 22.381 13.5412 22.3481C13.5464 22.3756 13.5455 22.3939 13.5516 22.4031C13.818 22.7755 14.146 23.023 14.6377 22.9365C14.819 22.905 14.9913 22.9326 15.1377 23.1189C15.0706 23.1633 15.0066 23.2056 14.9456 23.246C14.4731 23.5588 13.9985 23.8685 13.5331 24.1854C13.4264 24.256 13.3622 24.2454 13.2621 24.1745C12.9086 23.9218 12.6892 23.567 12.488 23.2001C12.4142 23.0631 12.3941 22.8817 12.3965 22.7208C12.3985 22.1973 12.4301 21.672 12.4301 21.1454C12.4322 20.905 12.3813 20.6644 12.3569 20.4238C12.3366 20.4329 12.3183 20.4317 12.2969 20.4326ZM23.2258 9.51225C23.2228 9.54075 23.2229 9.56723 23.22 9.59573C23.3781 9.64154 23.5352 9.70567 23.6973 9.73112C23.7565 9.74066 23.8295 9.65251 23.8965 9.60811C23.8373 9.55885 23.7788 9.46478 23.7207 9.4634C23.5546 9.45829 23.3887 9.4929 23.2258 9.51225Z" fill="#20113D"/>
<path d="M17.0012 20.1166C16.9747 20.1164 16.9146 20.112 16.8219 20.1114C17.0896 20.3412 17.3737 20.3521 17.6577 20.3233C17.9957 20.2897 18.3315 20.2266 18.6694 20.1931C18.8689 20.176 19.0615 20.2209 19.1876 20.4295C19.1439 20.4628 19.1054 20.4972 19.0627 20.5254C18.5569 20.8604 18.0531 21.1984 17.5402 21.5292C17.4701 21.5756 17.3591 21.5872 17.2746 21.5724C17.0208 21.5281 16.7732 21.4665 16.5224 21.4069C16.2289 21.3358 16.049 21.1718 16.0244 20.8519C16.0168 20.7418 15.9563 20.6315 15.8989 20.5324C15.7852 20.3423 15.6562 20.1622 15.5271 19.969C15.999 19.5371 16.1974 18.9589 16.4151 18.39C16.5109 18.1452 16.6651 17.9812 16.9111 17.8758C17.1126 18.1051 17.2805 18.3434 17.2074 18.6749C17.1764 18.8061 17.1433 18.9342 17.1244 19.0705C17.0819 19.4083 17.0436 19.7523 17.0012 20.1166Z" fill="#20113D"/>
<path d="M18.5659 17.0575C19.1835 16.9361 19.7513 16.8256 20.3383 16.7111C20.4282 17.3063 20.2594 17.9091 20.5284 18.4697C20.4368 18.5038 20.3545 18.5318 20.2711 18.5649C20.2722 18.5863 20.2764 18.6056 20.2775 18.627C20.4078 18.6248 20.5433 18.6368 20.6704 18.6101C20.878 18.5656 21.0742 18.4843 21.2807 18.4316C21.5146 18.374 21.6963 18.4749 21.863 18.6653C21.6649 18.7965 21.473 18.9236 21.2841 19.0487C20.9398 19.2767 20.5996 19.5108 20.2491 19.7296C20.1861 19.7669 20.0762 19.7734 20.0038 19.7505C19.7133 19.6642 19.5169 19.4492 19.407 19.1858C19.1162 18.4936 18.8518 17.7884 18.5659 17.0575Z" fill="#20113D"/>
</svg>
