<svg width="113" height="113" viewBox="0 0 113 113" fill="none" xmlns="http://www.w3.org/2000/svg">
<g filter="url(#filter0_d)">
<circle cx="56.6665" cy="52.501" r="52" fill="#F58021"/>
</g>
<path d="M43.5244 76.0732C47.8589 75.0822 50.5993 72.3004 53.3755 69.3447C52.9993 69.2404 52.7128 69.1535 52.4262 69.084C48.6111 68.1451 45.1006 66.5456 41.8766 64.3723C39.8885 63.0335 38.2586 61.3471 37.0227 59.2955C36.8615 59.0347 36.7362 58.7565 36.6108 58.4783C36.575 58.4088 36.575 58.3219 36.5391 58.0785C37.7571 58.4436 38.9034 58.7913 40.0318 59.139C40.0676 59.1042 40.0855 59.0869 40.1213 59.0521C39.996 58.9478 39.8885 58.8434 39.7631 58.7565C38.2944 57.835 36.8615 56.8788 35.3749 56.0095C33.6734 55.0011 31.8823 54.1318 30.2345 53.0886C28.0314 51.6803 26.4732 49.6983 25.3448 47.4033C25.2911 47.299 25.2731 47.1946 25.2552 47.0903C25.2373 47.0382 25.2552 46.9686 25.2552 46.8122C27.0821 47.5771 28.7837 48.6551 30.8972 48.4638C26.7418 46.1515 24.1627 42.9176 24.3418 38.0495C26.115 39.9446 27.8523 41.8223 29.5897 43.7C29.6255 43.6652 29.6792 43.6131 29.7151 43.5783C28.9986 42.2222 28.1568 40.9008 27.6195 39.4751C27.0822 38.0495 26.7239 36.5021 26.5448 34.9895C26.3657 33.4769 26.509 31.9295 26.509 30.3995C26.5986 30.3821 26.6881 30.3821 26.7598 30.3647C27.6016 32.2077 28.4434 34.0506 29.2852 35.911C29.3748 35.911 29.4643 35.8936 29.5539 35.8936C29.518 32.538 29.8942 29.252 31.4882 26.2442C31.5599 26.2442 31.6315 26.2442 31.7032 26.2616C31.7032 27.0092 31.739 27.7394 31.7032 28.487C31.5062 32.1555 32.9569 35.2851 35.1242 38.1364C36.575 40.0315 38.3661 41.6137 40.3004 43.0393C42.8438 44.9171 45.6917 46.2906 48.5395 47.6467C51.1903 48.8985 53.5187 50.6024 55.7039 52.5148C57.0293 53.6797 58.4084 54.7751 59.7697 55.9052C60.1458 56.2181 60.5219 56.5658 60.9518 56.9483C61.6503 55.3836 62.2951 53.9231 62.9399 52.4453C64.4982 48.9333 66.8445 45.9776 69.7461 43.4218C72.0566 41.3876 74.4029 39.423 76.7135 37.4062C79.8479 34.6592 81.8002 31.2514 82.4271 27.1831C82.6599 25.74 82.5524 24.2274 82.6062 22.7669C82.6062 22.5235 82.6062 22.2627 82.6957 22.002C83.8241 24.5056 84.1465 27.1483 84.4152 29.8953C85.5257 27.7046 86.6182 25.514 87.7287 23.3059C87.8183 23.3233 87.9078 23.3407 87.9795 23.3581C87.8541 25.6009 87.8362 27.8437 87.5675 30.0692C87.2988 32.2772 86.7794 34.4505 86.3675 36.5543C86.9227 35.7197 87.5675 34.7635 88.3198 33.6681C88.3735 35.8066 88.3019 37.7365 87.3705 39.5621C86.457 41.3703 84.9883 42.7264 83.3943 44.0651C84.2719 44.239 84.9704 43.9434 85.651 43.6131C86.3137 43.3001 86.9227 42.9176 87.6929 42.483C87.6212 42.8133 87.5854 43.0393 87.5138 43.248C86.5466 45.7864 85.0421 47.977 82.7853 49.594C81.4061 50.6024 79.9374 51.4891 78.5762 52.4975C77.7165 53.1408 77.1075 53.5406 77.0717 54.4273C77.6448 54.2361 78.2001 54.0622 78.8628 53.8536C77.7523 57.5395 74.8149 59.7997 72.2536 62.4424C72.5044 62.5467 72.7014 62.6163 72.8984 62.7032C74.1701 63.2074 75.2448 63.9724 75.9791 65.1199C76.5344 65.9718 76.6597 66.8759 76.4269 67.8669C76.3552 68.1625 76.5343 68.5624 76.7314 68.8232C77.3403 69.7272 77.4299 70.6487 76.8926 71.5876C76.3732 72.509 75.5134 72.9611 74.385 73.0306C75.2806 71.4659 75.2448 71.1181 74.0268 70.2836C73.9014 70.9269 73.7761 71.5354 73.6507 72.1787C72.8447 71.5354 72.1462 70.7704 71.2685 70.3184C70.373 69.8663 69.3162 69.7446 68.2416 69.4491C68.2953 69.6751 68.2953 69.8142 68.349 69.9359C69.1371 71.8658 69.8715 73.8304 70.767 75.7255C71.0894 76.421 71.7342 77.0121 72.3253 77.5337C72.8805 78.0205 73.2746 77.8466 73.4895 77.1338C73.6328 76.6296 73.6865 76.108 73.7761 75.6038C73.8656 75.1518 74.1164 74.9605 74.4388 75.0996C74.5104 75.5169 74.6 75.8472 74.6179 76.1776C74.6358 76.5253 74.6358 76.8904 74.5641 77.2207C74.4925 77.5163 74.2955 77.7945 74.1522 78.0727C74.188 78.1248 74.2417 78.1596 74.2776 78.2118C74.7612 77.8988 75.2627 77.5858 75.7284 77.2555C75.9612 77.0816 76.1403 76.8556 76.3552 76.6644C77.1971 75.9168 77.609 75.9689 78.2001 76.9599C77.8777 76.9252 77.5911 76.873 77.2866 76.8382C77.2329 78.1248 75.8358 78.1074 75.2627 78.9767C75.9433 78.942 76.5523 78.8898 77.1612 78.8898C78.0926 78.8898 78.4687 79.3071 78.2896 80.2286C78.021 79.6026 77.5732 79.6896 77.1433 79.8634C76.2299 80.2286 75.2985 80.1068 74.3671 79.9851C73.3462 79.8461 72.4327 79.9851 71.5551 80.5763C70.9819 80.9762 70.3909 81.3587 69.567 81.1848C69.3879 81.15 69.0655 81.7238 68.8326 82.002C68.4565 81.5151 68.4744 81.0457 69.1013 80.6632C69.4953 80.4198 69.961 80.2981 70.3909 80.1242C70.6595 80.0199 70.9461 79.933 71.179 79.7591C71.6984 79.3766 71.6984 79.1332 71.1969 78.7507C69.961 77.7771 68.7252 76.8208 67.4893 75.8472C67.3818 75.7603 67.2565 75.6907 67.149 75.6734C65.5191 75.5343 64.6236 74.4911 63.9429 73.2219C63.7996 72.9437 63.6922 72.5612 63.2981 72.8046C63.0832 72.9437 62.8504 73.361 62.922 73.5696C63.2981 74.9431 64.122 76.0211 65.3937 76.7165C65.949 76.6296 66.0564 75.3082 66.8445 76.108C66.7729 76.4036 66.7191 76.5774 66.6833 76.7513C66.8982 76.7861 67.1311 76.873 67.346 76.8556C67.7042 76.8556 68.0625 76.7861 68.4207 76.7513C68.4386 76.8208 68.4565 76.9078 68.4744 76.9773C68.2237 77.099 67.9729 77.2207 67.6326 77.3946C69.3521 77.4815 69.3521 77.4815 69.4237 78.3682C68.8685 77.8466 68.3311 78.2639 67.7938 78.3334C66.5758 78.4725 65.734 79.0289 65.2863 80.1938C65.143 80.5589 64.7489 80.8197 64.3907 81.2196C64.4086 81.2717 64.4624 81.4456 64.4982 81.6368C63.728 81.376 63.5489 81.0109 63.925 80.3503C64.2116 79.8461 64.5877 79.3766 64.928 78.8898C65.2325 78.4552 65.2325 78.09 64.6594 77.8466C63.728 77.4468 62.9399 76.8035 61.8474 76.6991C61.4354 76.6644 61.0772 76.1254 60.6652 75.7777C60.4682 76.0906 60.1995 76.4557 59.9846 76.873C59.3577 78.1074 58.301 78.855 56.9756 79.2028C52.8023 80.3155 48.8619 79.6896 45.1901 77.4815C44.5812 77.1338 44.1334 76.5948 43.5244 76.0732Z" fill="#20113D"/>
<defs>
<filter id="filter0_d" x="0.666504" y="0.500977" width="112" height="112" filterUnits="userSpaceOnUse" color-interpolation-filters="sRGB">
<feFlood flood-opacity="0" result="BackgroundImageFix"/>
<feColorMatrix in="SourceAlpha" type="matrix" values="0 0 0 0 0 0 0 0 0 0 0 0 0 0 0 0 0 0 127 0"/>
<feOffset dy="4"/>
<feGaussianBlur stdDeviation="2"/>
<feColorMatrix type="matrix" values="0 0 0 0 0 0 0 0 0 0 0 0 0 0 0 0 0 0 0.25 0"/>
<feBlend mode="normal" in2="BackgroundImageFix" result="effect1_dropShadow"/>
<feBlend mode="normal" in="SourceGraphic" in2="effect1_dropShadow" result="shape"/>
</filter>
</defs>
</svg>
