<svg width="113" height="113" viewBox="0 0 113 113" fill="none" xmlns="http://www.w3.org/2000/svg">
<g filter="url(#filter0_d)">
<circle cx="56.6665" cy="52.501" r="52" fill="#F58021"/>
</g>
<path fill-rule="evenodd" clip-rule="evenodd" d="M69.8643 47.4523C70.4883 48.7865 71.1122 50.1207 71.7589 51.5139C71.5956 51.6478 71.4301 51.786 71.2621 51.9264L71.2613 51.927L71.2612 51.9271C70.8813 52.2446 70.4887 52.5726 70.0798 52.8835C69.6255 53.2271 69.175 53.5755 68.7247 53.9237L68.7241 53.9243L68.724 53.9243C67.6115 54.7847 66.5004 55.6441 65.3376 56.4256C61.1512 59.2475 56.5337 60.3927 51.5645 59.9441C50.3506 59.8378 49.0686 59.401 48.5581 59.0349C48.8529 56.9109 49.1363 54.8459 49.4198 52.7809L49.4203 52.7773C49.3863 52.7655 49.3494 52.7566 49.3125 52.7477C49.2756 52.7389 49.2388 52.73 49.2047 52.7182C49.0943 52.9515 48.9847 53.1848 48.8753 53.4178L48.875 53.4186C48.6025 53.9991 48.3308 54.5778 48.0475 55.1505C47.3118 56.6634 46.8185 58.27 46.324 59.8802C46.1857 60.3308 46.0472 60.7818 45.9033 61.231C44.9957 64.0293 43.3733 66.1781 40.6165 67.2289C40.4803 67.288 40.3669 67.5241 40.3101 67.7012C40.199 68.0683 40.1002 68.4397 40.0015 68.8108L40.0014 68.811C39.8684 69.3112 39.7355 69.8108 39.5727 70.2987C38.9487 72.1879 37.7802 73.6519 36.2032 74.7736C35.4998 75.2695 34.7964 75.7772 34.127 76.3203C33.5484 76.7808 33.5711 76.9815 34.1384 77.4419C34.2493 77.5321 34.3609 77.6208 34.4722 77.7094L34.4723 77.7094L34.4723 77.7095C34.8277 77.9921 35.1802 78.2726 35.4998 78.5872C36.0217 79.1067 36.2599 79.7679 36.067 80.5236C36.0217 80.7007 35.7607 80.9368 35.6019 80.9368C31.8807 80.9604 28.1481 80.9604 24.4269 80.9486C24.2908 80.9486 24.0979 80.9014 24.0185 80.8069C23.9046 80.6626 23.7879 80.5188 23.6709 80.3746L23.6707 80.3743L23.6707 80.3743C23.2519 79.858 22.8288 79.3364 22.5096 78.7643C22.3054 78.3983 22.2827 77.7843 22.4188 77.3711C23.7349 73.2033 25.4253 69.2479 28.6133 66.2136C28.7494 66.0837 28.8288 65.8003 28.8402 65.5996C28.9196 62.6006 29.2599 59.6253 29.9974 56.7326C30.6327 54.2295 31.3134 51.7264 32.516 49.4241C34.7283 45.2208 37.5873 41.7142 41.9779 39.8251C45.7558 38.2075 49.443 38.4555 53.0394 40.3682C53.5331 40.6331 53.9797 40.9963 54.4146 41.3502C54.6193 41.5167 54.8215 41.6811 55.0248 41.8322C54.6164 40.9113 53.9016 40.1557 53.1302 39.459C53.8566 39.1714 54.5858 38.8931 55.3137 38.6152L55.3139 38.6152C58.5304 37.3873 61.7217 36.1691 64.5434 34.205C64.6676 34.6549 64.7897 35.1093 64.9124 35.5663L64.9124 35.5664C65.0699 36.1527 65.2285 36.7433 65.3943 37.3338C65.4397 37.4755 65.5304 37.6054 65.6439 37.7234C65.417 36.2594 65.417 34.7953 65.9502 33.4493C66.4494 32.1742 67.0507 30.8872 67.8221 29.7774C69.7168 27.0854 71.9972 24.7476 74.5385 22.705L74.5385 22.705L74.5385 22.705C74.6406 22.6223 74.7427 22.5397 74.8561 22.4571C75.0383 22.336 75.2189 22.2071 75.3998 22.0778C76.2779 21.4507 77.1649 20.8171 78.2937 21.052C80.1543 21.4299 81.7086 22.4453 82.7751 24.11C83.0814 24.5823 83.4331 24.9129 83.9209 25.09C85.1916 25.5505 86.1446 26.3416 86.7572 27.6285C86.9793 28.0987 87.2996 28.5151 87.6204 28.9322C87.7749 29.133 87.9295 29.334 88.0733 29.5412C88.3682 29.9663 88.425 30.3205 88.0959 30.8164C87.8237 31.2296 87.6875 31.7845 87.6081 32.2922C87.506 32.8944 87.7329 33.284 88.3455 33.6146C89.9452 34.4647 90.8755 36.3656 89.9906 38.2902C89.8431 38.6089 89.707 38.9277 89.5822 39.2583C88.9922 40.8405 87.869 41.3954 86.3261 40.8405C86.3006 40.8316 86.2743 40.8227 86.2481 40.8139L86.248 40.8139C86.1693 40.7873 86.0907 40.7608 86.0311 40.7342C85.7475 41.1474 85.4639 41.5489 85.1575 41.9739C85.114 41.9186 85.0767 41.8782 85.0482 41.8474C85.0098 41.8059 84.9874 41.7817 84.9874 41.7614C85.0781 40.746 84.4882 40.1439 83.8302 39.5299C80.7556 36.649 76.989 37.1685 74.4137 38.8333C74.7032 38.7722 74.9901 38.7055 75.2761 38.639L75.2761 38.639C75.8194 38.5127 76.3596 38.3871 76.9096 38.302C80.177 37.8297 83.0133 39.3528 84.5222 42.399C85.566 44.5006 86.3034 46.6967 86.1219 49.1289L86.1199 49.1574V49.1575C86.0865 49.6338 86.05 50.1527 85.861 50.5694C85.2029 52.0334 85.4071 53.5093 85.7702 54.9615L85.8371 55.2321C86.1778 56.612 86.5275 58.0285 87.177 59.2475C89.6843 63.9348 89.8885 69 89.707 74.136C89.6275 76.3439 88.9468 78.3038 87.1997 79.7325C86.224 80.5354 85.1802 81.0903 83.8755 80.984C83.2743 80.9368 82.6616 80.925 82.0603 80.984C80.9258 81.1139 80.143 80.5236 79.4736 79.6971C78.7475 78.8115 78.4185 77.7843 78.6227 76.6273C78.6795 76.3203 78.895 75.9425 79.1446 75.8008C79.4581 75.6274 79.687 75.868 79.919 76.1117C79.9557 76.1502 79.9924 76.1888 80.0295 76.2258C80.3792 76.578 80.841 76.8368 81.2812 77.0834L81.2812 77.0835L81.2889 77.0877C81.6746 77.3003 81.8788 77.1231 81.9242 76.6745C81.9696 76.1432 81.8107 75.6945 81.425 75.3521C79.2581 73.4276 77.8966 70.9127 76.6714 68.3034C75.7297 66.2844 75.1284 64.171 74.9129 61.9276C74.754 60.2392 75.0377 58.5981 75.344 56.9569C75.4915 56.2131 75.639 55.4574 75.6843 54.69C75.7864 53.1669 75.2759 51.8799 74.0166 51.0653C72.4623 50.0617 71.0782 48.8574 69.9664 47.3461C69.9777 47.3815 69.921 47.4169 69.8643 47.4523ZM73.1878 52.8147C73.8458 53.3696 74.084 54.0072 73.9479 54.7983C73.864 55.3097 73.7716 55.8197 73.6793 56.3297L73.6791 56.3304L73.6791 56.3305C73.5093 57.2685 73.3394 58.2068 73.2218 59.155C72.8361 62.3547 73.5508 65.3773 74.742 68.2936C74.9576 68.8249 74.9803 69.2499 74.7534 69.7813C73.721 72.2135 72.5978 74.5867 71.1456 76.7946C69.2623 79.6518 66.6303 80.9742 63.3402 80.9742C63.1457 80.9742 62.9524 80.9774 62.7594 80.9806H62.7593C62.3104 80.9881 61.8637 80.9954 61.4115 80.9624C61.1846 80.9506 60.9009 80.7971 60.7762 80.6082C59.7211 79.1205 59.9026 76.0389 61.1165 74.6811C61.2526 74.5276 61.559 74.386 61.7291 74.445C61.8585 74.4931 61.9502 74.6978 62.035 74.8869C62.0543 74.93 62.0732 74.9723 62.0922 75.0117C62.139 75.1091 62.173 75.2165 62.2069 75.3233C62.2633 75.5012 62.3191 75.6773 62.4325 75.8028C62.6368 76.0507 62.9885 76.4049 63.2154 76.3577C63.4536 76.3105 63.6919 75.8736 63.794 75.5667C63.8961 75.2715 63.862 74.9055 63.8053 74.5985C63.7231 74.1662 63.6199 73.7371 63.517 73.3088L63.517 73.3087C63.336 72.5555 63.1557 71.8048 63.0906 71.0446C62.7842 67.6324 63.0792 64.2792 64.4974 61.1268C64.8264 60.4066 65.2008 59.6745 65.6886 59.0606C66.1991 58.3994 66.8345 57.8208 67.4811 57.3013C68.1447 56.7587 68.8285 56.2455 69.5132 55.7317L69.5133 55.7316L69.5136 55.7314C69.976 55.3844 70.4388 55.0371 70.896 54.6802C71.4061 54.2761 71.9111 53.8614 72.4246 53.4396C72.6764 53.2329 72.9302 53.0244 73.1878 52.8147ZM48.804 61.2069C48.5127 61.1172 48.22 61.0271 47.9218 60.9358C47.8208 61.1637 47.7228 61.3948 47.6245 61.6268C47.458 62.0198 47.2905 62.4152 47.105 62.8013C45.9818 65.1627 44.5069 67.2171 42.2266 68.5395C42.045 68.6457 41.9202 68.9173 41.8522 69.1416C41.3076 71.0425 40.6269 72.8608 39.3676 74.3957C39.2768 74.5138 39.1974 74.7263 39.2314 74.8562C39.6285 76.1667 40.0369 77.4773 40.4794 78.7643C40.5588 78.9886 40.7971 79.2011 41.0126 79.331C41.8181 79.8033 42.6236 80.2637 43.4518 80.7006C43.7241 80.8423 44.0418 80.9721 44.3368 80.9721C46.7358 80.9899 49.1284 80.9876 51.5242 80.9854C52.3235 80.9847 53.1231 80.984 53.9234 80.984H54.6268C54.5505 80.8212 54.4883 80.6624 54.4295 80.5121C54.3133 80.2155 54.2101 79.952 54.0369 79.756C53.6057 79.272 53.1179 78.8115 52.596 78.4455C52.1059 78.1023 51.5739 77.8175 51.0438 77.5337C50.8989 77.4562 50.7543 77.3787 50.6106 77.3002C50.0434 76.9814 49.7938 76.5091 49.8392 75.8479C49.8467 75.6905 49.8644 75.5331 49.882 75.3757C49.8908 75.297 49.8997 75.2182 49.9072 75.1395C49.9419 74.7821 49.9851 74.4235 50.0283 74.0645C50.1265 73.2496 50.2249 72.4325 50.2249 71.6211C50.2249 69.9327 49.4988 68.4804 48.4664 67.2053C50.2589 65.8121 50.6106 63.8403 50.7808 61.8095C50.0989 61.6056 49.455 61.4073 48.804 61.2069Z" fill="#20113D"/>
<defs>
<filter id="filter0_d" x="0.666504" y="0.500977" width="112" height="112" filterUnits="userSpaceOnUse" color-interpolation-filters="sRGB">
<feFlood flood-opacity="0" result="BackgroundImageFix"/>
<feColorMatrix in="SourceAlpha" type="matrix" values="0 0 0 0 0 0 0 0 0 0 0 0 0 0 0 0 0 0 127 0"/>
<feOffset dy="4"/>
<feGaussianBlur stdDeviation="2"/>
<feColorMatrix type="matrix" values="0 0 0 0 0 0 0 0 0 0 0 0 0 0 0 0 0 0 0.25 0"/>
<feBlend mode="normal" in2="BackgroundImageFix" result="effect1_dropShadow"/>
<feBlend mode="normal" in="SourceGraphic" in2="effect1_dropShadow" result="shape"/>
</filter>
</defs>
</svg>
