<svg width="113" height="113" viewBox="0 0 113 113" fill="none" xmlns="http://www.w3.org/2000/svg">
<g filter="url(#filter0_d)">
<circle cx="56.6667" cy="52.5005" r="52" style="fill: var(--in, #F58021)"  />
</g>
<path fill-rule="evenodd" clip-rule="evenodd" d="M55.7262 21.0101C56.6673 20.9574 57.5648 21.1506 58.4885 21.4754C58.458 21.5625 58.4297 21.6481 58.4019 21.7322L58.4019 21.7323C58.3345 21.9364 58.2699 22.1318 58.1835 22.3183C57.9178 22.8934 57.6476 23.4685 57.3775 24.0436C57.1074 24.6187 56.8372 25.1939 56.5715 25.769L56.5707 25.7706C56.4276 26.0808 56.3579 26.2318 56.2408 26.2955C56.1296 26.356 55.9756 26.3377 55.6755 26.3021L55.6217 26.2958C55.3167 26.2606 55.1337 26.1289 55.0901 25.8304C55.0716 25.7047 55.0482 25.5784 55.0248 25.4519L55.0248 25.4519L55.0248 25.4518L55.0248 25.4518L55.0248 25.4518L55.0248 25.4517L55.0248 25.4517L55.0248 25.4517L55.0248 25.4516L55.0248 25.4516L55.0248 25.4516C54.9599 25.1012 54.8948 24.7499 54.9333 24.408C55.0294 23.5634 55.1852 22.7242 55.3408 21.8861L55.3408 21.8861L55.3408 21.886L55.3409 21.8859L55.3409 21.8858L55.3409 21.8857L55.3409 21.8856L55.3409 21.8855L55.3409 21.8855L55.3409 21.8855L55.341 21.8854L55.341 21.8854C55.3826 21.6609 55.4243 21.4365 55.4648 21.212C55.4822 21.133 55.6304 21.0189 55.7262 21.0101ZM49.8541 23.8557L49.8542 23.8559L49.8543 23.856L49.8543 23.8561C50.4321 24.7219 50.9974 25.569 51.5873 26.4012C51.8052 26.7173 52.1015 26.9983 52.5807 26.8051C53.3127 26.5242 53.4957 26.331 53.2778 25.5583C53.0172 24.6192 53.179 23.7161 53.3413 22.8098L53.3413 22.8098C53.3581 22.7163 53.3748 22.6228 53.3911 22.5292C53.4521 22.1955 53.4434 21.8268 53.365 21.4931C53.3301 21.3351 53.0164 21.098 52.8944 21.1243C51.5612 21.458 50.3935 22.1165 49.2782 22.9945C49.4724 23.2837 49.6639 23.5707 49.8541 23.8557ZM46.4312 30.551C47.0417 31.0001 47.654 31.4505 48.2771 31.9064C48.068 32.9162 47.5277 33.4869 46.4733 33.601C45.0181 33.7503 43.7894 33.1532 42.6828 32.2576C42.6218 32.205 42.5956 32.0118 42.6392 31.924C42.7032 31.7806 42.7668 31.6369 42.8306 31.4931L42.8312 31.4917L42.832 31.4899L42.8322 31.4894L42.8329 31.4878L42.8329 31.4877L42.8329 31.4877L42.833 31.4877L42.833 31.4876L42.833 31.4876L42.833 31.4876L42.833 31.4875L42.833 31.4875L42.8331 31.4875L42.8331 31.4874L42.8331 31.4874L42.8331 31.4873L42.8331 31.4873L42.8332 31.4873C43.1157 30.8495 43.3989 30.2103 43.711 29.5885C43.7948 29.4135 43.9321 29.2676 44.0635 29.128L44.0635 29.1279C44.1234 29.0643 44.182 29.0019 44.2338 28.9387C44.9733 29.4784 45.6998 30.0129 46.4289 30.5492L46.4304 30.5504L46.4307 30.5506L46.4312 30.551ZM46.8209 35.9174C45.1739 35.5048 43.5793 35.1009 41.8626 34.6619C41.8259 34.8657 41.7848 35.076 41.7428 35.2909L41.7428 35.291C41.6654 35.6871 41.5849 36.099 41.5228 36.5145C41.4631 36.908 41.4237 37.3048 41.3836 37.7094V37.7094C41.3592 37.9548 41.3346 38.203 41.3049 38.4549C42.6817 39.1486 44.0934 39.3417 45.4876 38.5339C46.481 37.972 46.8731 37.0413 46.8209 35.9174ZM41.3659 40.5721C41.1045 41.9594 41.3136 43.2676 41.8016 44.5408C41.8452 44.6461 41.9584 44.7603 42.063 44.7954C44.1195 45.489 46.4374 44.1017 46.7598 42.2316C46.8034 41.9769 46.8208 41.7047 46.8034 41.4501C46.6988 40.335 46.4897 40.177 45.4092 40.335L45.0978 40.3806C44.3562 40.4894 43.6138 40.5983 42.8647 40.6599C42.5356 40.684 42.1983 40.6502 41.85 40.6152C41.691 40.5993 41.5297 40.5831 41.3659 40.5721ZM47.2217 48.8065C47.9188 47.3139 47.701 46.2427 46.5246 45.312C45.3046 46.2427 43.893 46.5851 42.3768 46.6378C42.2722 46.6378 42.0979 46.7871 42.0718 46.9012C41.8365 48.0163 42.1676 49.0085 42.7863 49.9216C42.8359 49.9937 42.9306 50.0308 43.0376 50.0727C43.1 50.0971 43.1665 50.1231 43.2307 50.1587C43.2006 50.179 43.1711 50.1992 43.142 50.2193L43.1419 50.2193C43.0701 50.2688 43.0001 50.3169 42.9258 50.3606C41.3398 51.3177 40.0589 52.5733 39.3008 54.2854C38.3074 56.5419 37.9501 58.8687 38.8476 61.2657C39.0092 61.6965 39.1578 62.1352 39.3061 62.5732L39.3062 62.5734L39.3062 62.5735L39.3063 62.5736L39.3063 62.5738L39.3064 62.5739L39.3064 62.5741L39.3064 62.5742L39.3065 62.5743L39.3065 62.5745L39.3066 62.5746L39.3066 62.5747L39.3067 62.5749L39.3067 62.575L39.3068 62.5751L39.3068 62.5753L39.3069 62.5754L39.3069 62.5756C39.4304 62.9401 39.5537 63.3041 39.6842 63.6627C40.1199 64.8743 40.1547 66.1211 39.8062 67.3328C38.7779 70.8712 39.7452 74.1199 41.1133 77.3247C41.2333 77.5926 41.4293 77.8349 41.6182 78.0685L41.6274 78.0798C41.8888 78.4047 42.2286 78.51 42.6382 78.3695C43.0477 78.2203 43.344 77.9481 43.3266 77.5179C43.3092 76.9647 43.2395 76.4116 43.1087 75.876C43.0085 75.4501 42.8865 75.0287 42.7645 74.6072C42.6425 74.1858 42.5206 73.7643 42.4203 73.3385C42.1415 72.1356 42.4988 71.1434 43.4747 70.3971C43.5164 70.3663 43.5571 70.3347 43.5975 70.3033L43.5976 70.3032L43.5977 70.3031L43.5978 70.3031L43.5979 70.303L43.598 70.3029L43.598 70.3029L43.5981 70.3029L43.5981 70.3028L43.5984 70.3026C43.6846 70.2357 43.7693 70.1698 43.8581 70.1161C45.3308 69.2645 46.237 67.9299 46.9864 66.446C47.1957 66.0243 47.4665 65.6315 47.7369 65.2393L47.737 65.2392C47.8606 65.0599 47.9842 64.8806 48.1018 64.6987L48.2064 64.7514C48.2587 64.9972 48.312 65.2431 48.3654 65.4889L48.3654 65.4891C48.5255 66.2266 48.6856 66.9641 48.8164 67.7016C49.4002 70.9064 51.2824 73.3209 53.4609 75.5687C53.6757 75.7938 53.9584 75.9592 54.2253 76.1153L54.2364 76.1218C54.6024 76.3413 54.9771 76.3413 55.3256 76.0516C55.6829 75.753 55.8136 75.3755 55.6568 74.954C55.4999 74.5501 55.2995 74.155 55.0555 73.795C54.8025 73.4268 54.5293 73.0737 54.2563 72.7209C54.0216 72.4176 53.787 72.1145 53.5654 71.8019C52.5285 70.3444 52.4849 69.3171 53.5044 67.8596C54.3148 66.6918 54.8725 65.4187 55.3692 64.0402C55.5079 64.1052 55.6441 64.1654 55.7775 64.2243L55.7777 64.2243L55.7778 64.2244L55.778 64.2245L55.778 64.2245L55.7782 64.2246C56.0051 64.3248 56.2239 64.4214 56.4323 64.5319C58.5759 65.7085 59.8917 67.5611 60.676 69.8352C60.9945 70.7422 61.269 71.6658 61.5432 72.5884L61.5432 72.5885L61.5434 72.5892C61.6142 72.8274 61.685 73.0656 61.7565 73.3034C62.0092 74.1463 62.4188 74.8926 62.9765 75.5599C63.1892 75.8128 63.4017 76.0658 63.6142 76.3187L63.6142 76.3187L63.6142 76.3187L63.6142 76.3187C64.611 77.5052 65.6061 78.6897 66.6189 79.8622C66.9064 80.1958 67.255 80.5119 67.6297 80.749C68.3094 81.1792 68.9716 81.0475 69.599 80.4417C70.0522 80.0027 70.1306 79.4583 69.721 78.7647C69.4861 78.3652 69.1831 78.0031 68.885 77.6469L68.885 77.6468L68.8849 77.6468L68.8849 77.6467L68.8844 77.6462C68.8289 77.5799 68.7736 77.5137 68.7189 77.4476C68.5447 77.2369 68.3442 77.0349 68.1351 76.8593C66.3662 75.3404 65.9305 73.3297 66.0089 71.1259C66.0216 70.7558 66.0664 70.3858 66.1101 70.0258L66.1101 70.0257C66.1265 69.8904 66.1427 69.7564 66.157 69.6244C66.4296 69.572 66.699 69.5195 66.9625 69.4682L66.9641 69.4679C67.4497 69.3733 67.9152 69.2826 68.3442 69.203C68.5067 69.5637 68.6588 69.9324 68.8111 70.3017C69.1407 71.1009 69.4717 71.9034 69.9127 72.6361C70.5615 73.7161 71.3301 74.7213 72.0984 75.7263L72.0988 75.7268L72.0989 75.7269L72.099 75.727C72.2799 75.9636 72.4608 76.2003 72.6402 76.4379C72.9452 76.8418 73.3547 77.1666 73.9124 77.0349C74.2087 76.9647 74.4353 76.1569 74.2871 75.5862C74.1477 75.0506 73.9821 74.5062 73.712 74.0321C72.5095 71.8985 72.0476 69.5542 71.7252 67.1748C71.5597 65.9631 70.8451 65.4187 69.6426 65.6558C67.3944 66.1036 65.1375 66.3231 62.8458 66.1211C62.6889 66.1036 62.5321 66.0685 62.3753 66.0334L62.3752 66.0333C60.7544 65.647 60.1096 64.1368 60.9461 62.6705C60.9723 62.6178 60.9984 62.5651 61.042 62.5212C61.821 61.7298 62.2433 60.7466 62.6673 59.7594C62.8171 59.4105 62.9672 59.061 63.1333 58.7194C63.4644 58.0521 64.0918 57.4902 64.6931 56.9985C65.4338 56.4014 66.34 56.1029 67.2724 55.901C67.4031 55.8746 67.5948 55.7517 67.621 55.6463C67.6471 55.5234 67.5426 55.2951 67.438 55.2424C67.3714 55.2108 67.3045 55.1783 67.2373 55.1456C66.8377 54.9512 66.4253 54.7507 66.0002 54.6981C65.3031 54.6103 64.5798 54.6278 63.874 54.6981C63.0897 54.7771 62.3926 54.5312 61.7391 54.2152C61.042 53.8815 60.3797 53.4249 59.7523 52.9684C58.0357 51.7128 56.3016 50.4923 54.3323 49.6582C52.2235 48.7539 50.0363 48.4553 47.7707 48.789C47.6051 48.7714 47.4221 48.7802 47.2217 48.8065ZM56.7801 47.1165C56.083 47.5555 55.3249 47.7487 54.5058 47.7487C53.7215 47.7224 52.9721 47.5643 52.336 47.0726C51.6302 46.537 51.36 45.7468 51.7696 44.9829C52.031 44.5022 52.3954 44.0808 52.7597 43.6593L52.7598 43.6592L52.76 43.659L52.7601 43.6589L52.7602 43.6588L52.7603 43.6586L52.7604 43.6585L52.7606 43.6583L52.7607 43.6582L52.7608 43.658L52.7609 43.6579L52.761 43.6578L52.7612 43.6576L52.7612 43.6576L52.7612 43.6576L52.7612 43.6576L52.7612 43.6576C52.8822 43.5177 53.0031 43.3778 53.1203 43.2357C53.1813 43.1654 53.3294 43.1391 53.434 43.1479C55.3249 43.3323 56.7888 44.6405 57.1287 46.2912C57.2158 46.6951 57.1025 46.9146 56.7801 47.1165ZM47.3171 24.5325C48.3105 25.2876 49.7047 27.0085 50.6545 28.6328L50.5565 28.7578L50.5565 28.7578L50.5565 28.7578L50.5563 28.758L50.5563 28.7581L50.5561 28.7583C50.3315 29.0445 50.1194 29.3149 49.9139 29.5987C49.7309 29.8533 49.513 29.9147 49.1993 29.8182C47.5872 29.3001 46.4806 28.1411 45.3129 26.8943C45.992 26.0961 46.6536 25.3154 47.3152 24.5347L47.3156 24.5342L47.3171 24.5325ZM60.911 29.9243C61.629 29.3011 62.5036 29.1922 63.3834 29.0826L63.3835 29.0826L63.3835 29.0826L63.3836 29.0826L63.3836 29.0826L63.3836 29.0826L63.3837 29.0826L63.3837 29.0826L63.3838 29.0826L63.3838 29.0826L63.3839 29.0825L63.3839 29.0825C63.5824 29.0578 63.781 29.0331 63.9783 29.0024C64.4314 28.9321 64.8845 28.8004 65.3202 28.66C65.4161 28.6248 65.5555 28.4492 65.5381 28.3614C65.4074 27.4922 65.1372 26.6756 64.414 26.1137C64.292 26.0171 64.0916 25.9556 63.9521 25.9732C62.889 26.14 61.9044 26.5088 61.0243 27.1322C60.9197 27.2112 60.8151 27.2902 60.7193 27.378C59.813 28.2209 59.874 29.178 60.911 29.9243ZM61.2512 44.3303C60.3711 42.7499 56.537 41.2397 55.5436 42.0914C55.5436 42.1177 55.5436 42.1616 55.561 42.1704C56.7461 43.2065 57.6001 44.5147 58.4279 45.8405C58.6283 46.1654 58.8288 46.183 59.1425 46.0776C59.8744 45.8317 60.711 45.1469 61.2512 44.3303ZM67.1061 61.3714C66.9753 62.0474 66.7052 62.2494 66.0081 62.267C65.8856 62.244 65.7631 62.2257 65.6413 62.2075C65.3903 62.1701 65.1419 62.1331 64.9014 62.0562C64.1172 61.8192 63.7773 61.266 63.9255 60.4494C63.9778 60.1509 64.091 59.8612 64.2217 59.589C64.6923 58.6319 65.4678 57.9559 66.3567 57.4115C66.6616 57.2271 67.0276 57.113 67.3762 57.0515C67.5373 57.0203 67.716 57.0645 67.8936 57.1085C67.9657 57.1264 68.0377 57.1442 68.1082 57.1569C68.0934 57.2213 68.0821 57.2892 68.0708 57.3575C68.0419 57.5311 68.0127 57.7069 67.9252 57.8329C67.4198 58.5617 67.2716 59.3783 67.228 60.2387C67.2106 60.6163 67.1758 61.0026 67.1061 61.3714ZM65.494 60.0895C65.1106 60.0895 64.7707 60.4319 64.7794 60.8182C64.7816 60.9178 64.8043 61.0124 64.8433 61.098C64.8049 61.0129 64.7826 60.9191 64.7804 60.8203C64.7804 60.434 65.1115 60.0916 65.4949 60.0916C65.7781 60.0916 66.0249 60.2609 66.1369 60.5071C66.0253 60.2598 65.7779 60.0895 65.494 60.0895ZM61.1726 32.3614C61.512 32.3898 61.8494 32.4178 62.185 32.4457L62.1851 32.4457L62.1853 32.4457L62.1854 32.4457L62.1854 32.4457L62.1855 32.4457C63.5125 32.5558 64.8129 32.6638 66.1133 32.7829C66.4968 32.818 66.6187 32.6688 66.6536 32.3088C66.7233 31.5361 66.4619 30.9303 65.8171 30.5088C64.7278 29.8064 62.7846 29.9293 61.7912 30.7722C61.2858 31.1937 61.068 31.7293 61.1726 32.3614ZM60.3886 22.2554C61.4343 22.8261 62.4276 23.4056 63.1248 24.3977C61.5214 25.346 59.9703 26.2679 58.4192 27.1986C58.1317 26.7421 58.0968 26.4348 58.306 25.7938C58.7035 24.5593 59.4562 23.5303 60.2192 22.4872L60.2196 22.4866L60.2202 22.4858C60.2763 22.4091 60.3325 22.3323 60.3886 22.2554ZM58.0185 40.4949C59.1054 40.8673 59.9787 41.5402 60.869 42.2261L60.869 42.2261C61.4062 42.64 61.9496 43.0586 62.5497 43.4188C62.6313 43.2893 62.7126 43.1609 62.7933 43.0333L62.7944 43.0316L62.795 43.0306L62.7952 43.0304C63.1191 42.5184 63.4353 42.0187 63.7348 41.5134C63.7784 41.4432 63.7522 41.2413 63.6825 41.1886C62.5497 40.293 61.3298 39.573 59.8397 39.5028C59.099 39.4852 58.4367 39.6784 58.0185 40.4949ZM66.3056 34.6652C66.2882 35.3845 66.2704 36.1212 65.809 36.7265C65.6279 36.6665 65.4487 36.6058 65.2708 36.5455C64.7981 36.3854 64.3343 36.2283 63.8658 36.0943C63.0379 35.8748 62.2101 35.6729 61.3736 35.4885C61.0599 35.4182 60.9902 35.2602 61.0337 34.9617C61.147 34.1363 61.7134 33.6271 62.672 33.5919C63.9006 33.5393 65.0334 33.9519 66.1401 34.4436C66.2185 34.4788 66.3057 34.5929 66.3057 34.6631L66.3056 34.6652ZM63.2278 61.3887C63.0418 61.6178 62.8753 61.8193 62.7201 62.0071L62.7197 62.0077C62.5479 62.2155 62.39 62.4067 62.2344 62.6003C62.181 62.667 62.1254 62.7321 62.0699 62.7971L62.0698 62.7972C61.9352 62.9547 61.8016 63.1112 61.7029 63.2852C61.3805 63.8471 61.5373 64.4617 62.1299 64.7164C62.6004 64.9183 63.1232 65.05 63.6287 65.1027C64.9793 65.252 66.3125 65.1203 67.6196 64.7252C67.5325 64.1105 67.2536 63.8296 66.6437 63.7681C66.3392 63.7407 66.0313 63.7304 65.7243 63.7201L65.7241 63.7201L65.7239 63.7201L65.7238 63.7201C65.5389 63.7139 65.3543 63.7078 65.171 63.6979C63.9859 63.6276 63.7942 63.4432 63.5589 62.2842C63.518 62.0899 63.4379 61.8996 63.3528 61.6973C63.311 61.5979 63.268 61.4957 63.2278 61.3887ZM64.3268 39.922C62.9326 39.1932 61.5122 38.5611 59.935 38.245C60.1616 37.1211 60.9023 36.6206 62.0699 36.7699C63.2463 36.9104 64.292 37.4021 65.2505 38.0781C65.3464 38.1484 65.4684 38.3064 65.4422 38.3767C65.2505 38.8684 65.0501 39.3688 64.7974 39.8342C64.7451 39.922 64.4401 39.9835 64.3268 39.922ZM68.1528 59.5286C68.1528 60.4417 68.3009 60.591 68.998 60.4593C69.2856 60.4066 69.5906 60.2837 69.8258 60.1081C70.7321 59.432 70.9848 57.7989 70.3574 56.8945C70.2092 56.6838 70.0785 56.596 69.8345 56.7716C68.8237 57.5179 68.1963 58.4574 68.1528 59.5286Z" fill="#20113D"/>
<defs>
<filter id="filter0_d" x="0.666748" y="0.500488" width="112" height="112" filterUnits="userSpaceOnUse" color-interpolation-filters="sRGB">
<feFlood flood-opacity="0" result="BackgroundImageFix"/>
<feColorMatrix in="SourceAlpha" type="matrix" values="0 0 0 0 0 0 0 0 0 0 0 0 0 0 0 0 0 0 127 0"/>
<feOffset dy="4"/>
<feGaussianBlur stdDeviation="2"/>
<feColorMatrix type="matrix" values="0 0 0 0 0 0 0 0 0 0 0 0 0 0 0 0 0 0 0.25 0"/>
<feBlend mode="normal" in2="BackgroundImageFix" result="effect1_dropShadow"/>
<feBlend mode="normal" in="SourceGraphic" in2="effect1_dropShadow" result="shape"/>
</filter>
</defs>
</svg>
