<svg width="113" height="113" viewBox="0 0 113 113" fill="none" xmlns="http://www.w3.org/2000/svg">
<g filter="url(#filter0_d)">
<circle cx="56.6667" cy="52.501" r="52" fill="#F58021"/>
</g>
<path fill-rule="evenodd" clip-rule="evenodd" d="M44.9816 60.2543C41.6975 61.2478 38.3878 61.095 35.0527 58.8786C34.7966 59.2008 34.5341 59.5252 34.269 59.8528C33.6118 60.6649 32.9381 61.4974 32.3032 62.3687C31.8322 63.0438 31.3931 63.7444 30.9539 64.445L30.9539 64.445C30.5147 65.1456 30.0756 65.8462 29.6046 66.5213C28.5608 68.0243 28.1789 69.6547 28.2807 71.4635C28.408 73.7818 27.4915 74.9536 25.2257 75.3613C20.5668 76.2019 16.3916 72.7373 16.3661 68.0243C16.3661 67.5641 16.3579 67.1039 16.3497 66.6453C16.3375 65.9616 16.3254 65.2815 16.3406 64.6106C16.3834 62.8115 17.164 61.2465 17.941 59.6886C18.0883 59.3934 18.2354 59.0984 18.3773 58.8022C18.7446 58.04 19.1154 57.279 19.4862 56.518C20.8629 53.6921 22.2402 50.8652 23.4436 47.9751C25.2126 43.7394 27.8699 40.0964 30.5367 36.4404C31.0939 35.6766 31.6514 34.9123 32.2014 34.1418C32.2278 34.1089 32.2558 34.0759 32.2843 34.0425L32.2844 34.0423L32.2845 34.0422L32.2845 34.0422L32.2845 34.0422L32.2845 34.0422C32.3659 33.9466 32.4503 33.8474 32.5069 33.7342C35.4855 28.308 40.781 27.0342 46.2291 25.9642C47.5727 25.7048 48.9053 25.3798 50.2371 25.055C51.7823 24.6782 53.3263 24.3017 54.8851 24.0281C57.7364 23.5185 60.6642 23.1109 63.5665 23.009C67.0034 22.8817 69.9057 24.4866 72.477 26.703C68.5818 24.7159 64.4066 24.0281 60.0786 24.13C58.9839 24.1554 57.8892 24.2573 56.7945 24.3847C55.216 24.563 54.5541 25.7349 54.1213 27.0851C53.0011 30.5243 53.2302 33.9126 54.4268 37.3263C54.7152 38.1464 54.895 39.0119 55.0741 39.874L55.0741 39.874L55.0741 39.8741L55.0741 39.8741L55.0741 39.8742C55.1954 40.458 55.3164 41.0404 55.4706 41.6062C55.6672 42.3112 55.8591 43.0185 56.0511 43.7261L56.0513 43.7267C56.7543 46.3177 57.4585 48.9131 58.3983 51.4143C58.7802 52.4587 60.0532 53.4778 61.1479 53.8854C65.4504 55.4394 69.8548 56.2801 74.4119 54.7261C80.1401 52.7645 83.0933 46.6503 80.9293 40.9693C80.2359 39.1696 79.4134 37.4253 78.5874 35.6735L78.5873 35.6734L78.5873 35.6733C78.4428 35.367 78.2983 35.0604 78.1543 34.7533C78.0224 34.4705 77.7512 34.2435 77.4849 34.0208L77.4849 34.0208C77.3913 33.9425 77.2984 33.8647 77.2123 33.7852C76.883 33.4726 76.5398 33.1684 76.1955 32.8634C75.5017 32.2485 74.8037 31.6301 74.2082 30.9319C73.368 29.9384 73.3935 28.6901 74.1318 27.6201C74.8446 26.5756 75.9903 26.3209 77.1868 26.5247C79.0453 26.8304 80.2419 27.9768 80.8529 29.6836C81.4384 31.3395 80.8784 32.7662 79.4272 34.0145C81.3366 35.594 81.9731 37.8613 82.5332 40.1031C82.7452 40.9519 82.8592 41.828 82.9734 42.7062V42.7062C83.1059 43.7257 83.2388 44.7478 83.526 45.7332C84.0057 47.365 84.5811 48.9746 85.1572 50.5858C85.6515 51.9682 86.1461 53.3517 86.5811 54.7516C87.1459 56.5437 87.6661 58.3508 88.1858 60.1567L88.186 60.1574C88.6267 61.6884 89.0671 63.2186 89.5343 64.738C89.7946 65.5847 90.1279 66.4107 90.4607 67.2358L90.4608 67.236L90.4609 67.2361L90.4609 67.2363L90.4611 67.2367C90.6489 67.7021 90.8365 68.1673 91.0109 68.6357C91.5688 70.1174 92.8323 70.7846 94.0845 71.4458C94.3179 71.5691 94.5508 71.6921 94.7788 71.8202C95.9499 72.4825 96.5609 73.3487 96.2554 74.7244C95.9753 76.0236 95.1352 76.8388 93.5822 76.7879C90.3999 76.6605 87.243 76.3548 84.0861 76.0236C83.5515 75.9727 82.9914 75.4122 82.6095 74.9537C80.471 72.3806 78.3579 69.7821 76.2703 67.1836C74.8192 65.3749 73.7499 63.3878 73.1898 61.1204C72.9518 60.1875 72.4664 59.3009 71.9867 58.4246C71.8507 58.1763 71.7152 57.9288 71.5859 57.6812C71.4586 57.4265 71.1022 57.1972 70.8222 57.1462L70.6211 57.1064C69.0082 56.7855 67.4038 56.4664 66.0105 57.885C65.6558 58.2653 65.0743 58.469 64.5668 58.6467L64.5593 58.6493C63.6683 58.955 63.261 59.5155 63.5919 60.3816C64.7664 63.5326 64.6777 66.7518 64.5888 69.9785V69.9786C64.5447 71.5782 64.5006 73.1795 64.6103 74.7753C64.6555 75.3867 64.741 75.9981 64.8265 76.6096C64.9334 77.3738 65.0402 78.1381 65.0685 78.9024C65.094 79.4883 64.8394 80.329 64.4321 80.6347C61.0461 83.1822 57.2527 83.6153 53.3575 82.2142C51.4227 81.5009 50.1243 80.0997 49.8188 77.705C49.2332 72.7373 48.444 67.795 47.4257 62.9037C47.0589 61.0689 46.1763 59.3167 45.3166 57.6099L45.3166 57.6097L45.3165 57.6096L45.3165 57.6095C45.2213 57.4206 45.1264 57.2322 45.0325 57.0444C42.5885 52.1785 41.9011 47.1344 42.7667 41.7335C43.4796 37.2499 44.447 32.97 47.4257 29.4289C48.04 28.7056 48.7698 28.085 49.4967 27.4669L49.4968 27.4668L49.4969 27.4667L49.4969 27.4667C49.7941 27.214 50.0908 26.9617 50.3789 26.703C50.4224 26.6656 50.469 26.6298 50.5161 26.5936C50.6615 26.4818 50.8111 26.3667 50.888 26.1935C46.9674 26.2444 43.4286 27.3399 39.9408 28.9703C36.6735 30.4697 34.8011 33.1437 32.9052 35.8513L32.9052 35.8513C32.4819 36.4559 32.0573 37.0622 31.6158 37.6575C31.4376 37.9122 31.4376 38.3453 31.4631 38.702C31.8369 42.2683 33.2111 45.5172 34.5824 48.7595L34.6709 48.9686C34.9436 49.5873 35.0865 50.271 35.2294 50.9547C35.2866 51.2281 35.3437 51.5016 35.4092 51.7709C35.5619 52.4588 35.7147 53.1721 35.7656 53.8854C35.776 54.0304 35.7872 54.1764 35.7986 54.3229C35.8709 55.2578 35.9451 56.2178 35.7911 57.1208C35.4855 58.7257 35.6128 59.2098 37.2677 59.4645C37.7928 59.5171 38.3223 59.5696 38.8541 59.6224L38.8668 59.6237L38.8748 59.6245L38.8807 59.625C40.9184 59.8273 42.9898 60.0328 44.9816 60.2543ZM57.2532 36.3358C55.7766 35.7243 55.1656 34.2722 54.9619 32.5654C54.7328 30.7057 56.4131 28.3874 58.3734 27.6995C59.9264 27.1646 62.1158 28.0307 62.9814 29.5593C63.4906 30.4764 63.6942 31.2152 62.5741 32.0049C61.3066 32.8927 60.1293 33.8965 58.859 34.9796C58.3431 35.4194 57.812 35.8723 57.2532 36.3358ZM62.0896 44.1539C61.6313 46.1665 62.9297 47.7715 64.5082 47.6441C64.6511 47.1883 64.7877 46.7418 64.9225 46.3015C65.1718 45.4868 65.4148 44.693 65.6793 43.8992C65.7493 43.7007 65.846 43.5076 65.9425 43.3149L65.9425 43.3148L65.9426 43.3148C66.0566 43.0871 66.1704 42.86 66.2393 42.6254C66.443 41.8866 66.6721 40.9185 65.7302 40.6893C65.0428 40.5364 63.9481 40.7657 63.5153 41.2497C62.8279 42.014 62.3187 43.1094 62.0896 44.1539ZM71.1772 41.3014C71.2909 41.1497 71.3956 40.9845 71.4986 40.8218C71.7417 40.4381 71.9756 40.0688 72.2974 39.9257C72.6284 39.7728 73.3412 40.0785 73.6977 40.3842C73.7762 40.4519 73.8551 40.5196 73.9342 40.5874L73.9342 40.5874C74.7777 41.3108 75.6383 42.0489 76.2435 42.9573C76.5745 43.4922 76.4472 44.4858 76.2181 45.1482C76.0398 45.6322 75.3779 46.1417 74.8688 46.2436C74.5378 46.2945 74.0032 45.6831 73.6722 45.2755C73.1121 44.5877 72.6284 43.8744 72.1447 43.1101C71.8982 42.7754 71.7126 42.3919 71.4953 41.9429L71.4952 41.9428C71.3983 41.7426 71.295 41.5292 71.1772 41.3014ZM72.5124 50.4548L72.5271 50.4458C72.5199 50.4023 72.5106 50.3568 72.501 50.3097C72.4768 50.1915 72.4508 50.0639 72.4508 49.9363C72.315 49.9024 72.1792 49.8571 72.0434 49.8118C71.7719 49.7212 71.5003 49.6306 71.2287 49.6306C70.1849 49.6306 69.1411 49.6561 68.1228 49.7835C67.7154 49.8344 67.2317 50.1147 67.0535 50.4204C66.9517 50.5987 67.2826 51.1591 67.5627 51.4139C67.7114 51.5627 67.9296 51.6159 68.1514 51.67C68.3092 51.7084 68.4689 51.7474 68.6065 51.8215C68.8866 51.9744 69.3957 52.2801 69.3703 52.4075C69.2684 52.7641 69.0138 53.1208 68.7083 53.3755C68.5604 53.5071 68.3489 53.5537 68.0873 53.6114C67.9437 53.643 67.7851 53.678 67.6136 53.7322C68.6018 53.6673 69.5178 53.6025 70.4338 53.5377C70.9574 53.5006 71.4809 53.4635 72.018 53.4265C71.7174 53.2928 71.373 53.2523 71.0414 53.2133C70.3618 53.1333 69.7358 53.0597 69.6503 52.2037C70.6885 51.5702 71.6008 51.0123 72.5124 50.4548Z" fill="#20113D"/>
<defs>
<filter id="filter0_d" x="0.666748" y="0.500977" width="112" height="112" filterUnits="userSpaceOnUse" color-interpolation-filters="sRGB">
<feFlood flood-opacity="0" result="BackgroundImageFix"/>
<feColorMatrix in="SourceAlpha" type="matrix" values="0 0 0 0 0 0 0 0 0 0 0 0 0 0 0 0 0 0 127 0"/>
<feOffset dy="4"/>
<feGaussianBlur stdDeviation="2"/>
<feColorMatrix type="matrix" values="0 0 0 0 0 0 0 0 0 0 0 0 0 0 0 0 0 0 0.25 0"/>
<feBlend mode="normal" in2="BackgroundImageFix" result="effect1_dropShadow"/>
<feBlend mode="normal" in="SourceGraphic" in2="effect1_dropShadow" result="shape"/>
</filter>
</defs>
</svg>
