<svg width="42" height="60" viewBox="0 0 42 60" fill="none" xmlns="http://www.w3.org/2000/svg">
<path d="M20.8375 3.56836C11.479 3.56836 3.90723 10.7539 3.90723 19.6085C3.90723 28.463 20.8375 53.8386 20.8375 53.8386C20.8375 53.8386 37.7677 28.463 37.7677 19.6085C37.7677 10.7539 30.1959 3.56836 20.8375 3.56836Z" fill="#F58021"/>
<path d="M16.8265 26.1187C16.9206 26.3237 17.0653 26.2262 17.2166 26.2229C17.4588 26.2162 17.6068 26.0549 17.8254 25.9608C17.6337 25.9037 17.4723 25.8533 17.3007 25.7996C17.2469 25.9105 17.1897 26.0314 17.1292 26.1557C17.1124 26.1557 17.0922 26.1557 17.0754 26.1557C17.0552 26.065 17.0283 25.9743 17.0215 25.8836C17.0148 25.7761 16.9778 25.7223 16.8635 25.719C16.7996 25.7156 16.7356 25.6753 16.6482 25.6417C16.5843 25.8097 16.5103 25.9978 16.4228 26.2296C16.2748 25.9743 16.3018 25.7358 16.3152 25.504C16.1201 25.3931 16.1201 25.3931 15.999 25.7593C15.9755 25.7022 15.9351 25.6451 15.9318 25.5879C15.9183 25.4468 15.8611 25.3595 15.7098 25.3192C15.5887 25.2822 15.5483 25.2957 15.545 25.4267C15.5416 25.5812 15.5248 25.7391 15.4979 25.8937C15.4878 25.9642 15.4441 26.0314 15.4171 26.1019C15.4003 26.1019 15.3835 26.1019 15.3701 26.1019C15.3499 26.0381 15.3263 25.9743 15.3062 25.9105C15.249 25.719 15.1985 25.5241 15.138 25.3326C15.1144 25.2554 15.0774 25.2117 14.9765 25.2453C14.9093 25.2688 14.8285 25.2486 14.7175 25.2486C14.6906 25.3293 14.6503 25.4401 14.6099 25.551C14.5931 25.5544 14.5729 25.5577 14.5561 25.5611C14.5225 25.4636 14.4922 25.3662 14.4518 25.2688C14.4283 25.2117 14.3946 25.1613 14.3644 25.1075C14.3274 25.1613 14.2937 25.2184 14.2567 25.2722C14.2433 25.2957 14.2298 25.3192 14.1962 25.383C14.1289 25.252 14.0785 25.1479 14.0213 25.037C13.5638 25.0202 13.7152 25.4267 13.6109 25.6551C13.5941 25.6585 13.5773 25.6619 13.5571 25.6652C13.5201 25.5611 13.4663 25.4636 13.4529 25.3561C13.436 25.2285 13.4629 25.1008 13.4596 24.9698C13.4596 24.9261 13.4293 24.8858 13.4125 24.8421C13.3654 24.8657 13.2948 24.8757 13.278 24.9093C13.2376 25.0101 13.2174 25.121 13.1535 25.2386C13.13 25.1445 13.0963 25.0504 13.0896 24.9564C13.0694 24.6675 13.0526 24.3819 13.0425 24.093C13.0291 23.7839 13.1367 23.6361 13.4327 23.5252C13.5437 23.4816 13.6446 23.4043 13.7589 23.3606C13.8531 23.3237 13.9708 23.2766 14.0617 23.3002C14.3038 23.3573 14.5426 23.4345 14.7714 23.532C14.9597 23.6126 15.1413 23.6596 15.3499 23.663C15.545 23.6663 15.74 23.7369 15.9284 23.8041C16.0663 23.8545 16.1807 23.8914 16.3253 23.8142C16.3993 23.7772 16.5271 23.7906 16.6112 23.8276C16.813 23.9116 17.0115 23.8948 17.22 23.8645C17.5463 23.8209 17.8725 23.8041 18.2021 23.7671C18.2997 23.757 18.4006 23.7335 18.488 23.6932C18.6327 23.626 18.7739 23.5454 18.9085 23.4581C18.9926 23.4009 19.0598 23.3136 19.1406 23.2498C19.3289 23.0952 19.5408 23.0784 19.7729 23.1423C19.8536 23.1658 19.9512 23.1288 20.042 23.1221C20.0958 23.1187 20.153 23.112 20.2068 23.1087C20.375 23.0952 20.5432 23.0818 20.7147 23.0717C20.8593 23.0616 21.0073 23.0247 21.1419 23.0549C21.4345 23.1221 21.6363 22.9575 21.8415 22.813C21.8818 22.7862 21.8919 22.6249 21.8516 22.5846C21.6498 22.3797 21.6666 22.1579 21.7439 21.9161C21.8314 21.6406 21.9827 21.4222 22.2619 21.3181C22.5007 21.2274 22.5747 21.0896 22.5175 20.8444C22.5108 20.8209 22.494 20.7974 22.4738 20.7806C22.3695 20.6865 22.2686 20.5857 22.1543 20.5051C22.1139 20.4782 22.0366 20.4849 21.9827 20.5051C21.9491 20.5152 21.9054 20.579 21.9121 20.6126C21.9525 20.8578 21.7574 21.0124 21.6834 21.2173C21.6094 21.0594 21.4984 20.9116 21.5388 20.7302C21.5657 20.6059 21.5085 20.5387 21.4076 20.5286C21.3437 20.5219 21.2663 20.579 21.2058 20.6193C21.1419 20.663 21.078 20.7134 21.0275 20.7738C20.977 20.8343 20.94 20.9082 20.8829 20.9989C20.8055 20.8478 20.8627 20.7033 20.8761 20.5689C20.8862 20.4782 20.9468 20.3909 20.9636 20.3002C20.9737 20.2431 20.9602 20.1691 20.9266 20.1221C20.9098 20.0986 20.8257 20.1154 20.7752 20.1288C20.6676 20.1591 20.5633 20.196 20.4456 20.2363C20.3817 20.0381 20.523 19.9172 20.6373 19.7996C20.7551 19.6787 20.8997 19.5812 21.0679 19.4469C21.004 19.4133 20.9535 19.3897 20.8694 19.3461C21.041 19.299 21.1519 19.252 21.2697 19.2419C21.4278 19.2319 21.4648 19.1277 21.4849 19.0135C21.5657 18.5196 21.7742 18.0863 22.0668 17.6899C22.1711 17.5488 22.3191 17.4413 22.4402 17.3136C22.4974 17.2565 22.5646 17.1893 22.5848 17.1188C22.7328 16.5644 23.1196 16.2319 23.6073 15.9833C23.6208 15.9765 23.6376 15.9698 23.6443 15.9665C23.5972 15.5331 23.5535 15.1031 23.5064 14.6664C23.2272 14.5185 23.0961 14.2162 22.9077 13.9609C22.8909 13.9373 22.8741 13.9071 22.8505 13.8937C22.6151 13.7459 22.3426 13.6316 22.1476 13.4435C21.9592 13.2621 21.7338 13.205 21.5152 13.1109C21.3302 13.0303 21.1452 12.9497 20.967 12.8556C20.8896 12.8153 20.8291 12.7414 20.745 12.6675C20.6306 12.6339 20.4826 12.6003 20.3447 12.5465C20.0857 12.4458 19.8402 12.3181 19.5778 12.2341C19.3794 12.1703 19.1607 12.1636 18.9556 12.1165C18.8715 12.0964 18.7941 12.046 18.7168 12.0057C18.6899 11.9922 18.6629 11.9687 18.636 11.9687C18.3535 11.9586 18.0474 12.0124 17.7884 11.9284C17.4521 11.8175 17.0955 11.9217 16.7827 11.7739C16.4027 11.5924 16.0091 11.6932 15.6223 11.6664C15.5786 11.663 15.5281 11.6798 15.4878 11.6664C15.0303 11.5085 14.5998 11.7067 14.1558 11.7503C14.0415 11.7604 13.9237 11.7537 13.806 11.7571C13.7623 11.7571 13.7186 11.7638 13.6748 11.7705C13.3082 11.8343 12.9382 11.8982 12.575 11.9687C12.4573 11.9922 12.3395 12.0359 12.2252 12.0762C11.9494 12.1703 11.6601 12.224 11.391 12.355C10.9336 12.5801 10.4358 12.7246 9.99179 12.9833C9.70253 13.1512 9.39309 13.2823 9.08364 13.4133C8.99955 13.4502 8.88856 13.4234 8.79102 13.4234C8.82801 13.336 8.8482 13.2285 8.9121 13.168C8.98946 13.0908 9.10719 13.0505 9.20136 12.9866C9.24509 12.9564 9.29554 12.9127 9.31236 12.8657C9.35945 12.738 9.43345 12.6574 9.57808 12.644C9.62517 12.6406 9.67898 12.5936 9.70589 12.5533C9.79334 12.4088 9.89425 12.3013 10.0422 12.3248C10.1364 12.2408 10.2138 12.177 10.2878 12.1098C10.3248 12.0762 10.3551 12.0393 10.3887 12.0023C10.4089 11.9788 10.4223 11.9351 10.4492 11.925C10.6712 11.8243 10.8932 11.7302 11.1152 11.6294C11.1623 11.6059 11.2127 11.579 11.2531 11.5488C11.4381 11.411 11.6668 11.3405 11.8182 11.1389C11.8585 11.0818 12.0166 11.102 12.1209 11.1053C12.2252 11.1053 12.2857 11.0717 12.3563 10.9877C12.427 10.9038 12.5481 10.8366 12.6557 10.8131C12.8071 10.7828 12.9618 10.8399 13.0829 10.6585C13.1333 10.5813 13.3183 10.598 13.4428 10.5611C13.5067 10.5443 13.6042 10.5241 13.6244 10.4771C13.7152 10.2823 13.8767 10.3091 14.0381 10.3024C14.1356 10.2991 14.2366 10.2655 14.3341 10.2453C14.4518 10.2218 14.5729 10.168 14.6873 10.1748C14.8016 10.1848 14.8823 10.1748 14.953 10.0841C14.9698 10.0639 14.9967 10.037 15.0203 10.037C15.3028 10.0269 15.5382 9.77498 15.8477 9.87577C15.8813 9.88584 15.9284 9.85561 15.9654 9.84217C16.2244 9.74811 16.48 9.64732 16.739 9.56334C16.8096 9.53982 16.9005 9.54654 16.9711 9.57006C17.1494 9.62717 17.294 9.57006 17.4554 9.49951C17.5463 9.45919 17.664 9.47599 17.7682 9.46927C17.8692 9.46255 17.9701 9.46255 18.071 9.45583C18.0911 9.45583 18.1147 9.43232 18.1349 9.43568C18.4948 9.5331 18.8849 9.25427 19.2347 9.52974C19.2751 9.56334 19.376 9.54654 19.4366 9.51966C19.5778 9.45919 19.6989 9.41216 19.8402 9.5331C19.8805 9.5667 19.9747 9.53646 20.0454 9.53982C20.1496 9.54654 20.2505 9.55326 20.3548 9.5667C20.4893 9.58349 20.6239 9.62717 20.7584 9.62381C20.9098 9.62045 21.0376 9.63389 21.1587 9.74139C21.2293 9.80186 21.3504 9.82537 21.4513 9.82873C21.6228 9.83209 21.7843 9.82202 21.9087 9.97319C21.9222 9.98999 21.9592 9.99335 21.9861 9.98999C22.013 9.98999 22.0534 9.96311 22.0668 9.97319C22.2316 10.1109 22.4469 10.0773 22.6319 10.1479C22.753 10.1949 22.8573 10.2789 22.9716 10.3394C23.0019 10.3562 23.049 10.3528 23.0826 10.3394C23.2306 10.289 23.3214 10.3562 23.3786 10.4838C23.4324 10.6048 23.5098 10.6619 23.6477 10.6652C23.715 10.6686 23.8226 10.7123 23.8428 10.766C23.8999 10.9105 23.9975 10.9374 24.132 10.9374C24.1724 10.9374 24.2161 10.9642 24.2565 10.9844C24.8215 11.2901 25.3866 11.5992 25.9551 11.8982C26.5739 12.224 27.0448 12.7145 27.5023 13.2251C27.7613 13.5174 28.0102 13.8164 28.2961 14.0952C28.2389 13.9945 28.1683 13.9004 28.1245 13.7929C28.0909 13.7156 28.0539 13.6014 28.0875 13.5443C28.2153 13.3259 28.3566 13.1109 28.5181 12.9161C28.6089 12.8086 28.7468 12.7884 28.8847 12.8858C28.9351 12.9228 29.0091 12.9329 29.0764 12.943C29.2177 12.9665 29.3488 12.9799 29.406 13.1512C29.4228 13.2016 29.5473 13.2251 29.6247 13.2419C29.85 13.2856 29.9206 13.3226 29.9879 13.4603C29.7222 13.5779 29.7357 13.5812 29.9341 13.8231C30.3074 14.2767 30.5496 14.7839 30.4487 15.3954C30.442 15.4424 30.4689 15.5029 30.4924 15.5499C30.6573 15.8556 30.6539 16.1613 30.479 16.4603C30.3411 16.6955 30.2267 16.9541 29.9206 17.0381C30.4689 18.5331 30.4655 20.018 29.9341 21.5163C30.3276 21.5835 30.627 21.7884 30.8826 22.0672C30.8893 22.074 30.8994 22.084 30.9062 22.0908C31.1113 22.3965 31.33 22.6854 31.5822 22.9575C31.7067 23.0919 31.747 23.3338 31.7706 23.532C31.8009 23.8074 31.7807 24.0896 31.7773 24.3718C31.7739 24.6171 31.8648 24.7514 32.0868 24.8388C32.2146 24.8892 32.339 24.953 32.4567 25.0236C32.5206 25.0639 32.5677 25.1378 32.6216 25.1949C32.6115 25.205 32.6047 25.2184 32.5946 25.2285C32.5274 25.215 32.4635 25.205 32.376 25.1882C32.3895 25.2251 32.3895 25.252 32.4029 25.2587C32.5476 25.3662 32.6922 25.4737 32.8435 25.5745C33.0487 25.7156 32.9983 25.944 33.0521 26.149C32.8772 25.9944 32.5946 26.1355 32.4601 25.9004C32.4433 25.8701 32.3323 25.897 32.3054 25.897C32.2852 26.196 32.2684 26.4748 32.2516 26.7503C32.2381 26.757 32.2213 26.7604 32.2078 26.7671C32.1002 26.6395 31.9926 26.5118 31.8816 26.3875C31.8479 26.3505 31.7739 26.3002 31.7639 26.3102C31.7168 26.3472 31.6562 26.411 31.6629 26.4547C31.6798 26.5689 31.6293 26.6126 31.5385 26.6596C31.4847 26.6865 31.4477 26.7503 31.404 26.8007C31.3636 26.8477 31.3266 26.9015 31.2896 26.9519C31.2728 26.9485 31.256 26.9452 31.2391 26.9418C31.2324 26.8578 31.219 26.7738 31.2156 26.6898C31.2089 26.5689 31.2156 26.448 31.2089 26.327C31.1988 26.1926 31.1181 26.1591 31.0071 26.2363C30.9802 26.2565 30.9532 26.2834 30.923 26.2867C30.7346 26.3203 30.7313 26.3203 30.6673 26.5118C30.6337 26.4513 30.6068 26.4177 30.5933 26.3741C30.5395 26.1759 30.6404 25.9004 30.8153 25.7929C31.0003 25.682 31.0272 25.3595 30.9331 25.2083C30.8254 25.037 30.7111 24.8724 30.6068 24.701C30.5194 24.5566 30.479 24.4121 30.5362 24.2374C30.5967 24.0493 30.4924 23.9049 30.3007 23.8545C29.998 23.7772 29.6987 23.6966 29.3825 23.6092C29.258 23.7873 29.1235 23.9855 28.9822 24.1803C28.6223 24.6742 28.175 25.0471 27.5628 25.1915C27.4855 25.2083 27.4148 25.2688 27.3476 25.3125C27.2399 25.383 27.139 25.4704 26.9944 25.4133C26.9708 25.4032 26.9204 25.4301 26.9002 25.4569C26.056 26.579 24.9931 27.4256 23.6645 27.8993C23.1062 28.0975 22.531 28.2419 21.9525 28.3729C21.7507 28.4166 21.5219 28.3561 21.31 28.3192C21.2226 28.3024 21.1587 28.2856 21.0813 28.3461C20.4052 28.8601 19.6619 28.9608 18.8547 28.7324C18.3501 28.5913 17.8456 28.5644 17.331 28.7122C17.1763 28.7559 16.998 28.7156 16.8332 28.7156C16.5137 28.7122 16.1975 28.7089 15.878 28.7089C15.851 28.7089 15.8208 28.7156 15.7972 28.729C15.4037 28.9642 14.9765 28.8164 14.5628 28.8332C14.0986 28.8533 13.7354 28.6014 13.4058 28.3024C13.2813 28.1882 13.2981 28.0269 13.4428 27.8757C13.4764 27.8388 13.4999 27.7817 13.5067 27.7313C13.5302 27.57 13.5437 27.4054 13.5605 27.2408C13.584 27.2374 13.6076 27.2341 13.6278 27.2307C13.6513 27.3013 13.6681 27.3785 13.7018 27.4457C13.7388 27.5163 13.7926 27.6339 13.843 27.6372C13.9406 27.6406 14.0684 27.6103 14.0684 27.4524C14.0684 27.392 14.1087 27.3315 14.1726 27.261C14.2063 27.3349 14.2366 27.4088 14.2702 27.4894C14.4115 27.3819 14.5628 27.2878 14.6839 27.1635C14.7411 27.1031 14.7377 26.9855 14.7613 26.8948C14.7983 26.7604 14.8016 26.6092 14.9698 26.495C14.9866 26.7335 15.0001 26.9452 15.0169 27.1535C15.0404 27.1602 15.0606 27.1669 15.0842 27.1702C15.1346 27.0762 15.1817 26.9788 15.249 26.8511C15.2927 26.9552 15.323 27.0292 15.3566 27.1064C15.4171 27.1064 15.4743 27.1064 15.5315 27.1064C15.5685 26.9989 15.6021 26.8981 15.6526 26.7436C15.6997 26.8377 15.7131 26.8948 15.7468 26.9317C15.7838 26.972 15.841 27.0191 15.8914 27.0191C15.9755 27.0224 16.0394 26.9788 16.036 26.8746C16.0327 26.8074 16.0495 26.7369 16.0562 26.6428C16.1504 26.6999 16.2143 26.7402 16.2816 26.7839C16.3186 26.7167 16.3556 26.6529 16.3993 26.5756C16.702 26.7335 16.5204 26.4177 16.5742 26.3539C16.6818 26.3606 16.7659 26.3673 16.8466 26.3707C16.813 26.3002 16.8197 26.2094 16.8265 26.1187ZM22.8303 19.2587C22.8169 19.2554 22.8034 19.252 22.7933 19.2453C22.5983 19.383 22.4032 19.5241 22.1879 19.6753C22.235 19.8097 22.272 19.9575 22.3426 20.0885C22.42 20.2363 22.5276 20.3673 22.4704 20.5521C22.4604 20.5891 22.4839 20.6395 22.494 20.6831C22.605 20.2027 22.716 19.7324 22.8303 19.2587Z" fill="#20113D"/>
</svg>
