<svg width="42" height="60" viewBox="0 0 42 60" fill="none" xmlns="http://www.w3.org/2000/svg">
<path d="M20.8375 3.56836C11.479 3.56836 3.90723 10.7539 3.90723 19.6085C3.90723 28.463 20.8375 53.8386 20.8375 53.8386C20.8375 53.8386 37.7677 28.463 37.7677 19.6085C37.7677 10.7539 30.1959 3.56836 20.8375 3.56836Z" fill="#F58021"/>
<path fill-rule="evenodd" clip-rule="evenodd" d="M24.3842 18.4962C24.9114 17.8579 25.2137 17.1525 25.2267 16.334C25.2284 16.2449 25.292 16.1571 25.3553 16.0696C25.3853 16.0281 25.4153 15.9867 25.4386 15.9453C25.5617 15.7235 25.6928 15.5047 25.824 15.2857C26.1222 14.7878 26.4209 14.2892 26.6272 13.7547C27.0769 12.5886 26.8055 11.873 25.8288 11.1291C25.8908 10.3491 26.2009 9.8137 27.064 9.65926C27.4724 9.58672 27.8687 9.44609 28.3015 9.29253L28.3015 9.29252C28.4984 9.22265 28.7028 9.15011 28.9193 9.08008C28.2707 11.0287 27.6557 12.8743 27.0123 14.8049L27.1624 14.7731L27.1641 14.7727L27.1643 14.7726C28.0012 14.5949 28.7669 14.4322 29.5395 14.2695C29.7359 14.617 29.5835 14.7998 29.2863 14.9671L29.1089 15.0663L29.1089 15.0663C28.3483 15.4913 27.5857 15.9175 26.8521 16.388C26.6066 16.545 26.3947 16.8282 26.2836 17.0985C26.101 17.5467 25.9526 18.0088 25.8003 18.483C25.7349 18.6869 25.6687 18.893 25.5988 19.1012L24.3842 18.4962ZM26.6299 18.3936C27.3871 18.9547 27.7049 20.162 27.3586 21.0835C27.0563 21.8841 26.356 22.2651 25.312 22.1466C25.0118 22.112 24.7163 22.0456 24.421 21.9792L24.421 21.9792L24.4209 21.9792L24.4209 21.9792L24.4208 21.9792C24.2333 21.937 24.0458 21.8949 23.8572 21.8609C22.7822 21.6627 21.8622 21.812 21.2369 22.2908C21.3816 22.3088 21.5056 22.3243 21.6943 22.3474C21.5327 22.6503 21.4506 22.9786 21.3709 23.2967C21.2557 23.7572 21.1457 24.1965 20.8079 24.5071C21.0004 24.6412 21.206 24.7732 21.4163 24.9082C21.9003 25.2189 22.4092 25.5456 22.8416 25.9512C23.8468 26.8933 23.7848 28.3014 22.7977 29.3439L21.9086 29.0318C20.7804 28.636 19.6473 28.2385 18.5158 27.8329C18.3283 27.7653 18.1494 27.6731 17.9705 27.5809C17.8907 27.5397 17.8108 27.4986 17.7302 27.4597C16.5596 26.9011 15.9524 25.9641 15.849 24.6847C15.7172 23.0656 16.0351 21.5057 16.4098 19.9612C16.4353 19.9563 16.4564 19.9499 16.4739 19.9446C16.5026 19.9359 16.522 19.9301 16.5364 19.938C19.074 21.2406 21.41 20.6511 23.6194 19.1426C23.9941 18.8878 24.2784 18.8749 24.6376 19.0628C24.8495 19.1735 25.0639 19.2791 25.281 19.3769C25.9038 19.6575 26.1854 19.5468 26.4361 18.9187C26.4777 18.8134 26.5164 18.7062 26.5558 18.5969C26.5799 18.5299 26.6044 18.4621 26.6299 18.3936ZM24.0236 23.879L24.0236 23.8788C24.1897 23.3776 24.3625 22.8559 24.5472 22.2975C24.3546 22.2913 24.168 22.2847 23.9859 22.2782C23.4078 22.2578 22.8748 22.2389 22.3403 22.2408C22.2266 22.2408 22.0535 22.3798 22.0121 22.4931C21.8442 22.9626 21.6932 23.4378 21.5476 23.8957L21.5476 23.8959L21.5474 23.8965C21.4959 24.0584 21.4451 24.2182 21.3945 24.3748L21.9042 24.7455L21.9052 24.7463C22.3994 25.1059 22.8805 25.4559 23.3817 25.8189C23.5915 25.1831 23.8013 24.5498 24.0232 23.8802L24.0236 23.879ZM18.8593 31.544C19.1849 30.5813 19.4872 29.6881 19.8076 28.7434C20.6061 28.9931 21.3607 29.2299 22.1669 29.4847C22.1233 29.6189 22.0806 29.751 22.0386 29.8814L22.0385 29.8814C21.8789 30.376 21.7274 30.8453 21.5597 31.3098C21.5235 31.4076 21.3762 31.5312 21.278 31.5337C20.6826 31.5475 20.0843 31.5462 19.4516 31.5449H19.4514H19.4505C19.2569 31.5445 19.0601 31.544 18.8593 31.544ZM14.9858 14.6815C15.091 14.8547 15.2001 15.0221 15.3079 15.1873C15.5445 15.5501 15.7743 15.9024 15.9394 16.2826C16.2443 16.9905 16.3761 17.7885 15.7766 18.396C15.1616 19.0164 14.3967 18.7409 13.7145 18.4423C13.3139 18.2673 12.9211 18.0279 12.5904 17.7422C11.3319 16.6482 11.456 14.9776 12.854 14.0612C13.7739 13.4588 14.7843 13.3661 15.8024 13.7291C16.2443 13.8861 16.4924 13.7703 16.8386 13.5103C17.4201 13.0753 18.0454 12.6608 18.7121 12.3803C19.9318 11.8654 21.1231 12.0225 22.2084 12.8101C22.4487 12.9852 22.6916 13.1551 23.0017 13.2477C22.7898 12.9929 22.5779 12.7406 22.3376 12.4549C23.149 11.7187 24.0406 11.2863 25.1388 11.469C25.9166 11.5977 26.3352 12.1177 26.3171 12.9002C26.2965 13.8449 25.821 14.6017 25.3016 15.3585C24.2964 14.3701 24.0044 13.2091 24.5109 12.3365C24.0199 12.4395 23.7666 12.7406 23.8726 13.2786C23.9759 13.8063 24.1465 14.3366 24.3791 14.8205C25.0354 16.1925 24.8313 17.544 23.6555 18.5093C22.0611 19.8221 20.2135 20.1902 18.2134 19.6856C17.8284 19.5878 17.4614 19.3639 17.1281 19.1348C16.7327 18.8645 16.5492 18.5118 16.6113 17.9635C16.6733 17.3895 16.5906 16.7717 16.4433 16.2054C16.2469 15.4641 15.7197 14.9621 14.9858 14.6815ZM20.676 16.5606C20.6971 16.4763 20.7237 16.4004 20.7553 16.3332C20.9643 15.8863 21.3898 15.8262 21.8212 16.2156C22.3845 16.7253 22.6016 17.3972 22.63 18.1514C22.6259 18.2005 22.6226 18.2508 22.6193 18.3018C22.5938 18.6944 22.5661 19.1215 22.1132 19.2583C21.7642 19.3648 21.5223 19.1963 21.3254 18.9611C21.237 18.856 21.1577 18.7374 21.0819 18.624L21.0819 18.624L21.0688 18.6045C20.6528 17.9816 20.4952 17.2943 20.676 16.5606ZM19.9835 16.782C19.907 16.7224 19.8385 16.6596 19.7775 16.6035C19.6591 16.4948 19.5685 16.4115 19.5003 16.4268C19.3956 16.4502 19.3098 16.5539 19.2236 16.6582C19.1864 16.7032 19.149 16.7483 19.1101 16.7872C19.1481 16.8218 19.1853 16.864 19.2226 16.9062C19.307 17.0018 19.3916 17.0974 19.4848 17.1064C19.567 17.1149 19.6583 17.0397 19.7775 16.9416L19.7775 16.9416C19.8381 16.8917 19.906 16.8358 19.9835 16.782ZM23.1281 15.9451C23.016 16.0277 22.9327 16.089 22.862 16.0956L22.8265 15.4638C22.9149 15.4621 23.0044 15.5261 23.1325 15.6177C23.1992 15.6654 23.2763 15.7206 23.3692 15.7779C23.2756 15.8364 23.1965 15.8947 23.1281 15.9451ZM22.862 16.0956L22.819 15.4643C22.7044 15.4719 22.5006 15.6735 22.5159 15.7498C22.5444 15.8862 22.6994 16.0716 22.826 16.0947C22.8377 16.0967 22.8497 16.0969 22.862 16.0956Z" fill="#20113D"/>
</svg>
