<svg width="42" height="60" viewBox="0 0 42 60" fill="none" xmlns="http://www.w3.org/2000/svg">
<path d="M20.8375 3.56836C11.479 3.56836 3.90723 10.7539 3.90723 19.6085C3.90723 28.463 20.8375 53.8386 20.8375 53.8386C20.8375 53.8386 37.7677 28.463 37.7677 19.6085C37.7677 10.7539 30.1959 3.56836 20.8375 3.56836Z" fill="#F58021"/>
<path d="M16.8095 28.564C18.1793 28.2426 19.0454 27.3404 19.9228 26.3818C19.8039 26.3479 19.7134 26.3197 19.6228 26.2972C18.4171 25.9927 17.3076 25.4739 16.2887 24.7691C15.6603 24.3349 15.1452 23.7879 14.7546 23.1225C14.7037 23.038 14.6641 22.9477 14.6244 22.8575C14.6131 22.835 14.6131 22.8068 14.6018 22.7278C14.9867 22.8462 15.349 22.959 15.7056 23.0718C15.717 23.0605 15.7226 23.0549 15.7339 23.0436C15.6943 23.0098 15.6603 22.9759 15.6207 22.9477C15.1566 22.6489 14.7037 22.3388 14.2339 22.0568C13.6961 21.7298 13.13 21.4478 12.6093 21.1095C11.913 20.6528 11.4205 20.0099 11.0639 19.2656C11.0469 19.2318 11.0413 19.1979 11.0356 19.1641C11.0299 19.1472 11.0356 19.1246 11.0356 19.0739C11.613 19.322 12.1507 19.6716 12.8187 19.6096C11.5054 18.8596 10.6903 17.8108 10.7469 16.2319C11.3073 16.8466 11.8564 17.4556 12.4055 18.0645C12.4168 18.0533 12.4338 18.0364 12.4451 18.0251C12.2187 17.5853 11.9526 17.1567 11.7828 16.6943C11.613 16.2319 11.4998 15.7301 11.4432 15.2395C11.3866 14.7489 11.4318 14.2471 11.4318 13.7509C11.4602 13.7452 11.4885 13.7452 11.5111 13.7396C11.7771 14.3373 12.0432 14.935 12.3092 15.5384C12.3376 15.5384 12.3659 15.5327 12.3942 15.5327C12.3828 14.4444 12.5017 13.3787 13.0055 12.4032C13.0281 12.4032 13.0508 12.4032 13.0734 12.4088C13.0734 12.6513 13.0848 12.8881 13.0734 13.1306C13.0112 14.3204 13.4697 15.3354 14.1546 16.2601C14.6131 16.8748 15.1792 17.3879 15.7905 17.8503C16.5944 18.4593 17.4944 18.9047 18.3944 19.3446C19.2322 19.7505 19.9681 20.3031 20.6587 20.9234C21.0776 21.3012 21.5135 21.6565 21.9437 22.023C22.0625 22.1245 22.1814 22.2373 22.3173 22.3613C22.538 21.8538 22.7418 21.3802 22.9456 20.9009C23.4381 19.7618 24.1796 18.8032 25.0966 17.9743C25.8269 17.3146 26.5684 16.6774 27.2986 16.0233C28.2892 15.1324 28.9063 14.0272 29.1044 12.7077C29.178 12.2397 29.144 11.7491 29.161 11.2755C29.161 11.1965 29.161 11.1119 29.1893 11.0273C29.5459 11.8393 29.6478 12.6964 29.7327 13.5874C30.0837 12.8769 30.429 12.1664 30.7799 11.4503C30.8082 11.4559 30.8365 11.4615 30.8592 11.4672C30.8195 12.1946 30.8139 12.922 30.729 13.6437C30.6441 14.3599 30.4799 15.0647 30.3497 15.747C30.5252 15.4763 30.729 15.1662 30.9667 14.811C30.9837 15.5045 30.9611 16.1304 30.6667 16.7225C30.378 17.309 29.9138 17.7488 29.4101 18.183C29.6874 18.2394 29.9082 18.1435 30.1233 18.0364C30.3327 17.9349 30.5252 17.8108 30.7686 17.6698C30.746 17.777 30.7346 17.8503 30.712 17.9179C30.4063 18.7412 29.9308 19.4517 29.2176 19.9761C28.7817 20.3031 28.3175 20.5907 27.8873 20.9178C27.6156 21.1264 27.4232 21.2561 27.4118 21.5437C27.593 21.4817 27.7685 21.4253 27.9779 21.3576C27.6269 22.553 26.6986 23.2861 25.8891 24.1432C25.9684 24.177 26.0306 24.1996 26.0929 24.2277C26.4948 24.3913 26.8345 24.6394 27.0665 25.0115C27.242 25.2878 27.2816 25.5811 27.2081 25.9025C27.1854 25.9983 27.242 26.128 27.3043 26.2126C27.4968 26.5058 27.5251 26.8047 27.3552 27.1092C27.1911 27.408 26.9194 27.5546 26.5627 27.5772C26.8458 27.0697 26.8345 26.9569 26.4495 26.6863C26.4099 26.8949 26.3703 27.0922 26.3307 27.3009C26.0759 27.0922 25.8552 26.8441 25.5778 26.6975C25.2948 26.5509 24.9608 26.5115 24.6211 26.4156C24.6381 26.4889 24.6381 26.534 24.6551 26.5735C24.9042 27.1994 25.1363 27.8366 25.4193 28.4512C25.5212 28.6767 25.725 28.8685 25.9118 29.0376C26.0873 29.1955 26.2118 29.1391 26.2797 28.9079C26.325 28.7444 26.342 28.5752 26.3703 28.4117C26.3986 28.2651 26.4778 28.2031 26.5797 28.2482C26.6024 28.3835 26.6307 28.4907 26.6363 28.5978C26.642 28.7106 26.642 28.829 26.6194 28.9361C26.5967 29.032 26.5344 29.1222 26.4892 29.2124C26.5005 29.2293 26.5175 29.2406 26.5288 29.2575C26.6816 29.156 26.8401 29.0545 26.9873 28.9474C27.0609 28.891 27.1175 28.8177 27.1854 28.7557C27.4515 28.5132 27.5817 28.5301 27.7685 28.8516C27.6666 28.8403 27.576 28.8234 27.4798 28.8121C27.4628 29.2293 27.0213 29.2237 26.8401 29.5056C27.0552 29.4944 27.2477 29.4775 27.4401 29.4775C27.7345 29.4775 27.8534 29.6128 27.7968 29.9116C27.7119 29.7086 27.5703 29.7368 27.4345 29.7932C27.1458 29.9116 26.8514 29.8722 26.5571 29.8327C26.2344 29.7876 25.9457 29.8327 25.6684 30.0244C25.4872 30.1541 25.3004 30.2782 25.04 30.2218C24.9834 30.2105 24.8815 30.3966 24.8079 30.4868C24.6891 30.3289 24.6947 30.1767 24.8929 30.0526C25.0174 29.9737 25.1646 29.9342 25.3004 29.8778C25.3853 29.844 25.4759 29.8158 25.5495 29.7594C25.7137 29.6353 25.7137 29.5564 25.5552 29.4323C25.1646 29.1166 24.774 28.8064 24.3834 28.4907C24.3494 28.4625 24.3098 28.4399 24.2758 28.4343C23.7607 28.3892 23.4777 28.0508 23.2626 27.6392C23.2173 27.549 23.1833 27.4249 23.0588 27.5039C22.9909 27.549 22.9173 27.6843 22.9399 27.752C23.0588 28.1975 23.3192 28.5471 23.7211 28.7726C23.8966 28.7444 23.9305 28.3159 24.1796 28.5752C24.157 28.6711 24.14 28.7275 24.1287 28.7839C24.1966 28.7952 24.2702 28.8234 24.3381 28.8177C24.4513 28.8177 24.5645 28.7952 24.6778 28.7839C24.6834 28.8064 24.6891 28.8346 24.6947 28.8572C24.6155 28.8967 24.5362 28.9361 24.4287 28.9925C24.9721 29.0207 24.9721 29.0207 24.9947 29.3083C24.8193 29.1391 24.6494 29.2745 24.4796 29.297C24.0947 29.3421 23.8287 29.5226 23.6871 29.9004C23.6419 30.0188 23.5173 30.1034 23.4041 30.2331C23.4098 30.25 23.4268 30.3064 23.4381 30.3684C23.1947 30.2838 23.1381 30.1654 23.2569 29.9511C23.3475 29.7876 23.4664 29.6353 23.5739 29.4775C23.6702 29.3365 23.6702 29.2181 23.489 29.1391C23.1947 29.0094 22.9456 28.8008 22.6003 28.767C22.4701 28.7557 22.3569 28.5809 22.2267 28.4681C22.1644 28.5696 22.0795 28.688 22.0116 28.8234C21.8135 29.2237 21.4795 29.4662 21.0606 29.579C19.7417 29.9398 18.4963 29.7368 17.3359 29.0207C17.1434 28.9079 17.0019 28.7331 16.8095 28.564Z" fill="#20113D"/>
</svg>
