<svg width="42" height="60" viewBox="0 0 42 60" fill="none" xmlns="http://www.w3.org/2000/svg">
<path d="M20.8375 3.56836C11.479 3.56836 3.90723 10.7539 3.90723 19.6085C3.90723 28.463 20.8375 53.8386 20.8375 53.8386C20.8375 53.8386 37.7677 28.463 37.7677 19.6085C37.7677 10.7539 30.1959 3.56836 20.8375 3.56836Z" fill="#F58021"/>
<path fill-rule="evenodd" clip-rule="evenodd" d="M25.5476 17.9828C25.759 18.4155 25.9704 18.8482 26.1895 19.3001C26.1341 19.3435 26.0779 19.3885 26.0209 19.434C25.8922 19.537 25.7592 19.6434 25.6206 19.7443C25.4666 19.8557 25.3139 19.9688 25.1612 20.0818L25.1612 20.0818C24.7842 20.3609 24.4078 20.6396 24.0138 20.893C22.5953 21.8082 21.0307 22.1797 19.347 22.0342C18.9357 21.9997 18.5013 21.858 18.3283 21.7393C18.4282 21.0506 18.5242 20.3811 18.6202 19.7115L18.6205 19.7098C18.6089 19.706 18.5964 19.7031 18.5839 19.7002C18.5714 19.6974 18.559 19.6945 18.5474 19.6907C18.51 19.7663 18.4729 19.8419 18.4359 19.9174L18.4357 19.9178C18.3434 20.1061 18.2513 20.2937 18.1553 20.4795C17.906 20.9702 17.7389 21.4912 17.5713 22.0134C17.5245 22.1596 17.4775 22.3059 17.4288 22.4516C17.1213 23.3591 16.5715 24.056 15.6374 24.3968C15.5913 24.416 15.5529 24.4926 15.5336 24.55C15.496 24.6691 15.4625 24.7896 15.429 24.9099C15.384 25.0721 15.3389 25.2342 15.2838 25.3924C15.0723 26.0051 14.6764 26.48 14.1421 26.8437C13.9037 27.0046 13.6654 27.1692 13.4386 27.3454C13.2425 27.4947 13.2502 27.5598 13.4424 27.7092C13.48 27.7383 13.5177 27.7671 13.5553 27.7957L13.5556 27.7959C13.676 27.8876 13.7954 27.9785 13.9037 28.0806C14.0806 28.2491 14.1613 28.4635 14.0959 28.7086C14.0806 28.766 13.9921 28.8426 13.9383 28.8426C12.6775 28.8503 11.4127 28.8503 10.1519 28.8465C10.1057 28.8465 10.0404 28.8311 10.0135 28.8005C9.97485 28.7537 9.93531 28.707 9.89565 28.6602C9.75375 28.4928 9.61037 28.3236 9.50221 28.138C9.43302 28.0193 9.42533 27.8202 9.47146 27.6862C9.91738 26.3344 10.4901 25.0516 11.5703 24.0675C11.6165 24.0254 11.6434 23.9335 11.6472 23.8684C11.6741 22.8958 11.7895 21.9308 12.0393 20.9926C12.2546 20.1808 12.4852 19.369 12.8927 18.6223C13.6423 17.2591 14.611 16.1218 16.0987 15.5091C17.3788 14.9845 18.6281 15.0649 19.8467 15.6852C20.014 15.7712 20.1653 15.889 20.3127 16.0037L20.3127 16.0037C20.3821 16.0577 20.4506 16.111 20.5195 16.1601C20.3811 15.8614 20.1389 15.6163 19.8775 15.3904C20.1237 15.2971 20.3707 15.2068 20.6174 15.1167C21.7073 14.7185 22.7886 14.3234 23.7447 13.6864C23.7868 13.8323 23.8281 13.9797 23.8697 14.128C23.9231 14.3181 23.9768 14.5096 24.033 14.7011C24.0484 14.7471 24.0791 14.7892 24.1175 14.8275C24.0407 14.3526 24.0407 13.8778 24.2213 13.4413C24.3905 13.0277 24.5942 12.6103 24.8556 12.2504C25.4976 11.3773 26.2703 10.6191 27.1313 9.95664L27.1314 9.9566C27.166 9.92981 27.2005 9.90302 27.239 9.87623C27.3007 9.83698 27.3619 9.79516 27.4232 9.75325L27.4232 9.75324C27.7207 9.54983 28.0213 9.34434 28.4037 9.42054C29.0342 9.54308 29.5608 9.8724 29.9222 10.4123C30.026 10.5655 30.1451 10.6727 30.3104 10.7302C30.741 10.8795 31.0639 11.1361 31.2714 11.5534C31.3467 11.7059 31.4552 11.841 31.5639 11.9763C31.6163 12.0414 31.6686 12.1066 31.7174 12.1738C31.8173 12.3116 31.8365 12.4265 31.7251 12.5874C31.6328 12.7214 31.5867 12.9014 31.5598 13.066C31.5252 13.2613 31.602 13.3877 31.8096 13.4949C32.3516 13.7706 32.6669 14.3871 32.367 15.0113C32.3171 15.1147 32.2709 15.2181 32.2286 15.3253C32.0287 15.8384 31.6482 16.0184 31.1254 15.8384L31.0989 15.8298C31.0723 15.8212 31.0456 15.8126 31.0254 15.8039C30.9293 15.938 30.8332 16.0682 30.7294 16.206C30.7147 16.1881 30.702 16.175 30.6924 16.165C30.6794 16.1515 30.6718 16.1437 30.6718 16.1371C30.7025 15.8078 30.5026 15.6125 30.2797 15.4134C29.2379 14.479 27.9617 14.6475 27.089 15.1874C27.1872 15.1676 27.2844 15.146 27.3813 15.1244C27.5653 15.0834 27.7484 15.0427 27.9348 15.0151C29.0419 14.8619 30.0029 15.3559 30.5142 16.3439C30.8678 17.0255 31.1177 17.7377 31.0562 18.5266L31.0555 18.5358V18.5358C31.0442 18.6903 31.0318 18.8586 30.9678 18.9937C30.7448 19.4686 30.814 19.9472 30.937 20.4182L30.9597 20.506C31.0751 20.9535 31.1936 21.4129 31.4137 21.8082C32.2632 23.3285 32.3324 24.9712 32.2709 26.637C32.244 27.353 32.0134 27.9887 31.4214 28.452C31.0908 28.7124 30.7371 28.8924 30.295 28.8579C30.0913 28.8426 29.8837 28.8388 29.68 28.8579C29.2956 28.9001 29.0303 28.7086 28.8035 28.4405C28.5575 28.1534 28.446 27.8202 28.5152 27.4449C28.5344 27.3454 28.6075 27.2228 28.692 27.1769C28.7983 27.1207 28.8758 27.1987 28.9544 27.2777C28.9669 27.2902 28.9793 27.3027 28.9919 27.3147C29.1104 27.4289 29.2668 27.5129 29.4159 27.5929L29.416 27.5929L29.4186 27.5943C29.5493 27.6632 29.6185 27.6058 29.6339 27.4603C29.6492 27.2879 29.5954 27.1424 29.4647 27.0314C28.7305 26.4072 28.2692 25.5916 27.854 24.7453C27.535 24.0905 27.3312 23.4051 27.2582 22.6775C27.2044 22.1299 27.3005 21.5976 27.4043 21.0654C27.4542 20.8241 27.5042 20.579 27.5196 20.3301C27.5542 19.8362 27.3812 19.4188 26.9545 19.1546C26.4279 18.8291 25.9589 18.4385 25.5822 17.9483C25.586 17.9598 25.5668 17.9713 25.5476 17.9828ZM26.6734 19.7219C26.8964 19.9019 26.9771 20.1087 26.931 20.3652C26.9026 20.5311 26.8713 20.6965 26.84 20.8619L26.8399 20.8621C26.7824 21.1664 26.7248 21.4707 26.685 21.7782C26.5543 22.816 26.7965 23.7963 27.2001 24.7421C27.2731 24.9144 27.2808 25.0523 27.2039 25.2246C26.8541 26.0134 26.4735 26.7831 25.9815 27.4992C25.3434 28.4258 24.4515 28.8547 23.3368 28.8547C23.2709 28.8547 23.2053 28.8558 23.14 28.8568C22.9878 28.8592 22.8365 28.8616 22.6833 28.8509C22.6064 28.8471 22.5103 28.7973 22.468 28.736C22.1105 28.2535 22.172 27.2541 22.5833 26.8137C22.6294 26.7639 22.7332 26.718 22.7909 26.7371C22.8347 26.7527 22.8658 26.8191 22.8945 26.8805C22.9011 26.8944 22.9075 26.9082 22.9139 26.9209C22.9298 26.9525 22.9413 26.9874 22.9528 27.022L22.9528 27.022C22.9719 27.0797 22.9908 27.1368 23.0292 27.1775C23.0984 27.2579 23.2176 27.3728 23.2945 27.3575C23.3752 27.3422 23.4559 27.2005 23.4905 27.1009C23.5251 27.0052 23.5136 26.8865 23.4944 26.7869C23.4665 26.6467 23.4315 26.5075 23.3967 26.3686C23.3353 26.1243 23.2742 25.8809 23.2522 25.6343C23.1484 24.5276 23.2483 23.4401 23.7289 22.4177C23.8403 22.1841 23.9672 21.9467 24.1325 21.7476C24.3055 21.5332 24.5207 21.3455 24.7399 21.177C24.9647 21.001 25.1964 20.8346 25.4284 20.668L25.4284 20.6679C25.5851 20.5554 25.742 20.4427 25.8969 20.3269C26.0698 20.1959 26.2409 20.0614 26.4149 19.9246C26.5002 19.8575 26.5862 19.7899 26.6734 19.7219ZM18.4116 22.4448C18.3129 22.4157 18.2137 22.3865 18.1127 22.3569C18.0785 22.4308 18.0453 22.5058 18.012 22.581C17.9556 22.7085 17.8988 22.8367 17.8359 22.9619C17.4554 23.7278 16.9556 24.3941 16.183 24.823C16.1215 24.8574 16.0792 24.9455 16.0561 25.0183C15.8716 25.6348 15.6409 26.2245 15.2143 26.7223C15.1835 26.7606 15.1566 26.8295 15.1681 26.8716C15.3027 27.2967 15.4411 27.7217 15.591 28.1391C15.6179 28.2119 15.6986 28.2808 15.7716 28.3229C16.0446 28.4761 16.3175 28.6254 16.5981 28.7671C16.6904 28.8131 16.798 28.8552 16.898 28.8552C17.7109 28.8609 18.5216 28.8602 19.3334 28.8595C19.6042 28.8593 19.8751 28.859 20.1463 28.859H20.3846C20.3587 28.8062 20.3377 28.7547 20.3177 28.706C20.2784 28.6098 20.2434 28.5243 20.1847 28.4608C20.0386 28.3038 19.8733 28.1544 19.6965 28.0357C19.5304 27.9244 19.3502 27.8321 19.1705 27.74C19.1215 27.7149 19.0724 27.6898 19.0238 27.6643C18.8316 27.5609 18.747 27.4077 18.7624 27.1933C18.7649 27.1422 18.7709 27.0912 18.7769 27.0401C18.7799 27.0146 18.7829 26.9891 18.7854 26.9635C18.7972 26.8476 18.8118 26.7313 18.8265 26.6149C18.8597 26.3506 18.8931 26.0856 18.8931 25.8224C18.8931 25.2748 18.6471 24.8038 18.2972 24.3903C18.9046 23.9384 19.0238 23.2989 19.0814 22.6403C18.8504 22.5741 18.6322 22.5098 18.4116 22.4448Z" fill="#20113D"/>
</svg>
