<svg width="42" height="60" viewBox="0 0 42 60" fill="none" xmlns="http://www.w3.org/2000/svg">
<path d="M20.8375 3.56836C11.479 3.56836 3.90723 10.7539 3.90723 19.6085C3.90723 28.463 20.8375 53.8386 20.8375 53.8386C20.8375 53.8386 37.7677 28.463 37.7677 19.6085C37.7677 10.7539 30.1959 3.56836 20.8375 3.56836Z" fill="#F58021"/>
<path fill-rule="evenodd" clip-rule="evenodd" d="M20.5561 10.0033C20.9184 9.98286 21.2639 10.058 21.6195 10.1843C21.6078 10.2182 21.5969 10.2515 21.5862 10.2842C21.5602 10.3636 21.5354 10.4396 21.5021 10.5121C21.3998 10.7358 21.2958 10.9594 21.1918 11.183C21.0878 11.4067 20.9838 11.6303 20.8815 11.854L20.8812 11.8546C20.8259 11.9756 20.7991 12.0343 20.7538 12.059C20.711 12.0822 20.6517 12.0751 20.5365 12.0613L20.5158 12.0589C20.3984 12.0452 20.3279 11.994 20.3112 11.8779C20.304 11.829 20.295 11.7798 20.286 11.7306C20.261 11.5943 20.236 11.4577 20.2508 11.3247C20.2878 10.9963 20.3478 10.6699 20.4077 10.344L20.4077 10.344C20.4238 10.2566 20.4398 10.1692 20.4554 10.0819C20.4621 10.0512 20.5192 10.0068 20.5561 10.0033ZM18.295 11.109L18.2952 11.1093L18.2952 11.1093L18.2953 11.1094L18.2953 11.1094L18.2954 11.1095L18.2955 11.1097C18.5178 11.4463 18.7354 11.7756 18.9625 12.0991C19.0463 12.2221 19.1604 12.3313 19.3449 12.2562C19.6267 12.1469 19.6972 12.0718 19.6133 11.7713C19.513 11.4061 19.5752 11.0549 19.6377 10.7025L19.6378 10.7022C19.6442 10.6659 19.6507 10.6297 19.6569 10.5934C19.6804 10.4636 19.677 10.3202 19.6469 10.1905C19.6334 10.129 19.5127 10.0368 19.4657 10.047C18.9524 10.1768 18.5029 10.4329 18.0734 10.7743C18.148 10.8864 18.2214 10.9976 18.2944 11.1081L18.295 11.109ZM16.9769 13.7143C17.2119 13.889 17.4477 14.0641 17.6876 14.2414C17.6071 14.6341 17.3991 14.8561 16.9932 14.9004C16.4329 14.9585 15.9599 14.7263 15.5338 14.378C15.5103 14.3575 15.5003 14.2824 15.517 14.2483C15.5419 14.1919 15.5667 14.1354 15.5915 14.0788L15.5916 14.0786C15.7004 13.8306 15.8095 13.5819 15.9297 13.34C15.9619 13.272 16.0148 13.2153 16.0654 13.161C16.0884 13.1362 16.111 13.1119 16.131 13.0874C16.4159 13.2974 16.6959 13.5055 16.9769 13.7143ZM17.1276 15.8014C16.4935 15.641 15.8796 15.4839 15.2187 15.3132C15.2045 15.3924 15.1887 15.4742 15.1726 15.5577L15.1726 15.5577L15.1726 15.5578C15.1428 15.7119 15.1118 15.872 15.0879 16.0336C15.0649 16.1867 15.0497 16.341 15.0342 16.4983C15.0249 16.5937 15.0154 16.6903 15.004 16.7882C15.534 17.058 16.0775 17.1331 16.6143 16.819C16.9967 16.6004 17.1477 16.2385 17.1276 15.8014ZM15.0272 17.6102C14.9266 18.1497 15.0071 18.6585 15.1949 19.1536C15.2117 19.1945 15.2553 19.2389 15.2956 19.2526C16.0873 19.5223 16.9797 18.9828 17.1038 18.2556C17.1206 18.1565 17.1273 18.0507 17.1206 17.9517C17.0803 17.518 16.9998 17.4566 16.5838 17.518L16.464 17.5357C16.1785 17.5781 15.8926 17.6204 15.6042 17.6444C15.4775 17.6537 15.3477 17.6406 15.2136 17.627C15.1524 17.6208 15.0903 17.6145 15.0272 17.6102ZM17.2817 20.8133C17.5501 20.2328 17.4662 19.8163 17.0133 19.4543C16.5437 19.8163 16.0002 19.9494 15.4165 19.9699C15.3762 19.9699 15.3091 20.028 15.299 20.0724C15.2085 20.506 15.3359 20.8918 15.5741 21.2469C15.5932 21.275 15.6297 21.2894 15.6709 21.3057C15.6949 21.3152 15.7205 21.3253 15.7452 21.3391C15.7336 21.347 15.7223 21.3549 15.711 21.3627L15.711 21.3627L15.711 21.3627L15.711 21.3627L15.7109 21.3628L15.7109 21.3628L15.7109 21.3628L15.7109 21.3628L15.7108 21.3628L15.7108 21.3628L15.7108 21.3628L15.7108 21.3628L15.7108 21.3629L15.7108 21.3629L15.7108 21.3629L15.7108 21.3629L15.7108 21.3629L15.7108 21.3629C15.6832 21.382 15.6564 21.4007 15.6278 21.4177C15.0172 21.7898 14.5241 22.2781 14.2322 22.9439C13.8498 23.8214 13.7122 24.7263 14.0578 25.6584C14.1199 25.826 14.1772 25.9966 14.2343 26.1669L14.2343 26.1669L14.2343 26.167L14.2343 26.1671C14.282 26.3091 14.3295 26.4509 14.3798 26.5906C14.5476 27.0618 14.561 27.5466 14.4268 28.0178C14.0309 29.3938 14.4033 30.6572 14.93 31.9035C14.9762 32.0076 15.0517 32.1019 15.1244 32.1927L15.1279 32.1971C15.2286 32.3234 15.3594 32.3644 15.5171 32.3098C15.6748 32.2517 15.7888 32.1459 15.7821 31.9786C15.7754 31.7635 15.7486 31.5484 15.6983 31.3401C15.6597 31.1745 15.6127 31.0106 15.5657 30.8467C15.5188 30.6828 15.4718 30.5189 15.4332 30.3533C15.3259 29.8855 15.4634 29.4997 15.8392 29.2095C15.8552 29.1974 15.871 29.1851 15.8866 29.1728C15.9198 29.1468 15.9525 29.1211 15.9868 29.1002C16.5537 28.769 16.9026 28.25 17.1911 27.6729C17.2717 27.5089 17.376 27.3562 17.4801 27.2037C17.5277 27.1339 17.5753 27.0642 17.6206 26.9935L17.6608 27.014C17.6809 27.1093 17.7014 27.2047 17.7219 27.3001L17.722 27.3008L17.7221 27.3008L17.7221 27.3008L17.7221 27.3008L17.7221 27.3009L17.7221 27.3009L17.7221 27.3009L17.7221 27.301L17.7221 27.301L17.7221 27.301L17.7221 27.301L17.7221 27.3011L17.7221 27.3011L17.7221 27.3011L17.7221 27.3012L17.7221 27.3012L17.7221 27.3012L17.7221 27.3012C17.7838 27.5879 17.8454 27.8746 17.8957 28.1612C18.1204 29.4075 18.8451 30.3465 19.6838 31.2206C19.7665 31.3081 19.8753 31.3724 19.9781 31.4331L19.9781 31.4332L19.9824 31.4357C20.1233 31.521 20.2675 31.521 20.4017 31.4084C20.5393 31.2923 20.5896 31.1454 20.5292 30.9816C20.4688 30.8245 20.3916 30.6708 20.2977 30.5308C20.2003 30.3876 20.0951 30.2503 19.99 30.1131C19.8996 29.9952 19.8093 29.8773 19.724 29.7558C19.3248 29.189 19.308 28.7895 19.7005 28.2227C20.0125 27.7685 20.2273 27.2735 20.4185 26.7374C20.4719 26.7627 20.5243 26.7861 20.5757 26.809C20.6632 26.848 20.7475 26.8856 20.8278 26.9286C21.6531 27.3861 22.1596 28.1066 22.4616 28.9909C22.5842 29.3437 22.6899 29.7028 22.7954 30.0617L22.7955 30.0619L22.7956 30.0622L22.7957 30.0625L22.7958 30.0628C22.823 30.1551 22.8501 30.2475 22.8776 30.3396C22.9748 30.6674 23.1325 30.9577 23.3472 31.2172L23.5927 31.5121C23.9765 31.9736 24.3596 32.4342 24.7495 32.8902C24.8603 33.02 24.9944 33.1429 25.1387 33.2351C25.4004 33.4024 25.6553 33.3512 25.8969 33.1156C26.0713 32.9449 26.1015 32.7332 25.9439 32.4634C25.8534 32.3081 25.7367 32.1673 25.622 32.0287L25.622 32.0287L25.6219 32.0287C25.6005 32.0028 25.5792 31.977 25.5581 31.9513C25.491 31.8693 25.4138 31.7908 25.3333 31.7225C24.6523 31.1318 24.4845 30.3499 24.5147 29.4928C24.5196 29.3489 24.5369 29.205 24.5537 29.0651L24.5537 29.0651C24.56 29.0124 24.5662 28.9603 24.5717 28.909C24.6755 28.8888 24.778 28.8686 24.8783 28.8489L24.8819 28.8482L24.8825 28.8481C25.0694 28.8113 25.2487 28.776 25.4138 28.7451C25.4763 28.8854 25.5349 29.0287 25.5935 29.1723C25.7204 29.4832 25.8479 29.7952 26.0177 30.0801C26.2674 30.5001 26.5633 30.891 26.8591 31.2819C26.9289 31.374 26.9986 31.4661 27.0677 31.5586C27.1851 31.7157 27.3428 31.842 27.5575 31.7908C27.6716 31.7635 27.7588 31.4493 27.7018 31.2274C27.6481 31.0191 27.5844 30.8074 27.4804 30.623C27.0174 29.7933 26.8396 28.8817 26.7155 27.9563C26.6517 27.4851 26.3766 27.2735 25.9137 27.3656C25.0481 27.5398 24.1792 27.6251 23.2969 27.5466C23.2365 27.5398 23.1762 27.5261 23.1158 27.5125L23.1157 27.5125C22.4918 27.3622 22.2435 26.7749 22.5656 26.2047C22.5756 26.1842 22.5857 26.1638 22.6025 26.1467C22.9024 25.8389 23.065 25.4566 23.2282 25.0726L23.2282 25.0726C23.2859 24.9369 23.3437 24.8011 23.4076 24.6682C23.5351 24.4087 23.7766 24.1902 24.0081 23.999C24.2933 23.7668 24.6422 23.6507 25.0012 23.5722C25.0515 23.5619 25.1253 23.5141 25.1353 23.4732C25.1454 23.4254 25.1052 23.3366 25.0649 23.3161C25.0393 23.3038 25.0135 23.2911 24.9876 23.2784C24.8338 23.2028 24.675 23.1249 24.5114 23.1044C24.243 23.0703 23.9645 23.0771 23.6928 23.1044C23.3908 23.1351 23.1225 23.0395 22.8708 22.9166C22.6025 22.7869 22.3475 22.6093 22.106 22.4317C21.4451 21.9435 20.7774 21.4689 20.0193 21.1445C19.2074 20.7928 18.3653 20.6767 17.4931 20.8065C17.4293 20.7996 17.3589 20.8031 17.2817 20.8133ZM20.9619 20.1542C20.6936 20.325 20.4017 20.4001 20.0863 20.4001C19.7844 20.3898 19.4959 20.3284 19.251 20.1372C18.9792 19.9289 18.8752 19.6216 19.0329 19.3245C19.1336 19.1376 19.2738 18.9737 19.4141 18.8098L19.4141 18.8098C19.4609 18.7552 19.5076 18.7005 19.5529 18.6451C19.5764 18.6177 19.6334 18.6075 19.6737 18.6109C20.4017 18.6826 20.9653 19.1914 21.0961 19.8333C21.1297 19.9903 21.0861 20.0757 20.9619 20.1542ZM17.3187 11.3725C17.7012 11.6661 18.238 12.3354 18.6036 12.9671L18.5659 13.0157C18.4794 13.127 18.3976 13.2322 18.3185 13.3426C18.248 13.4417 18.1641 13.4656 18.0434 13.428C17.4227 13.2266 16.9967 12.7758 16.5471 12.291C16.8088 11.9803 17.0638 11.6764 17.3187 11.3725ZM22.5522 13.4695C22.8287 13.2271 23.1654 13.1847 23.5041 13.1421L23.5041 13.1421C23.5806 13.1325 23.6571 13.1229 23.7331 13.1109C23.9076 13.0836 24.082 13.0324 24.2498 12.9778C24.2867 12.9641 24.3404 12.8958 24.3336 12.8617C24.2833 12.5236 24.1793 12.2061 23.9009 11.9876C23.8539 11.95 23.7767 11.9261 23.7231 11.9329C23.3138 11.9978 22.9347 12.1412 22.5959 12.3837C22.5556 12.4144 22.5153 12.4451 22.4784 12.4793C22.1295 12.807 22.153 13.1792 22.5522 13.4695ZM22.6831 19.0718C22.3443 18.4572 20.8681 17.8699 20.4857 18.2011C20.4857 18.2114 20.4857 18.2284 20.4924 18.2318C20.9487 18.6348 21.2774 19.1435 21.5961 19.6591C21.6733 19.7854 21.7505 19.7923 21.8712 19.7513C22.153 19.6557 22.4751 19.3893 22.6831 19.0718ZM24.9374 25.7C24.8871 25.9629 24.7831 26.0414 24.5147 26.0483C24.4676 26.0393 24.4205 26.0322 24.3736 26.0252L24.3735 26.0252L24.3735 26.0251C24.2769 26.0106 24.1812 25.9962 24.0887 25.9663C23.7867 25.8741 23.6559 25.659 23.7129 25.3415C23.7331 25.2254 23.7767 25.1127 23.827 25.0068C24.0082 24.6347 24.3067 24.3718 24.6489 24.1601C24.7663 24.0884 24.9072 24.044 25.0414 24.0201C25.1035 24.0079 25.1723 24.0251 25.2406 24.0422L25.2407 24.0422L25.2407 24.0422C25.2684 24.0492 25.2961 24.0561 25.3232 24.061C25.3176 24.0861 25.3132 24.1125 25.3088 24.1391C25.2977 24.2066 25.2865 24.2749 25.2528 24.324C25.0582 24.6074 25.0012 24.9249 24.9844 25.2595C24.9777 25.4063 24.9643 25.5566 24.9374 25.7ZM22.6527 14.4183L23.0424 14.451C23.5534 14.4939 24.0541 14.5359 24.5548 14.5822C24.7024 14.5958 24.7494 14.5378 24.7628 14.3978C24.7897 14.0973 24.689 13.8617 24.4408 13.6978C24.0214 13.4247 23.2733 13.4725 22.8908 13.8003C22.6963 13.9642 22.6124 14.1724 22.6527 14.4183ZM22.3509 10.4883C22.7535 10.7103 23.1359 10.9356 23.4043 11.3215C22.787 11.6902 22.1899 12.0488 21.5927 12.4107C21.482 12.2331 21.4686 12.1136 21.5491 11.8644C21.7022 11.3843 21.9919 10.9841 22.2857 10.5785L22.3509 10.4883ZM22.5359 18.253L22.5359 18.253C22.7428 18.414 22.9519 18.5768 23.183 18.7168L23.2774 18.5659C23.4022 18.3667 23.5239 18.1724 23.6393 17.9759C23.656 17.9486 23.646 17.87 23.6191 17.8496C23.183 17.5013 22.7133 17.2213 22.1397 17.194C21.8545 17.1872 21.5995 17.2623 21.4385 17.5798C21.8569 17.7246 22.1932 17.9863 22.5359 18.253L22.5359 18.253L22.5359 18.253L22.5359 18.253ZM24.6287 15.3139C24.622 15.5936 24.6152 15.8801 24.4375 16.1155C24.3678 16.0921 24.2988 16.0685 24.2303 16.0451C24.0484 15.9828 23.8698 15.9217 23.6894 15.8696C23.3707 15.7843 23.052 15.7057 22.7299 15.634C22.6092 15.6067 22.5823 15.5453 22.5991 15.4292C22.6427 15.1082 22.8608 14.9102 23.2298 14.8965C23.7028 14.876 24.139 15.0365 24.565 15.2277C24.5952 15.2414 24.6288 15.2858 24.6288 15.3131L24.6287 15.3139ZM23.2494 25.9466L23.2493 25.9467L23.2493 25.9467C23.1831 26.0276 23.1223 26.102 23.0623 26.1774C23.0418 26.2033 23.0203 26.2286 22.9989 26.2539L22.9989 26.2539C22.9471 26.3152 22.8957 26.376 22.8577 26.4437C22.7336 26.6622 22.794 26.9012 23.0221 27.0003C23.2032 27.0788 23.4045 27.13 23.5991 27.1505C24.1191 27.2085 24.6324 27.1573 25.1356 27.0037C25.1021 26.7647 24.9947 26.6554 24.7599 26.6315C24.6427 26.6208 24.5242 26.6168 24.406 26.6128H24.4059C24.3347 26.6104 24.2636 26.608 24.1929 26.6042C23.7367 26.5769 23.6629 26.5052 23.5723 26.0544C23.5565 25.9789 23.5257 25.9049 23.4929 25.8262C23.4768 25.7875 23.4603 25.7478 23.4448 25.7062C23.3732 25.7952 23.3092 25.8734 23.2495 25.9464L23.2495 25.9465L23.2494 25.9466ZM23.8674 17.3581C23.3307 17.0747 22.7838 16.8289 22.1766 16.7059C22.2638 16.2689 22.549 16.0743 22.9985 16.1323C23.4514 16.1869 23.854 16.3782 24.223 16.6411C24.2599 16.6684 24.3069 16.7298 24.2969 16.7572C24.223 16.9484 24.1459 17.143 24.0486 17.324C24.0285 17.3581 23.911 17.382 23.8674 17.3581ZM25.3399 24.9827C25.3399 25.3379 25.3969 25.3959 25.6653 25.3447C25.776 25.3242 25.8934 25.2764 25.984 25.2081C26.3329 24.9452 26.4302 24.3101 26.1886 23.9584C26.1316 23.8765 26.0813 23.8423 25.9874 23.9106C25.5982 24.2008 25.3566 24.5662 25.3399 24.9827Z" fill="#20113D"/>
</svg>
