<svg width="42" height="60" viewBox="0 0 42 60" fill="none" xmlns="http://www.w3.org/2000/svg">
<path d="M20.8375 3.56836C11.479 3.56836 3.90723 10.7539 3.90723 19.6085C3.90723 28.463 20.8375 53.8386 20.8375 53.8386C20.8375 53.8386 37.7677 28.463 37.7677 19.6085C37.7677 10.7539 30.1959 3.56836 20.8375 3.56836Z" fill="#F58021"/>
<path d="M14.9844 28.1194C14.8715 27.5426 14.8351 26.9694 14.9371 26.3962C15.0973 25.4856 15.5526 24.7418 16.2847 24.1868C16.6489 23.911 17.0678 23.7079 17.4612 23.4684C17.7198 23.3124 17.9966 23.1746 18.2187 22.9787C18.8052 22.4526 19.3661 21.9012 19.9379 21.3606C20.2766 21.0414 20.6117 20.7185 20.9723 20.3738C20.7283 20.3557 20.5097 20.3521 20.2948 20.3194C20.08 20.2868 19.8651 20.2323 19.7084 20.0147C19.7849 20.011 19.8396 20.0074 19.8942 20.0074C20.4697 19.9893 20.7611 19.699 20.772 19.144C20.7793 18.8755 20.7137 18.6034 20.6773 18.335C20.5134 17.1994 20.7975 16.1763 21.4677 15.2549C21.5114 15.1932 21.5587 15.1279 21.6134 15.0517C21.4276 15.0299 21.2601 15.0227 21.0998 14.9864C20.9432 14.9501 20.7975 14.8848 20.6445 14.834C20.6481 14.8159 20.6518 14.7977 20.6554 14.7832C20.7756 14.7578 20.8958 14.7361 21.0124 14.707C21.872 14.4821 22.5021 13.9851 22.8845 13.1724C23.0448 12.835 23.2269 12.5049 23.4308 12.1929C23.7914 11.6451 24.305 11.2968 24.9424 11.1299C25.0007 11.1154 25.0553 11.0973 25.1318 11.0755C25.0152 11.0066 24.9023 10.9594 24.8186 10.8796C24.7457 10.8107 24.7093 10.7055 24.6765 10.5857C24.9788 10.6873 25.1937 10.5458 25.4122 10.4189C25.7838 10.2012 26.1698 10.0379 26.6142 10.0561C27.1605 10.0815 27.5758 10.3536 27.9218 10.7563C27.9691 10.8107 28.0128 10.8687 28.0602 10.9304C28.3552 10.7163 28.6502 10.7744 28.9234 10.9558C29.0764 11.0574 29.1966 11.2097 29.3423 11.3295C29.5754 11.5254 29.8012 11.7394 30.0598 11.9027C30.1873 11.9825 30.373 11.968 30.5624 12.0043C30.6863 12.3562 30.4969 12.6101 29.8668 12.8532C30.0234 13.1253 30.18 13.3974 30.3366 13.6695C30.4532 13.869 30.5442 14.0649 30.475 14.3189C30.4459 14.4349 30.5224 14.6055 30.5989 14.7179C30.7955 15.0009 31.0177 15.2657 31.229 15.5378C31.3382 15.6829 31.4439 15.8317 31.5495 15.9768C31.6515 16.1183 31.6515 16.2562 31.5458 16.394C31.4111 16.5645 31.2945 16.7568 31.1306 16.8947C30.8866 17.0978 30.6863 17.33 30.4823 17.5731C30.1982 17.9141 29.7903 17.9286 29.4552 17.6311C29.3714 17.555 29.2804 17.4715 29.2294 17.3736C29.1128 17.1414 28.9125 17.0543 28.683 16.9926C28.4645 16.9346 28.2459 16.8838 28.0347 16.8112C27.8599 16.7496 27.696 16.6661 27.5284 16.5899C27.4993 16.7024 27.5102 16.7967 27.6559 16.8947C27.8671 17.0325 28.093 17.145 28.3261 17.2502C28.4281 17.2974 28.4863 17.3409 28.5228 17.4534C28.683 17.9794 28.8542 18.5018 29.029 19.0206C29.2002 19.5322 29.2148 20.0582 29.1966 20.5915C29.1747 21.1901 29.0764 21.767 28.8943 22.3329C28.7631 22.7356 28.6175 22.9968 28.4317 23.1782C28.3079 22.8553 28.1877 22.5361 28.0638 22.2204C28.0456 22.2241 28.0274 22.2277 28.0092 22.2313C28.0383 22.5506 28.0565 22.8698 28.1003 23.1891C28.3006 24.5895 28.6065 25.9717 29.0145 27.3285C29.0691 27.5027 29.1674 27.6732 29.2731 27.8219C29.4697 28.0976 29.7538 28.192 30.0853 28.163C30.4677 28.1303 30.6681 28.2464 30.7555 28.6164C30.821 28.8994 30.8247 29.1969 30.8575 29.5017C29.7393 29.5017 28.6757 29.5017 27.5721 29.5017C27.5393 29.0808 27.5175 28.66 27.4665 28.2428C27.441 28.0178 27.4082 27.782 27.3062 27.5861C27.0804 27.158 26.8145 26.7553 26.5559 26.3454C26.1881 25.7649 25.8129 25.1881 25.445 24.6149C24.6984 24.9232 23.9226 25.2461 23.1249 25.5726C23.0994 25.7794 23.0703 26.0334 23.0411 26.2837C23.0011 26.6392 22.8262 26.915 22.5385 27.1109C22.2216 27.3249 21.8865 27.5063 21.5587 27.7022C21.4713 27.7566 21.3839 27.8147 21.2965 27.8691C21.3038 27.8909 21.3074 27.9126 21.3147 27.9344C21.424 27.9489 21.5369 27.9779 21.6425 27.9707C22.065 27.9417 22.4875 27.9017 22.9136 27.8655C23.0156 27.8582 23.1176 27.8473 23.2232 27.8473C24.1812 27.8437 24.7894 28.5294 24.6765 29.5053C24.6182 29.5089 24.56 29.5125 24.5017 29.5125C21.413 29.5125 18.3207 29.5162 15.2321 29.5125C14.9188 29.5125 14.5947 29.498 14.2924 29.4218C14.0447 29.3602 13.7715 29.2404 13.5931 29.0627C12.8828 28.3589 12.5113 27.5172 12.8355 26.5123C13.0358 25.8955 13.3126 25.3005 13.5785 24.7056C13.7533 24.3137 13.95 23.9328 14.0192 23.5011C14.143 22.7429 13.8116 22.0572 13.1633 21.7379C12.7444 21.5311 12.0487 21.8504 11.954 22.2966C11.9431 22.351 11.9722 22.4454 12.0123 22.4708C12.3292 22.6703 12.4785 22.9678 12.5477 23.3197C12.6424 23.8095 12.5477 24.5822 12.3474 24.9668C12.2454 24.8108 12.1434 24.6548 12.0414 24.4988C12.0961 25.1518 11.8338 25.6597 11.4332 26.1132C11.4113 26.1059 11.3931 26.1059 11.3895 26.1023C11.2365 25.6923 10.9524 25.3876 10.6246 25.1083C10.4643 24.9704 10.3405 24.7926 10.1985 24.6294C10.1547 24.7128 10.0928 24.8325 10.0309 24.9523C9.84515 24.7926 9.7286 24.4589 9.77959 24.1323C9.85608 23.6535 10.06 23.2471 10.5445 23.0403C10.5918 23.0186 10.6282 22.946 10.6501 22.888C10.8832 22.2785 11.2329 21.7561 11.8083 21.4187C12.2746 21.143 12.7918 21.0377 13.3308 21.1212C13.8334 21.1974 14.1467 21.5239 14.3252 21.9846C14.5801 22.6413 14.5655 23.3197 14.4089 23.9836C14.296 24.4697 14.1175 24.9414 13.9281 25.4057C13.7642 25.8157 13.5858 26.2184 13.5348 26.6646C13.4474 27.5208 14.0884 28.1847 14.9844 28.1194Z" fill="#20113D"/>
</svg>
