<svg width="42" height="60" viewBox="0 0 42 60" fill="none" xmlns="http://www.w3.org/2000/svg">
<path d="M20.8375 3.56836C11.479 3.56836 3.90723 10.7539 3.90723 19.6085C3.90723 28.463 20.8375 53.8386 20.8375 53.8386C20.8375 53.8386 37.7677 28.463 37.7677 19.6085C37.7677 10.7539 30.1959 3.56836 20.8375 3.56836Z" fill="#F58021"/>
<path fill-rule="evenodd" clip-rule="evenodd" d="M17.3258 21.1807C16.31 21.4814 15.2863 21.4352 14.2548 20.7643C14.1755 20.8618 14.0943 20.96 14.0123 21.0592L14.0123 21.0592C13.809 21.305 13.6007 21.557 13.4043 21.8207C13.2586 22.0251 13.1228 22.2371 12.987 22.4492L12.987 22.4492L12.987 22.4492C12.8511 22.6613 12.7153 22.8734 12.5696 23.0777C12.2468 23.5327 12.1287 24.0262 12.1602 24.5737C12.1995 25.2755 11.916 25.6302 11.2152 25.7536C9.7742 26.0081 8.4828 24.9593 8.47493 23.5327C8.47493 23.3934 8.47239 23.2541 8.46986 23.1153C8.46609 22.9083 8.46234 22.7024 8.46705 22.4993C8.48029 21.9548 8.72172 21.481 8.96206 21.0094C9.0076 20.9201 9.0531 20.8308 9.097 20.7411C9.21061 20.5104 9.32529 20.2801 9.43998 20.0497C9.86581 19.1943 10.2918 18.3386 10.664 17.4637C11.2112 16.1816 12.0331 15.0788 12.8579 13.9722C13.0303 13.741 13.2027 13.5096 13.3728 13.2764C13.381 13.2664 13.3897 13.2564 13.3985 13.2462L13.3985 13.2462C13.4237 13.2173 13.4498 13.1872 13.4673 13.153C14.3886 11.5104 16.0265 11.1249 17.7116 10.801C18.1272 10.7224 18.5394 10.6241 18.9513 10.5258C19.4292 10.4117 19.9068 10.2977 20.3889 10.2149C21.2709 10.0607 22.1764 9.93729 23.0741 9.90644C24.1372 9.86788 25.0348 10.3537 25.8302 11.0246C24.6254 10.4231 23.334 10.2149 21.9953 10.2457C21.6567 10.2535 21.3181 10.2843 20.9795 10.3229C20.4913 10.3768 20.2866 10.7316 20.1527 11.1403C19.8062 12.1813 19.8771 13.207 20.2472 14.2403C20.3364 14.4886 20.392 14.7506 20.4474 15.0115C20.4849 15.1883 20.5223 15.3646 20.57 15.5358C20.6309 15.7493 20.6902 15.9635 20.7496 16.1777C20.9671 16.962 21.1849 17.7477 21.4756 18.5048C21.5937 18.8209 21.9874 19.1294 22.326 19.2528C23.6568 19.7232 25.0191 19.9777 26.4286 19.5073C28.2004 18.9135 29.1138 17.0627 28.4445 15.3431C28.23 14.7983 27.9756 14.2702 27.7201 13.74L27.7196 13.7389L27.719 13.7378C27.6747 13.6458 27.6303 13.5537 27.5862 13.4615C27.5454 13.3759 27.4615 13.3072 27.3791 13.2397L27.3791 13.2397C27.3502 13.216 27.3214 13.1925 27.2948 13.1684C27.193 13.0738 27.0868 12.9817 26.9803 12.8894C26.7657 12.7033 26.5498 12.516 26.3656 12.3047C26.1058 12.004 26.1136 11.6261 26.342 11.3022C26.5625 10.9861 26.9168 10.9089 27.2869 10.9706C27.8618 11.0632 28.2319 11.4102 28.4208 11.9269C28.602 12.4281 28.4287 12.86 27.9799 13.2378C28.5705 13.7159 28.7673 14.4023 28.9406 15.0809C29.0061 15.3378 29.0414 15.603 29.0767 15.8688C29.1177 16.1774 29.1588 16.4868 29.2477 16.7851C29.396 17.279 29.574 17.7663 29.7522 18.254L29.7522 18.254L29.7522 18.2541C29.9051 18.6725 30.0581 19.0913 30.1926 19.515C30.3673 20.0575 30.5282 20.6045 30.6889 21.1512L30.689 21.1514C30.8253 21.6148 30.9615 22.078 31.106 22.5379C31.1866 22.7943 31.2896 23.0443 31.3926 23.2941L31.3926 23.2941L31.3926 23.2942L31.3926 23.2942C31.4507 23.4351 31.5088 23.5759 31.5627 23.7178C31.7353 24.1663 32.1261 24.3682 32.5134 24.5684C32.5856 24.6057 32.6576 24.6429 32.7282 24.6817C33.0904 24.8822 33.2794 25.1444 33.1849 25.5608C33.0982 25.9541 32.8384 26.2009 32.3581 26.1854C31.3738 26.1469 30.3973 26.0544 29.4209 25.9541C29.2555 25.9387 29.0823 25.769 28.9642 25.6302C28.3027 24.8514 27.6491 24.0648 27.0034 23.2782C26.5546 22.7307 26.2239 22.1292 26.0506 21.4429C25.977 21.1605 25.8269 20.8921 25.6785 20.6268C25.6365 20.5517 25.5945 20.4767 25.5546 20.4018C25.5152 20.3247 25.4049 20.2553 25.3183 20.2399L25.2561 20.2278C24.7573 20.1307 24.261 20.0341 23.8301 20.4635C23.7204 20.5786 23.5405 20.6403 23.3836 20.694L23.3835 20.6941L23.3835 20.6941L23.3812 20.6948C23.1056 20.7874 22.9796 20.957 23.082 21.2192C23.4452 22.173 23.4178 23.1475 23.3903 24.1242C23.3767 24.6084 23.363 25.0932 23.397 25.5762C23.411 25.7613 23.4374 25.9464 23.4638 26.1315C23.4969 26.3628 23.53 26.5942 23.5387 26.8255C23.5466 27.0029 23.4678 27.2573 23.3418 27.3499C22.2945 28.121 21.1213 28.2521 19.9165 27.828C19.318 27.6121 18.9164 27.1879 18.8219 26.4631C18.6408 24.9593 18.3967 23.4633 18.0817 21.9827C17.9683 21.4273 17.6953 20.8969 17.4294 20.3802C17.3999 20.323 17.3706 20.2659 17.3415 20.209C16.5856 18.7361 16.373 17.2092 16.6407 15.5744C16.8612 14.2172 17.1604 12.9216 18.0817 11.8497C18.2717 11.6308 18.4975 11.443 18.7223 11.2559L18.7223 11.2559L18.7223 11.2558C18.8142 11.1793 18.906 11.1029 18.9952 11.0246C19.0086 11.0133 19.023 11.0025 19.0376 10.9915L19.0376 10.9915L19.0376 10.9915C19.0826 10.9576 19.1288 10.9228 19.1526 10.8704C17.94 10.8858 16.8454 11.2174 15.7666 11.7109C14.756 12.1648 14.1769 12.9742 13.5905 13.7938L13.5905 13.7938C13.4596 13.9769 13.3283 14.1604 13.1917 14.3406C13.1366 14.4177 13.1366 14.5488 13.1445 14.6567C13.2601 15.7363 13.6851 16.7197 14.1093 17.7012L14.1366 17.7645C14.221 17.9518 14.2652 18.1587 14.3094 18.3657L14.3094 18.3657C14.3271 18.4484 14.3447 18.5312 14.365 18.6127C14.4122 18.821 14.4595 19.0369 14.4752 19.2528C14.4784 19.2967 14.4819 19.3408 14.4854 19.3851L14.4854 19.3852L14.4854 19.3852L14.4854 19.3852V19.3852C14.5078 19.6682 14.5308 19.9588 14.4831 20.2322C14.3886 20.718 14.428 20.8645 14.9398 20.9416L15.4386 20.9902C16.0689 21.0514 16.7097 21.1136 17.3258 21.1807ZM21.1218 13.9404C20.6651 13.7554 20.4761 13.3158 20.4131 12.7991C20.3422 12.2362 20.8619 11.5345 21.4683 11.3262C21.9486 11.1643 22.6258 11.4265 22.8936 11.8892C23.051 12.1668 23.114 12.3904 22.7676 12.6295C22.3755 12.8982 22.0114 13.2021 21.6185 13.5299C21.4589 13.6631 21.2946 13.8001 21.1218 13.9404ZM22.6181 16.3075C22.4764 16.9167 22.878 17.4026 23.3662 17.364C23.4104 17.226 23.4526 17.0909 23.4943 16.9576L23.4944 16.9575L23.4944 16.9574C23.5715 16.7108 23.6466 16.4706 23.7284 16.2304C23.75 16.1703 23.78 16.1119 23.8098 16.0535L23.8098 16.0535C23.8451 15.9846 23.8803 15.9158 23.9016 15.8448C23.9646 15.6212 24.0355 15.3282 23.7441 15.2588C23.5315 15.2125 23.1929 15.2819 23.0591 15.4284C22.8465 15.6598 22.689 15.9914 22.6181 16.3075ZM25.5282 15.2989L25.5282 15.2989C25.6034 15.1827 25.6758 15.0709 25.7753 15.0276C25.8777 14.9813 26.0982 15.0739 26.2084 15.1664L26.2816 15.2279C26.5425 15.4469 26.8087 15.6703 26.9959 15.9453C27.0982 16.1072 27.0589 16.408 26.988 16.6085C26.9329 16.755 26.7281 16.9092 26.5706 16.9401C26.4683 16.9555 26.3029 16.7704 26.2005 16.647C26.0273 16.4388 25.8777 16.2229 25.7281 15.9915C25.6518 15.8902 25.5944 15.7741 25.5272 15.6382C25.4972 15.5776 25.4653 15.513 25.4288 15.444C25.464 15.3981 25.4964 15.3481 25.5282 15.2989ZM25.8428 18.2137L25.8462 18.2117C25.8439 18.1985 25.841 18.1847 25.8381 18.1705C25.8306 18.1347 25.8225 18.096 25.8225 18.0574C25.7805 18.0471 25.7385 18.0334 25.6965 18.0197C25.6126 17.9923 25.5286 17.9649 25.4446 17.9649C25.1217 17.9649 24.7989 17.9726 24.4839 18.0112C24.3579 18.0266 24.2083 18.1114 24.1532 18.204C24.1217 18.2579 24.224 18.4276 24.3106 18.5047C24.3566 18.5497 24.4241 18.5658 24.4927 18.5822C24.5416 18.5939 24.5909 18.6056 24.6335 18.6281C24.7201 18.6744 24.8776 18.7669 24.8697 18.8054C24.8382 18.9134 24.7595 19.0214 24.665 19.0985C24.6192 19.1383 24.5538 19.1524 24.4729 19.1699C24.4285 19.1795 24.3794 19.19 24.3264 19.2064C24.6321 19.1868 24.9155 19.1672 25.1988 19.1476C25.3607 19.1363 25.5226 19.1251 25.6887 19.1139C25.5957 19.0734 25.4892 19.0612 25.3866 19.0494C25.1764 19.0252 24.9828 19.0029 24.9564 18.7438C25.2779 18.5517 25.5604 18.3827 25.8428 18.2137Z" fill="#20113D"/>
</svg>
