<svg width="42" height="60" viewBox="0 0 42 60" fill="none" xmlns="http://www.w3.org/2000/svg">
<path d="M20.8375 3.56836C11.479 3.56836 3.90723 10.7539 3.90723 19.6085C3.90723 28.463 20.8375 53.8386 20.8375 53.8386C20.8375 53.8386 37.7677 28.463 37.7677 19.6085C37.7677 10.7539 30.1959 3.56836 20.8375 3.56836Z" fill="#F58021"/>
<path d="M14.7557 23.9211C14.7411 23.9467 14.729 23.9759 14.6998 24.0271C14.3737 23.4836 14.2785 22.8829 14.1624 22.2906C14.1416 22.2832 14.1171 22.2781 14.0988 22.2743C14.0286 22.4536 13.9351 22.6217 13.893 22.8035C13.7474 23.399 13.7926 23.9957 13.9367 24.5906C14.1131 25.297 14.2895 26.0033 14.4402 26.7107C14.5523 27.2418 14.618 27.7824 14.5015 28.3268C14.3743 28.9261 14.1072 29.4109 13.4992 29.6381C13.2282 29.7378 12.9615 29.7019 12.7153 29.5623C12.4751 29.4239 12.4436 29.1793 12.6507 28.9997C12.7738 28.8917 12.9139 28.7776 13.0653 28.7199C13.3644 28.6069 13.5176 28.394 13.5409 28.0971C13.563 27.8223 13.5717 27.5351 13.5229 27.2647C13.3881 26.5415 13.2263 25.8255 13.0548 25.1107C12.8622 24.3089 12.749 23.5077 12.8876 22.6884C13.0083 21.9766 13.3177 21.3736 13.8856 20.9127C13.9271 20.88 13.9648 20.8496 14.0063 20.8169C14.0319 20.7999 14.0563 20.7891 14.1027 20.7637C14.1387 20.9045 14.1673 21.0342 14.1996 21.1615C14.3892 20.2607 14.4442 19.3163 15.1995 18.6305C16.3096 19.2498 16.9259 20.2118 17.1752 21.438C17.3959 20.0388 16.5546 19.0716 15.7328 18.0704C15.9377 17.9507 16.1317 17.8382 16.3256 17.7258C16.4903 17.6327 16.655 17.5396 16.8209 17.4404C17.1942 17.2252 17.2051 17.2179 17.4584 17.5813C17.6957 17.9287 17.9038 18.2954 18.1204 18.6512C18.161 18.7199 18.1979 18.791 18.2593 18.8513C18.2176 18.2045 17.9513 17.632 17.6263 17.0507C17.9971 16.8477 18.3582 16.6458 18.7292 16.4587C18.7792 16.4309 18.8809 16.4804 18.9434 16.5187C19.6505 16.9533 20.0651 17.6135 20.3529 18.3681C20.4394 18.5923 20.5149 18.8238 20.6148 19.0444C20.6115 17.9102 20.0357 16.9851 19.4464 16.0317C19.8671 15.7532 20.2768 15.482 20.7121 15.1939C21.1259 15.6316 21.3714 16.1965 21.6401 16.7568C21.6653 16.3206 21.5464 15.9214 21.3334 15.5473C21.2583 15.4112 21.1795 15.2775 21.0898 15.151C20.9803 14.9951 20.9822 14.8558 21.1174 14.7185C21.3902 14.4477 21.6581 14.1695 21.9309 13.8986C23.0181 14.6021 23.6698 15.5619 23.9155 16.8064C23.9741 16.1517 23.7993 15.5346 23.5598 14.9391C23.3215 14.3375 22.9343 13.8291 22.4483 13.3543C23.0014 12.8554 23.5351 12.3748 24.0833 11.8844C24.5905 12.462 25.0084 13.0244 25.2092 13.7199C25.1548 12.9593 24.9052 12.2697 24.4173 11.6262C24.6772 11.5019 24.9053 11.3774 25.1434 11.2836C25.1946 11.2656 25.289 11.32 25.354 11.3619C25.6395 11.5446 25.9444 11.6455 26.2915 11.6281C25.8914 11.5425 25.6666 11.2612 25.4892 10.9325C25.3624 10.7032 25.4462 10.5681 25.6955 10.5464C26.1111 10.505 26.5229 10.4501 26.9334 10.3855C27.2156 10.342 27.4879 10.252 27.7702 10.2086C28.1966 10.144 28.5882 10.2406 28.9838 10.4301C29.2803 10.5737 29.6277 10.6199 29.9592 10.6818C30.1611 10.7234 30.3476 10.892 30.3557 11.0937C30.36 11.2343 30.3678 11.3725 30.3855 11.5095C30.4371 11.8948 30.3198 12.2167 30.0556 12.5084C30.031 12.4716 30.0102 12.4482 29.9966 12.42C29.8756 12.1284 29.8781 12.1321 29.5752 12.1999C29.2881 12.2677 29.0122 12.3601 28.8151 12.6021C28.5876 12.8855 28.5632 13.2202 28.7659 13.4683C28.9293 13.6735 29.3794 13.7313 29.6466 13.5863C29.6966 13.5585 29.7467 13.5307 29.7967 13.5029C29.9311 13.8068 29.8856 14.0388 29.6455 14.2402C29.4554 14.3979 29.2469 14.5359 29.0299 14.7008C28.7799 14.5476 28.5139 14.3785 28.2407 14.2302C27.9614 14.0805 27.6712 13.9699 27.3036 14.0752C27.4457 14.1457 27.5523 14.2026 27.6993 14.2806C27.0939 14.5273 26.687 14.9134 26.462 15.5085C26.3841 15.2892 26.3087 15.0736 26.216 14.8164C26.1173 16.1614 27.1648 17.9744 29.22 18.5947C29.1248 18.6259 29.0503 18.6486 28.9746 18.6775C28.9771 18.697 28.976 18.719 28.9785 18.7386C29.0653 18.7343 29.1497 18.7421 29.2327 18.7243C29.5186 18.6625 29.8007 18.5873 30.089 18.5292C30.3675 18.4723 30.6197 18.5496 30.882 18.7371C30.5126 18.9816 30.1723 19.2068 29.8358 19.4296C29.548 19.6148 29.2626 19.8037 28.9699 19.9815C28.9126 20.0142 28.8148 20.0258 28.7597 19.9986C27.6034 19.4365 26.3774 19.1966 25.1071 19.1825C24.6938 19.1799 24.3254 19.0786 23.9883 18.8345C23.8988 18.7716 23.7947 18.7343 23.6699 18.7213C23.8087 18.8737 23.9438 19.0286 24.1083 19.2117C22.5699 19.4282 21.1733 19.9438 19.8905 20.7877C19.7268 20.5031 19.5729 20.2332 19.4215 19.9671C19.408 19.9707 19.3982 19.9718 19.3848 19.9754C19.4071 20.0562 19.4221 20.1419 19.4542 20.2215C19.6123 20.6319 19.5809 21.0351 19.4517 21.4498C19.1559 22.3891 18.5363 23.0965 17.8727 23.7854C17.505 24.1668 17.1766 24.5913 16.853 25.0073C16.606 25.3248 16.4779 25.7016 16.471 26.1098C16.4712 26.1734 16.4519 26.2392 16.4388 26.3223C16.3726 26.2864 16.3175 26.2592 16.2489 26.2196C16.2551 26.2527 16.254 26.2747 16.2614 26.2857C16.581 26.7326 16.9746 27.0296 17.5647 26.9257C17.7822 26.888 17.9889 26.9211 18.1646 27.1446C18.0841 27.1979 18.0073 27.2487 17.9342 27.2972C17.3671 27.6725 16.7976 28.0442 16.2392 28.4244C16.1111 28.5092 16.0341 28.4965 15.9139 28.4114C15.4897 28.1081 15.2264 27.6823 14.9851 27.2421C14.8964 27.0777 14.8723 26.86 14.8752 26.6669C14.8777 26.0387 14.9155 25.4083 14.9155 24.7764C14.918 24.488 14.857 24.1992 14.8278 23.9106C14.8033 23.9214 14.7813 23.92 14.7557 23.9211ZM27.8704 10.8167C27.8668 10.8509 27.8669 10.8826 27.8634 10.9168C28.0531 10.9718 28.2417 11.0488 28.4362 11.0793C28.5072 11.0907 28.5948 10.985 28.6753 10.9317C28.6041 10.8726 28.534 10.7597 28.4643 10.758C28.265 10.7519 28.0659 10.7934 27.8704 10.8167Z" fill="#20113D"/>
<path d="M20.4014 23.5399C20.3696 23.5397 20.2975 23.5344 20.1863 23.5337C20.5075 23.8094 20.8485 23.8225 21.1893 23.7879C21.5948 23.7477 21.9977 23.6719 22.4033 23.6317C22.6427 23.6112 22.8738 23.6651 23.0251 23.9153C22.9727 23.9553 22.9264 23.9966 22.8752 24.0305C22.2683 24.4325 21.6637 24.8381 21.0482 25.2351C20.9641 25.2908 20.831 25.3046 20.7295 25.2869C20.425 25.2337 20.1278 25.1597 19.8269 25.0882C19.4747 25.003 19.2589 24.8061 19.2293 24.4222C19.2202 24.2902 19.1476 24.1578 19.0787 24.0388C18.9422 23.8107 18.7874 23.5947 18.6326 23.3628C19.1988 22.8445 19.4368 22.1507 19.6982 21.468C19.8131 21.1742 19.9981 20.9774 20.2933 20.8509C20.5351 21.1261 20.7366 21.4121 20.6489 21.8099C20.6116 21.9673 20.5719 22.121 20.5493 22.2846C20.4983 22.69 20.4523 23.1028 20.4014 23.5399Z" fill="#20113D"/>
<path d="M22.2789 19.869C23.02 19.7233 23.7013 19.5907 24.4058 19.4533C24.5136 20.1675 24.3111 20.8909 24.6338 21.5637C24.524 21.6046 24.4252 21.6382 24.3251 21.6779C24.3265 21.7035 24.3314 21.7268 24.3328 21.7524C24.4891 21.7497 24.6517 21.7642 24.8043 21.7321C25.0534 21.6787 25.2888 21.5812 25.5366 21.5179C25.8174 21.4488 26.0353 21.5699 26.2354 21.7984C25.9977 21.9558 25.7674 22.1083 25.5407 22.2584C25.1275 22.532 24.7193 22.813 24.2987 23.0755C24.2231 23.1203 24.0912 23.128 24.0044 23.1006C23.6557 22.997 23.4201 22.739 23.2882 22.4229C22.9392 21.5923 22.6219 20.746 22.2789 19.869Z" fill="#20113D"/>
</svg>
